<?xml version="1.0" encoding="utf-8" ?><svg xmlns="http://www.w3.org/2000/svg" xmlns:xlink="http://www.w3.org/1999/xlink" width="2136" height="2016" viewBox="0 0 2136 2016"><defs><linearGradient id="gradient_0" gradientUnits="userSpaceOnUse" x1="202.55215" y1="1470.4319" x2="1360.3242" y2="559.53046"><stop offset="0" stop-color="#373A40"/><stop offset="1" stop-color="#787277"/></linearGradient></defs><path fill="url(#gradient_0)" d="M774.709 382.933C795.036 366.516 819.057 349.335 840.12 333.335C889.922 295.301 940.112 257.778 990.682 220.771C1004.56 210.596 1050.27 174.407 1062.51 168.692C1063.18 192.814 1062.38 222.093 1062.22 246.555L1061.7 377.297C1063.15 454.325 1060.76 535.889 1060.78 613.643L1060.67 713.529C1060.58 722.278 1060.55 754.547 1058.58 760.916C1051.85 782.662 1028.36 832.306 1016.7 851.221C1012.07 863.316 1004.63 875.902 999.101 887.776C965.457 960.069 926.849 1030.05 891.358 1101.34C858.985 1125.35 798.208 1148.02 760.472 1165.88C754.905 1168.52 724.354 1179.78 721.924 1181.76C725.247 1183.02 725.293 1182.94 728.655 1183.23C847.778 1164.76 978.123 1128.23 1085.88 1074C1105.33 1063.56 1124.15 1051.97 1142.81 1040.23C1155.01 1032.56 1168.02 1022.22 1180.64 1015.75C1197.06 1032.26 1213.35 1055.01 1229.28 1072.97C1252.73 1057.25 1322.72 994.544 1345.44 994.426C1353.77 994.383 1361.05 998.935 1366.63 1004.75C1369.62 1007.65 1369.97 1008.27 1372.25 1011.82C1388.31 1043.85 1368.79 1049.27 1349.67 1068.84C1354.4 1078.92 1363.34 1090.92 1370.94 1099.24C1377.3 1095.66 1381.18 1093.13 1387.17 1088.92L1485.66 1012.4C1494.24 1005.78 1502.68 998.973 1510.96 991.98C1505.71 982.877 1486.3 957.194 1484.98 950.272C1489.53 942.905 1524.09 916.085 1532.69 915.496C1539.47 919.17 1551.41 936.321 1556.44 943.197L1562.59 950.91C1570.63 961.221 1576.12 968.038 1581.23 980.056C1585.76 990.951 1585.65 1003.23 1580.91 1014.03C1573.64 1030.7 1556.23 1043.86 1542.34 1055.14C1536.58 1059.9 1530.75 1064.56 1524.84 1069.13C1497.8 1089.76 1470.94 1110.62 1444.26 1131.72C1416.23 1153.56 1377.66 1194.27 1341.4 1162.61C1325.76 1148.25 1318.75 1135.25 1307.13 1117.76C1304.88 1115.24 1301.43 1109.85 1299.4 1106.88C1279.21 1123.31 1258.9 1139.58 1238.46 1155.7C1100.38 1266.1 938.113 1342.22 764.95 1377.83C747.941 1406.16 734.244 1435.55 719.701 1465.18C703.821 1497.54 687.751 1529.8 671.492 1561.98C667.758 1569.45 649.91 1606.79 646.435 1610.29C632.782 1615.71 609.361 1613.79 594.388 1613.92C567.366 1614.22 540.342 1614.31 513.318 1614.18L299.601 1613.75C309.657 1588.8 330.174 1551.58 343.06 1526.68L407.055 1400.53L650.263 916.769C652.123 910.375 666.427 885.65 670.054 878.136C693.149 830.926 716.695 783.938 740.688 737.178C749.548 719.498 765.479 687.571 772.386 670.07C775.228 662.871 773.89 610.1 773.957 598.84C773.711 526.87 773.962 454.899 774.709 382.933Z"/><defs><linearGradient id="gradient_1" gradientUnits="userSpaceOnUse" x1="972.01276" y1="316.12473" x2="703.92383" y2="943.48163"><stop offset="0" stop-color="#868288"/><stop offset="1" stop-color="#AAA6AC"/></linearGradient></defs><path fill="url(#gradient_1)" d="M892.833 318.903L890.844 317.828C892.553 315.137 891.386 315.981 894.426 315.17C896.186 316.133 897.077 316.657 898.716 317.806C905.265 314.223 909.057 305.675 915.653 305.299C926.283 310.701 914.394 317.54 914.077 323.023C913.575 331.7 905.398 338.629 906.576 346.705L906.553 346.292L908.3 347.128C911.377 342.405 916.033 329.683 917.721 324.078C925.445 320.324 920.775 318.289 925.172 311.121L927.385 310.092L930.298 311.464C929.156 315.873 925.744 315.99 924.971 320.359C926.388 322.572 927.257 322.822 929.498 324.227C930.837 329.765 927.88 333.985 930.705 340.072C936.925 337.385 947.075 306.133 953.944 308.452L954.318 310.328C954.71 312.209 954.704 312.635 956.016 314.071L954.341 313.896C948.557 318.599 948.49 335.842 949.415 342.823L950.996 344.513C952.81 344.392 954.54 344.319 956.346 344.546C958.047 348.032 956.806 353.798 955.932 357.619L957.65 358.79C968.054 355.414 959.933 342.003 975.177 351.098C976.725 352.021 976.392 351.481 977.454 353.359C977.445 357.187 976.813 359.886 978.476 362.869C981.426 363.014 983.275 361.673 985.885 359.628L987.631 356.998C993.928 358.103 1007.17 363.685 1012.96 367.714C1013.59 368.151 1014.15 370.779 1014.36 371.661L1015.85 372.666L1018.35 371.487C1019.3 374.274 1018.94 374.391 1018.67 377.465C1020.26 379.982 1019.14 379.069 1022.5 379.828C1027.83 377.269 1032.1 374.763 1037.92 373.885C1042.09 370.008 1040.66 368.726 1042.72 365.661C1045.51 367.129 1050.42 369.821 1050.67 373.241C1051.68 387.22 1050.33 402.049 1050.68 416.211L1052.6 417.011C1049.78 425.499 1051.55 433.082 1047.37 443.284C1041.19 458.359 1029.54 475.786 1025.16 490.993C1007.81 522.967 992.616 556.567 975.825 588.83C972.126 595.937 961.25 618.864 957.811 623.489C955.963 627.405 953.616 632.039 951.97 635.96L949.496 642.005C939.367 656.709 922.226 696.068 912.525 714.352C906.889 726.119 901.153 737.839 895.318 749.509C886.842 765.546 873.978 789.213 867.32 805.654C852.034 834.253 838.196 863.984 823.583 892.932C815.984 907.986 806.782 928.913 797.244 942.254C792.163 942.382 796.507 938.747 792.229 941.023C787.189 949.675 783.245 967.703 777.894 972.931C772.247 971.584 772.291 975.501 770.29 980.585C771.135 974.047 771.567 965.997 772.989 959.864C788.843 943.896 791.89 928.453 801.778 908.7C804.521 903.221 808.216 901.296 809.928 896.19C807.483 892.142 806.986 892.858 807.415 889.171C808.461 888.275 808.847 887.818 810.04 887.147L805.967 885.693L805.253 887.718L804.107 888.22L803.698 890.04L803.814 888.801C804.303 883.097 804.916 882.966 800.17 879.609C797.707 872.627 803.097 871.348 803.149 864.973L801.856 864.511C793.839 870.956 796.901 883.632 785.334 880.894L785.756 878.355C780.164 881.959 783.538 889.676 774.655 892.123C774.955 889.842 775.247 888.451 775.764 886.204C773.169 883.521 772.74 882.654 769.067 881.841C760.706 883.541 758.466 886.651 754.536 876.863L753.177 876.496C746.843 887.539 723.981 934.581 716.119 939.305C715.124 938.616 714.59 938.147 713.398 937.845C714.985 931.823 719.236 924.515 722.255 918.817L720.7 918.277C718.613 920.243 717.546 921.291 715.142 922.965C710.651 922.068 712.046 916.079 706.123 915.85C701.236 919.634 701.231 926.911 694.546 929.472C696.017 926.844 696.492 926.426 696.345 923.282C693.176 920.727 692.532 921.394 687.843 920.608C687.203 914.337 696.54 905.328 690.605 898.35C685.163 899.802 686.261 903.98 682.989 902.812C682.298 898.564 682.199 897.781 684.473 893.755C684.505 891.059 684.298 887.779 684.192 885.032C685.078 884.259 685.28 883.918 686.537 883.832C689.557 883.625 693.085 875.929 694.814 872.769C698.373 867.957 707.498 840.97 710.439 833.324L710.757 832.401L711.939 832.474C713.726 828.217 712.623 824.585 717.164 821.228C719.348 819.613 718.89 818.813 719.553 816.139C719.874 813.955 722.843 804.864 723.782 802.207C726.18 795.42 725.925 792.128 732.401 788.796C734.7 786.139 735.866 782.127 736.994 778.837L737.933 777.167C737.152 771.996 738.491 769.415 740.29 764.556C741.549 763.726 745.693 760.973 746.278 759.914C759.883 735.294 768.322 705.937 784.489 683.171C785.046 682.387 787.82 683.889 788.63 684.203L789.697 683.53C788.654 679.632 787.149 676.317 788.92 673.226L791.432 673.084L793.46 675.763L794.801 675.477C795.29 672.404 793.715 669.302 792.614 666.226C790.237 665.186 791.408 665.774 789.106 664.453C787.998 658.841 792.207 658.382 791.428 652.896C789.635 652.071 789.091 651.815 787.456 650.726L787.71 647.487C791.19 642.054 795.465 641.787 800.446 644.819C805.307 643.873 816.311 618.355 805.362 613.79C798.511 614.986 795.101 621.968 790.391 627.902C789.365 628.386 788.781 628.375 787.626 628.587L786.902 627.135C788.868 621.036 791.426 607.654 795.623 604.469C794.748 597.856 785.155 593.769 785.84 584.352C786.628 573.533 798.113 561.107 794.624 552.001L795.485 548.87C794.422 547.41 793.368 547.462 792.323 545.307C785.606 531.448 794.555 521.598 798.876 509.119C799.818 506.399 800.421 504.781 798.956 502.341C797.343 502.073 798.174 502.366 796.539 501.265L797.238 496.319L796.286 497.633L796.589 498.122C795.009 499.198 795.655 498.827 794.614 500.949C792.047 497.001 791.393 499.295 789.313 494.769C790.254 491.441 790.407 491.355 792.078 488.501C791.964 486.94 791.689 485.479 791.449 483.928C789.474 483.149 788.635 482.765 786.771 481.752L785.888 476.081C788.086 471.992 785.881 454.433 785.597 448.058C794.529 423.769 814.875 394.523 821.821 373.179C823.988 370.556 824.017 370.028 827.27 368.989C838.579 358.381 837.218 366.783 846.127 358.937C850.896 353.84 850.638 354.998 848.789 348.794C854.381 341.719 866.969 334.915 875.099 331.215C878.254 327.808 880.617 322.413 885.596 321.758C889.018 319.954 889.15 319.781 892.833 318.903Z"/><path fill="#756E71" d="M1042.72 365.661C1045.51 367.129 1050.42 369.821 1050.67 373.241C1051.68 387.22 1050.33 402.049 1050.68 416.211C1049.16 412.456 1049.06 391.136 1048.29 384.273L1047.23 383.81C1045.66 387.619 1039.83 401.287 1037.83 404.05C1037.26 402.646 1036.95 401.822 1036.5 400.347L1036.11 399.061C1033.54 404.561 1026.75 420.992 1022.34 423.265L1021.31 421.325C1020.58 406.625 1042.4 383.144 1042.72 365.661Z"/><path fill="#878387" d="M710.757 832.401L711.939 832.474C712.65 835.57 713.252 836.524 714.834 839.18C712.619 853.509 705.469 865.601 697.544 877.107C695.938 879.439 697.08 884.626 692.763 888.304C694.383 880.772 695.273 880.935 694.814 872.769C698.373 867.957 707.498 840.97 710.439 833.324L710.757 832.401Z"/><path fill="#878387" d="M985.885 359.628C990.217 358.999 989.941 358.371 993.484 359.712C997.067 367.358 986.318 380.389 985.073 386.923L983.464 386.207C981.079 385.167 979.963 384.946 977.443 384.346L975.526 382.535C976.665 377.736 980.084 366.977 983.693 363.645C985.365 362.101 985.205 361.925 985.885 359.628Z"/><path fill="#9F9CA1" d="M950.831 635.551L951.97 635.96L949.496 642.005C939.367 656.709 922.226 696.068 912.525 714.352C910.722 713.253 910.422 712.924 908.79 711.565L909.596 710.892L911.697 711.765L914.884 706.486C913.333 704.447 913.369 704.627 913.104 702.09C915.118 697.125 918.495 689.303 921.938 685.12C922.92 683.928 924.079 684.42 926.278 684.404C929.794 675.18 945.219 642.777 950.831 635.551Z"/><path fill="#756E71" d="M846.127 358.937C850.896 353.84 850.638 354.998 848.789 348.794C854.381 341.719 866.969 334.915 875.099 331.215C870.015 343.103 858.816 340.023 851.067 348.877C849.944 350.16 857.9 354.326 846.127 358.937Z"/><path fill="#878387" d="M732.401 788.796L731.893 790.037C728.588 798.322 727.398 810.891 722.584 815.513L719.553 816.139C719.874 813.955 722.843 804.864 723.782 802.207C726.18 795.42 725.925 792.128 732.401 788.796Z"/><path fill="#878387" d="M885.596 321.758C889.018 319.954 889.15 319.781 892.833 318.903C892.955 324.598 891.607 328.802 886.035 330.874L884.704 330.465C883.069 329.979 881.422 329.67 879.763 329.289L880.111 329.249L880.949 326.905L879.98 329.047C881.424 325.54 882.941 324.425 885.596 321.758Z"/><path fill="#7D777B" d="M694.814 872.769C695.273 880.935 694.383 880.772 692.763 888.304L691.534 890.561C688.619 889.854 688.977 889.271 686.566 886.467C685.53 890.209 690.314 889.404 684.473 893.755C684.505 891.059 684.298 887.779 684.192 885.032C685.078 884.259 685.28 883.918 686.537 883.832C689.557 883.625 693.085 875.929 694.814 872.769Z"/><path fill="#5F5C63" d="M805.967 885.693C808.506 881.431 810.95 876.976 815.927 875.598L817.572 876.727C817.935 881.924 815.117 885.959 810.04 887.147L805.967 885.693Z"/><path fill="#9F9CA1" d="M950.831 635.551L951.505 632.601C950.303 629.679 949.898 629.183 949.634 625.995C951.929 623.728 954.468 623.905 957.811 623.489C955.963 627.405 953.616 632.039 951.97 635.96L950.831 635.551Z"/><path fill="#9F9CA1" d="M814.747 536.567C816.077 536.344 815.338 536.32 816.938 536.914C817.269 538.52 818.025 542.03 817.43 544.112C813.061 559.391 804.09 573.747 798.113 588.643C796.433 589.694 795.051 590.558 793.967 591.236C792.552 589.657 792.46 589.227 791.377 587.37C790.289 577.09 807.979 545.363 814.747 536.567Z"/><path fill="#878387" d="M858.791 406.666C859.52 408.215 859.264 408.778 859.263 410.485C860.191 410.551 861.12 410.617 862.048 410.683C859.355 423.244 840.874 451.623 834.429 469.023L831.984 469.817L830.893 469.146C837.879 450.667 850.421 425.277 858.791 406.666Z"/><path fill="#7D777B" d="M902.299 388.211C905.06 388.896 906.347 389.271 909.105 390.275C909.097 393.308 902.029 405.071 900.334 408.694C897.799 414.11 896.09 421.928 890.679 424.351L887.385 427.29L886.215 426.822C887.282 413.503 901.848 399.938 902.299 388.211Z"/><path fill="#756E71" d="M930.387 392.774L931.412 394.562C929.916 403.778 917.169 428.699 912.209 437.605L910.584 434.927C911.303 428.101 926.315 399.861 930.387 392.774Z"/><path fill="#7D777B" d="M915.174 403.458C916.137 404.282 916.322 404.861 917.036 405.996C917.396 413.886 901.138 439.997 896.27 449.128C896.222 449.074 896.152 449.034 896.127 448.966C894.156 443.739 912.143 409.683 915.174 403.458Z"/><path fill="#9F9CA1" d="M748.233 808.606L748.951 808.443L750.015 809.331C749.887 814.128 739.413 826.382 735.864 831.062C731.965 826.28 737.561 814.56 741.351 810.994C744.601 810.433 745.34 810.184 748.233 808.606Z"/><path fill="#9F9CA1" d="M825.648 429.641L827.484 431.438C829.673 439.627 826.801 447.754 818.961 451.365C811.825 445.464 821.416 435.021 825.648 429.641Z"/><path fill="#878387" d="M981.375 532.542C983.453 532.633 982.524 532.278 984.149 533.643C983.681 538.119 979.422 546.736 977.197 550.775C973.564 545.893 971.968 550.264 970.279 543.322C971.047 540.059 973.285 538.2 975.589 535.635C977.881 534.992 978.128 534.932 979.988 533.574L981.375 532.542Z"/><path fill="#9F9CA1" d="M815.924 643.473C817.333 644.218 818.257 646.062 819.278 647.549C823.145 646.548 820.086 645.127 825.254 642.764L827.83 643.932C826.848 645.877 826.388 647.383 825.858 649.497C824.212 653.102 822.927 655.452 819.322 657.073L817.423 656.157C816.591 654.093 815.355 645.128 815.924 643.473Z"/><path fill="#9F9CA1" d="M794.225 733.47L795.692 734.822C796.384 739.119 793.252 753.781 789.662 757.013C783.544 747.966 789.263 741.618 794.225 733.47Z"/><path fill="#9F9CA1" d="M909.344 669.62C913.064 672.612 904.653 686.41 902.4 689.479L898.888 689.773C897.871 689.288 898.531 689.694 897.358 688.024C898.45 681.198 904.773 675.046 909.344 669.62Z"/><path fill="#878387" d="M831.874 846.449L833.529 847.361C834.363 852.253 826.383 865.239 823.591 870.33C817.198 864.765 828.227 851.728 831.874 846.449Z"/><path fill="#9F9CA1" d="M764.333 840.429C765.394 841.098 765.825 841.708 766.726 842.634C766.7 848.615 758.036 859.818 754.267 865.24C753.532 862.228 753.291 862.301 751.72 859.618L752.253 857.692L754.854 857.446C757.802 855.172 762.417 844.409 764.333 840.429Z"/><path fill="#9F9CA1" d="M933.481 604.324C937.491 604.866 939.726 605.22 941.024 609.401C939.388 612.691 940.421 611.16 936.783 613.612L931.917 614.234C928.641 612.83 929.645 613.969 928.435 611.059C929.987 606.497 929.473 607.93 933.481 604.324Z"/><path fill="#9F9CA1" d="M727.251 873.396C734.25 878.089 728.047 884.522 724.685 889.985L722.776 890.474L721.594 889.046C721.817 884.079 724.565 877.521 727.251 873.396Z"/><path fill="#9F9CA1" d="M942.482 403.227L945.034 404.251C946.045 408.714 939.116 418.738 936.401 423.313L934.865 423.273L934.121 421.593C935.969 415.819 939.706 408.836 942.482 403.227Z"/><path fill="#9F9CA1" d="M872.976 459.184C875.127 459.971 874.24 459.327 875.65 461.096C875.846 467.753 874.844 473.502 871.311 479.188C870.061 478.381 869.613 477.855 868.515 476.847C868.616 475.171 871.952 465.433 872.753 460.599L872.976 459.184Z"/><path fill="#9F9CA1" d="M844.77 682.392C850.425 685.16 851.603 689.41 850.123 695.084C844.68 690.694 841.503 689.279 844.77 682.392Z"/><path fill="#9F9CA1" d="M840.395 583.616C842.794 583.78 845.092 584.64 847.009 586.092C849.721 588.104 849.97 590.047 850.395 593.03C843.111 591.44 841.081 590.587 840.395 583.616Z"/><path fill="#9F9CA1" d="M922.142 504.341C925.1 505.905 923.787 504.867 925.846 508.004C925.987 511.914 925.147 512.809 923.308 516.229C921.057 514.797 921.221 514.764 919.732 512.496C919.135 508.988 920.426 507.528 922.142 504.341Z"/><path fill="#9F9CA1" d="M717.103 847.158C719.266 848.007 718.563 847.585 720.244 849.126C720.716 853.187 718.597 855.887 716.561 859.67L714.402 859.608C713.446 855.247 715.426 851.751 717.103 847.158Z"/><path fill="#7D777B" d="M823.924 412.373L826.402 414.036L826.872 416.93C825.516 421.004 824.791 421.536 822.007 424.971L819.938 423.41L819.876 421.56C822.517 417.905 822.978 416.783 823.924 412.373Z"/><path fill="#9F9CA1" d="M774.863 715.53C776.685 717.233 776.056 716.465 776.958 719.009C776.39 722.497 775.105 723.639 772.964 726.443L771.559 726.453L770.783 724.515C771.622 720.271 772.528 719.324 774.863 715.53Z"/><path fill="#878387" d="M837.77 755.449L839.313 756.403C838.385 760.973 835.309 765.748 832.996 769.956C832.007 769.85 832.638 770.002 831.298 768.999C832.162 765.147 835.769 759.152 837.77 755.449Z"/><defs><linearGradient id="gradient_2" gradientUnits="userSpaceOnUse" x1="1017.0537" y1="833.7699" x2="581.36285" y2="1054.0853"><stop offset="0" stop-color="#4B4A50"/><stop offset="1" stop-color="#807C82"/></linearGradient></defs><path fill="url(#gradient_2)" d="M912.525 714.352C922.226 696.068 939.367 656.709 949.496 642.005C947.687 649.186 938.762 665.69 934.811 673.35C940.989 683.928 941.986 684.109 943.25 696.005L944.738 697.063L947.199 696.424L947.756 697.943C946.019 701.12 943.792 704.107 944.051 707.424L945.227 707.923L948.58 704.831C950.026 704.912 951.564 704.938 952.203 706.614C958.18 722.298 1017.58 827.601 1017.2 835.34L1014.77 838.017C1016.65 844.534 1017.51 844.139 1016.7 851.221C1012.07 863.316 1004.63 875.902 999.101 887.776C965.457 960.069 926.849 1030.05 891.358 1101.34C858.985 1125.35 798.208 1148.02 760.472 1165.88C754.905 1168.52 724.354 1179.78 721.924 1181.76C725.247 1183.02 725.293 1182.94 728.655 1183.23L727.474 1184.08C710.04 1184.87 696.225 1189.32 680.924 1197.16C677.39 1198.3 677.627 1200.26 674.341 1199.73C673.256 1191.81 689.285 1171.36 688.52 1163.9L685.161 1164.08C679.306 1167.69 676.769 1177.75 670.914 1185.64C669.888 1182.63 678.277 1166.64 676.103 1161C677.381 1153.09 673.171 1145.76 673.766 1143.44C675.794 1135.54 683.885 1120.94 687.514 1112.92L682.194 1111.34C680.659 1114.13 669.183 1137.38 669.932 1136.88C655.502 1146.45 651.723 1166.25 640.671 1178.77C645.647 1168.09 649.691 1156.92 655.605 1146.74C657.911 1142.77 659.956 1138.42 657.083 1134.44C650.571 1134.82 651.158 1146.04 645.579 1150.44C643.484 1145.75 647.144 1143.19 642.896 1139.12L638.575 1139.89L637.797 1135.95L636.513 1136.02L633.677 1140.15L632.334 1139.66C632.214 1133.78 643.58 1125.1 638.563 1119.24C637.29 1120.41 638.001 1119.96 636.441 1120.61L632.701 1117.45C630.357 1118.38 629.54 1120.99 627.877 1123.73L626.777 1123.92C625.098 1115.53 637.945 1078.09 637.125 1073.25C630.733 1077 620.019 1108.3 612.792 1116.29L611.803 1115.54C611.662 1113.15 611.853 1114.06 610.633 1111.87L607.497 1110.32C611.145 1103.45 619.651 1087.69 619.116 1080.51L617.642 1079.65C609.545 1082.77 610.047 1081.72 605.874 1088.23L605 1089.17C603.529 1080.38 622.173 1057.96 621.742 1049.56C618.843 1050.73 604.08 1079.77 601.433 1084.74L599.848 1082.89C599.687 1081.5 599.469 1081.24 598.983 1079.9L595.432 1079C595.079 1076.33 594.799 1077.53 596.297 1075.3C598.466 1074.96 599.42 1074.8 601.521 1074.19C604.147 1058.61 613.259 1048.42 617.628 1034.06C623.307 1027.37 625.779 1008.38 633.278 1006.64L634.366 1005.34C647.152 978.639 653.316 952.814 667.948 926.831C675.203 913.949 671.169 897.813 683.046 883.764L684.192 885.032C684.298 887.779 684.505 891.059 684.473 893.755C682.199 897.781 682.298 898.564 682.989 902.812C686.261 903.98 685.163 899.802 690.605 898.35C696.54 905.328 687.203 914.337 687.843 920.608C692.532 921.394 693.176 920.727 696.345 923.282C696.492 926.426 696.017 926.844 694.546 929.472C701.231 926.911 701.236 919.634 706.123 915.85C712.046 916.079 710.651 922.068 715.142 922.965C717.546 921.291 718.613 920.243 720.7 918.277L722.255 918.817C719.236 924.515 714.985 931.823 713.398 937.845C714.59 938.147 715.124 938.616 716.119 939.305C723.981 934.581 746.843 887.539 753.177 876.496L754.536 876.863C758.466 886.651 760.706 883.541 769.067 881.841C772.74 882.654 773.169 883.521 775.764 886.204C775.247 888.451 774.955 889.842 774.655 892.123C783.538 889.676 780.164 881.959 785.756 878.355L785.334 880.894C796.901 883.632 793.839 870.956 801.856 864.511L803.149 864.973C803.097 871.348 797.707 872.627 800.17 879.609C804.916 882.966 804.303 883.097 803.814 888.801L803.698 890.04L804.107 888.22L805.253 887.718L805.967 885.693L810.04 887.147C808.847 887.818 808.461 888.275 807.415 889.171C806.986 892.858 807.483 892.142 809.928 896.19C808.216 901.296 804.521 903.221 801.778 908.7C791.89 928.453 788.843 943.896 772.989 959.864C771.567 965.997 771.135 974.047 770.29 980.585C772.291 975.501 772.247 971.584 777.894 972.931C783.245 967.703 787.189 949.675 792.229 941.023C796.507 938.747 792.163 942.382 797.244 942.254C806.782 928.913 815.984 907.986 823.583 892.932C838.196 863.984 852.034 834.253 867.32 805.654C873.978 789.213 886.842 765.546 895.318 749.509C901.153 737.839 906.889 726.119 912.525 714.352Z"/><path fill="#756E71" d="M676.103 1161C683.739 1159.45 684.214 1144.33 689.856 1138.45C693.079 1138.3 692.919 1139.11 696.267 1141.51C695.423 1146.23 685.537 1158.64 685.161 1164.08C679.306 1167.69 676.769 1177.75 670.914 1185.64C669.888 1182.63 678.277 1166.64 676.103 1161Z"/><path fill="#5F5C63" d="M682.194 1111.34C685.238 1102.02 701.713 1066.44 706.948 1059.91C708.588 1060.2 707.725 1059.96 709.509 1060.73L711.296 1060.28C709.821 1064.98 706.846 1067.96 704.4 1072.3C699.407 1081.18 694.098 1091.75 692.16 1101.84C691.446 1105.57 689.988 1110.03 687.514 1112.92L682.194 1111.34Z"/><path fill="#414146" d="M895.318 749.509C896.713 756.126 897.245 755.883 894.251 761.877C891.071 768.244 871.519 804.101 867.32 805.654C873.978 789.213 886.842 765.546 895.318 749.509Z"/><path fill="#9F9CA1" d="M796.462 904.68C798.452 911.634 786.422 924.668 783.431 931.393C781.722 935.236 780.452 939.369 779.171 943.359C777.801 944.468 776.787 945.421 775.494 946.614L773.55 946.466C773.967 944.801 774.365 943.341 774.831 941.698L772.948 941.445C764.295 928.562 776.85 927.889 777.849 916.895C778.155 913.525 777.614 915.021 778.729 910.744C781.234 907.956 779.933 908.384 782.825 907.556C785.342 910.363 786.257 911.414 789.172 913.741C792.323 912.393 794.213 908.102 796.462 904.68Z"/><path fill="#9F9CA1" d="M757.176 894.64L758.37 895.184C758.65 899.731 746.775 923.009 743.661 927.434C742.049 926.444 741.41 923.294 740.546 921.005C741.528 918.901 741.178 920.004 740.967 917.42L741.416 917.197L741.535 916.839C739.411 917.167 739.291 917.456 737.407 918.539C735.705 916.29 736.131 917.549 736.278 914.58L739.601 913.556C748.268 899.58 744.276 904.585 757.176 894.64Z"/><path fill="#414146" d="M981.844 793.354L984.21 794.755C985.316 804.991 985.384 812.492 977.526 820.524L975.904 819.625C977.019 816.68 978.142 814.518 978.089 811.389L973.413 815.238C969.589 810.056 981.549 801.804 981.844 793.354Z"/><path fill="#7D777B" d="M757.265 1020.8L756.168 1021.41C754.339 1016.9 757.348 1005.35 762.965 1003.07L765.689 1004.34C768.063 1011.47 762.833 1016.82 757.265 1020.8Z"/><path fill="#756E71" d="M765.689 1004.34C768.063 1011.47 762.833 1016.82 757.265 1020.8C760.262 1013.65 761.418 1010.73 765.689 1004.34Z"/><path fill="#756E71" d="M877.353 1083.53C881.702 1086.61 881.781 1084.08 886.71 1087.53C887.974 1092.16 885.64 1097.01 884.219 1102.44C883.854 1102.55 882.205 1102.37 881.744 1102.34C879.941 1096.45 883.327 1098.28 882.255 1092.72L878.265 1090.78C876.445 1087.67 877.142 1087.88 877.353 1083.53Z"/><path fill="#7D777B" d="M694.287 962.518L696.682 964.427C698.026 970.09 690.925 980.088 687.673 985.576C685.807 984.782 686.558 985.432 685.522 983.512C688.652 976.642 690.703 970.164 694.287 962.518Z"/><path fill="#5F5C63" d="M688.511 1046.6C689.624 1047.61 689.079 1046.92 689.729 1048.96C687.728 1055.58 683.904 1062.21 680.642 1068.39L679.477 1067.16C679.306 1060.86 685.253 1052.12 688.511 1046.6Z"/><path fill="#7D777B" d="M728.958 936.132C733.114 937.877 731.663 936.503 733.826 939.975C733.801 943.683 732.821 944.515 730.741 947.582C728.91 945.169 727.968 943.76 726.363 941.179C726.721 937.438 726.048 939.138 728.958 936.132Z"/><path fill="#414146" d="M1054.06 436.757C1054.73 447.655 1053.29 460.133 1053.56 471.608L1055.53 605.765C1055.72 642.958 1054.63 676.387 1058.61 713.558C1060.75 683.337 1058.62 641.352 1059.1 610.229C1060.1 544.302 1057.49 477.342 1060.85 411.415C1061.19 404.629 1059.36 381.084 1061.7 377.297C1063.15 454.325 1060.76 535.889 1060.78 613.643L1060.67 713.529C1060.58 722.278 1060.55 754.547 1058.58 760.916C1051.85 782.662 1028.36 832.306 1016.7 851.221C1017.51 844.139 1016.65 844.534 1014.77 838.017L1017.2 835.34C1017.58 827.601 958.18 722.298 952.203 706.614C951.564 704.938 950.026 704.912 948.58 704.831L945.227 707.923L944.051 707.424C943.792 704.107 946.019 701.12 947.756 697.943L947.199 696.424L944.738 697.063L943.25 696.005C941.986 684.109 940.989 683.928 934.811 673.35C938.762 665.69 947.687 649.186 949.496 642.005L951.97 635.96C953.616 632.039 955.963 627.405 957.811 623.489C961.25 618.864 972.126 595.937 975.825 588.83C992.616 556.567 1007.81 522.967 1025.16 490.993C1032.41 481.413 1043.95 451.744 1054.06 436.757Z"/><path fill="#5F5C63" d="M1031.5 485.831C1035.75 490.231 1034.65 493.842 1032.52 498.662C1030.28 497.76 1030.45 497.559 1029.13 495.441C1028.67 491.435 1029.87 489.715 1031.5 485.831Z"/><path fill="#5F5C63" d="M650.263 916.769L653.084 917.818C652.516 923.287 643.983 941.487 639.536 944.47C635.793 959.561 623.728 982.008 616.602 996.41L572.419 1085.58C568.543 1093.47 563.512 1102.27 560.012 1110.13L560.931 1110.65C574.379 1098.5 577.677 1074.87 582.712 1070.07L584.257 1070.65L584.736 1071.8C580.304 1074.53 579.657 1081.94 577.568 1087.28C573.596 1097.43 567.482 1106.2 565.47 1116.98C565.337 1117.76 564.457 1118.59 563.576 1118.7C560.473 1123.34 559.442 1125.04 557.187 1130.12C553.454 1140.84 551.028 1148.26 546.755 1159L545.734 1159.25C545.886 1155.8 546.509 1155.17 548.195 1152.21C546.992 1149.01 547.715 1149.71 544.354 1148.36L545.527 1143.29L545.677 1139.26C543.44 1140.44 489.33 1247.66 484.249 1259.13C480.221 1266.6 476.281 1274.11 472.429 1281.67C467.377 1290.62 461.025 1304.75 456.146 1314.47L419.765 1386.96L307.913 1609.01C418.938 1608.22 529.967 1608.29 640.99 1609.22C654.776 1586.23 672.408 1547.39 684.88 1522.05C709.074 1473.72 732.815 1425.17 756.1 1376.4C797.342 1365.66 841.863 1354.86 882.308 1342.13C943.328 1322.53 1002.5 1297.61 1059.15 1267.63C1080.25 1256.4 1099.24 1244.34 1119.59 1232.3C1150.12 1214.23 1178.26 1195.68 1205.7 1173.02C1212.73 1167.21 1225.55 1151.77 1233.93 1151.43C1237.79 1153.26 1236.31 1151.91 1238.46 1155.7C1100.38 1266.1 938.113 1342.22 764.95 1377.83C747.941 1406.16 734.244 1435.55 719.701 1465.18C703.821 1497.54 687.751 1529.8 671.492 1561.98C667.758 1569.45 649.91 1606.79 646.435 1610.29C632.782 1615.71 609.361 1613.79 594.388 1613.92C567.366 1614.22 540.342 1614.31 513.318 1614.18L299.601 1613.75C309.657 1588.8 330.174 1551.58 343.06 1526.68L407.055 1400.53L650.263 916.769Z"/><path fill="#414146" d="M557.187 1130.12C554.075 1124.54 559.668 1110.91 564.749 1109.91C565.801 1113.67 564.832 1114.21 563.576 1118.7C560.473 1123.34 559.442 1125.04 557.187 1130.12Z"/><path fill="#414146" d="M545.527 1143.29C547.319 1139.99 548.454 1137.29 551.188 1134.73L552.296 1135.52C552.312 1143.9 550.169 1144.61 548.195 1152.21C546.992 1149.01 547.715 1149.71 544.354 1148.36L545.527 1143.29Z"/><path fill="#9F9CA1" d="M1229.28 1072.97C1252.73 1057.25 1322.72 994.544 1345.44 994.426C1353.77 994.383 1361.05 998.935 1366.63 1004.75C1360.18 1006.96 1349.51 993.242 1328.42 1006.13C1325.94 1007.65 1322.64 1009.25 1320.69 1011.38C1319.67 1014.32 1319.37 1015.17 1318.76 1018.33C1319.8 1020.19 1320.39 1021.24 1321.63 1022.96C1317.52 1026.7 1310.87 1031.27 1307.63 1034.33C1295.89 1039.04 1288.21 1040.84 1286.39 1054.63C1272.99 1063.55 1260.56 1073.63 1247 1082.49C1222.09 1098.75 1217.32 1074.4 1197.85 1059.97C1197.3 1047.02 1184.04 1046.05 1177.91 1037.89C1174.35 1037.33 1175.28 1039.07 1170.35 1040.34L1165.51 1037.09C1160.7 1040.93 1156.51 1045.43 1150.15 1042.33C1031.9 1117.91 873.509 1171.01 731.248 1185.87C730.008 1186 728.401 1184.9 727.474 1184.08L728.655 1183.23C847.778 1164.76 978.123 1128.23 1085.88 1074C1105.33 1063.56 1124.15 1051.97 1142.81 1040.23C1155.01 1032.56 1168.02 1022.22 1180.64 1015.75C1197.06 1032.26 1213.35 1055.01 1229.28 1072.97Z"/><path fill="#414146" d="M1320.69 1011.38C1319.67 1014.32 1319.37 1015.17 1318.76 1018.33C1319.8 1020.19 1320.39 1021.24 1321.63 1022.96C1317.52 1026.7 1310.87 1031.27 1307.63 1034.33C1295.89 1039.04 1288.21 1040.84 1286.39 1054.63C1272.99 1063.55 1260.56 1073.63 1247 1082.49C1222.09 1098.75 1217.32 1074.4 1197.85 1059.97C1197.3 1047.02 1184.04 1046.05 1177.91 1037.89C1179.68 1037.2 1181.18 1037 1183.04 1036.61L1183.81 1035.4L1181.4 1030.99C1176.52 1027.88 1178.16 1031.69 1173.41 1031.02L1172.18 1027.33L1180.44 1021.63C1197.33 1039.42 1212.39 1059.78 1229.85 1078.04C1258.34 1063.99 1293.21 1029.97 1320.69 1011.38Z"/><path fill="#5F5C63" d="M1150.15 1042.33C1157.4 1037.18 1164.74 1032.18 1172.18 1027.33L1173.41 1031.02C1178.16 1031.69 1176.52 1027.88 1181.4 1030.99L1183.81 1035.4L1183.04 1036.61C1181.18 1037 1179.68 1037.2 1177.91 1037.89C1174.35 1037.33 1175.28 1039.07 1170.35 1040.34L1165.51 1037.09C1160.7 1040.93 1156.51 1045.43 1150.15 1042.33Z"/><path fill="#5F5C63" d="M1181.4 1030.99L1183.81 1035.4L1183.04 1036.61C1181.18 1037 1179.68 1037.2 1177.91 1037.89C1174.35 1037.33 1175.28 1039.07 1170.35 1040.34L1165.51 1037.09C1168.52 1035.35 1177.03 1032.91 1181.4 1030.99Z"/><path fill="#414146" d="M1150.15 1042.33C1156.51 1045.43 1160.7 1040.93 1165.51 1037.09L1170.35 1040.34L1169.97 1040.81C1158.11 1045.31 1145.73 1059.8 1136.83 1058.71C1126.03 1063.09 1105.32 1080.52 1094.92 1087C1085.68 1092.76 1069.91 1097.91 1059.66 1103.18C1054.27 1105.95 1033.29 1119.36 1030.81 1120.11L1029.89 1119.12L1030.16 1115.48C1026.37 1115.58 1020.37 1122 1017.33 1124.88L1006.62 1125C1002.79 1128.11 999.009 1131.29 995.289 1134.53C981.232 1133.57 985.681 1137.77 971.049 1142.99C967.516 1147.15 963.698 1151.35 957.727 1149.34C948.492 1150.5 944.137 1155.94 936.065 1156.3L933.763 1152.94C929.491 1155.49 932.647 1159.28 929.088 1158.56C922.752 1157.28 919.118 1159.61 913.783 1163.48C911.691 1162.66 911.291 1162.67 909.565 1161.27L910.148 1159.63C913.391 1158.82 919.713 1157.75 921.694 1155.65C917.227 1153.02 901.664 1157.72 896.223 1158.76C889.778 1160.01 889.737 1160.94 886.637 1166.21C883.686 1168.19 881.993 1167.75 878.411 1167.67C877.912 1167.99 874.958 1169.87 874.732 1170.11C868 1173.62 871.692 1172.43 865.768 1171.82C864.166 1171.65 858.952 1177.34 854.441 1177.54C853.097 1173.27 854.065 1174.08 851.064 1172.06C840.07 1171.41 836.576 1179.4 826.361 1181.56C819.954 1182.91 809.875 1180.04 803.666 1180.67C790.438 1182.02 775.549 1187.94 762.847 1190.24C753.266 1191.97 747.289 1190.19 736.09 1193.07L725.379 1195.72C727.374 1193.39 727.228 1193.74 729.735 1191.92C721.857 1190.69 695.478 1198.74 680.924 1197.16C696.225 1189.32 710.04 1184.87 727.474 1184.08C728.401 1184.9 730.008 1186 731.248 1185.87C873.509 1171.01 1031.9 1117.91 1150.15 1042.33Z"/><path fill="#5F5C63" d="M957.727 1149.34L959.359 1147.76C958.189 1145.64 958.61 1146.77 958.112 1144.36C961.606 1142.25 967.453 1138.7 971.439 1139.55L969.912 1141.92L971.049 1142.99C967.516 1147.15 963.698 1151.35 957.727 1149.34Z"/><path fill="#73594D" d="M1341.4 1162.61C1349.82 1163.7 1350.69 1163.2 1358.84 1161.95C1359.76 1164.06 1360.65 1166.19 1361.51 1168.32C1380.17 1178.21 1421.51 1150.64 1429.94 1135.55L1429.02 1132.31C1430.58 1128.43 1439.68 1122.38 1443.97 1122.52C1445.15 1124.62 1444.48 1123.7 1445.92 1125.31C1450.06 1122.61 1455.82 1118.78 1457.81 1114.21L1456.69 1112.2C1457.87 1109.53 1459.52 1108.83 1462.04 1106.83C1464.03 1107.69 1463.03 1107.16 1465.06 1108.45C1473.37 1098.24 1486.98 1086.58 1498.85 1079.2C1498.87 1079.19 1505.53 1078.83 1506.9 1078.04C1516.9 1072.21 1511.99 1068.95 1524.84 1069.13C1497.8 1089.76 1470.94 1110.62 1444.26 1131.72C1416.23 1153.56 1377.66 1194.27 1341.4 1162.61Z"/><path fill="#756E71" d="M804.586 383.218C808.793 379.19 807.696 384.143 811.242 380.651C813.87 378.062 815.596 372.561 819.384 370.937L821.821 373.179C814.875 394.523 794.529 423.769 785.597 448.058C782.415 442.191 784.985 409.229 785.802 401.034C786.601 393.014 791.6 394.48 795.615 390.597C798.141 384.223 798.365 384.905 804.586 383.218Z"/><path fill="#756E71" d="M795.615 390.597C798.141 384.223 798.365 384.905 804.586 383.218C802.919 387.296 802.66 389.839 799.548 392.258C797.281 392.031 797.444 391.999 795.615 390.597Z"/><path fill="#9F9CA1" d="M1485.66 1012.4C1488.8 1014.31 1489.63 1014 1490.56 1016.67C1480.4 1026.69 1400.67 1091.33 1391.97 1091.12C1389.24 1091.05 1388.96 1090.76 1387.17 1088.92L1485.66 1012.4Z"/><path fill="#5F5C63" d="M874.732 1170.11C874.958 1169.87 877.912 1167.99 878.411 1167.67C881.993 1167.75 883.686 1168.19 886.637 1166.21C889.737 1160.94 889.778 1160.01 896.223 1158.76C901.664 1157.72 917.227 1153.02 921.694 1155.65C919.713 1157.75 913.391 1158.82 910.148 1159.63L909.565 1161.27C911.291 1162.67 911.691 1162.66 913.783 1163.48C910.421 1169.64 877.118 1197.88 870.163 1203.16L868.843 1202.99C868.991 1200.32 868.876 1198.47 868.554 1195.85C872.121 1187.72 887.218 1185.53 889.296 1174.07L888.425 1172.73C879.82 1173.77 877.245 1187.93 871.164 1183.28C870.65 1179.89 870.214 1181.29 871.591 1178.74C874.566 1177.6 878.576 1175.67 879.503 1172.36C877.239 1169.83 878.654 1170.78 874.732 1170.11Z"/><path fill="#5F5C63" d="M894.926 1167.4C897.206 1168.31 896.573 1168.04 898.574 1169.57C898.411 1172.92 897.838 1172.4 894.919 1175.65C893.55 1174.47 892.804 1173.52 891.599 1172.17C891.906 1169.07 891.726 1170.11 894.926 1167.4Z"/><path fill="#5F5C63" d="M1320.69 1011.38C1322.64 1009.25 1325.94 1007.65 1328.42 1006.13C1349.51 993.242 1360.18 1006.96 1366.63 1004.75C1369.62 1007.65 1369.97 1008.27 1372.25 1011.82C1360.47 1017.96 1360.95 1008.34 1351.03 1008.49C1348.68 1008.53 1341.08 1015.04 1338.23 1016.3C1329.65 1023.48 1319.02 1031.1 1310.37 1038.75C1307.9 1040.93 1297.2 1042.7 1293.98 1046.87C1293.49 1047.51 1290.12 1050.8 1288.55 1050.69C1293.95 1037.65 1300.71 1040.71 1307.63 1034.33C1310.87 1031.27 1317.52 1026.7 1321.63 1022.96C1320.39 1021.24 1319.8 1020.19 1318.76 1018.33C1319.37 1015.17 1319.67 1014.32 1320.69 1011.38Z"/><path fill="#5F5C63" d="M612.548 1033.86L613.768 1035.17L615.942 1032.63C617.469 1033.68 617.007 1033.1 617.628 1034.06C613.259 1048.42 604.147 1058.61 601.521 1074.19C599.42 1074.8 598.466 1074.96 596.297 1075.3C594.799 1077.53 595.079 1076.33 595.432 1079L598.983 1079.9C599.469 1081.24 599.687 1081.5 599.848 1082.89C596.692 1088.62 593.604 1094.39 590.585 1100.2C590.915 1096.52 592.526 1095.45 591.251 1091.65L590.127 1092.58C589.491 1096.22 587.868 1098.08 584.352 1099.23L583.023 1098.07C582.625 1091.77 594.849 1063.04 599.483 1059.76C602.395 1060.33 601.421 1060.34 604.319 1060.04C607.632 1050.96 602.508 1042.12 612.548 1033.86Z"/><path fill="#878387" d="M1571.5 971.973L1571.5 969.602C1576.38 973.644 1575.42 977.161 1581.23 980.056C1585.76 990.951 1585.65 1003.23 1580.91 1014.03C1573.64 1030.7 1556.23 1043.86 1542.34 1055.14L1537.35 1053.83L1536.87 1052.45C1558.5 1035.81 1582.15 1023.04 1578.35 991.795C1576.81 984.081 1575.37 978.952 1571.5 971.973Z"/><path fill="#7D777B" d="M784.645 479.452L785.888 476.081L786.771 481.752C788.635 482.765 789.474 483.149 791.449 483.928C791.689 485.479 791.964 486.94 792.078 488.501C790.407 491.355 790.254 491.441 789.313 494.769C791.393 499.295 792.047 497.001 794.614 500.949C792.922 504.14 791.064 507.867 789.184 510.903L786.519 511.708C781.83 518.139 788.242 528.281 780.915 532.288L779.954 530.907C779.355 518.437 777.982 498.26 782.315 486.564C783.342 483.792 783.53 483.959 784.425 480.36L784.645 479.452Z"/><path fill="#878387" d="M784.645 479.452L785.888 476.081L786.771 481.752C788.635 482.765 789.474 483.149 791.449 483.928C791.689 485.479 791.964 486.94 792.078 488.501C790.407 491.355 790.254 491.441 789.313 494.769C791.393 499.295 792.047 497.001 794.614 500.949C792.922 504.14 791.064 507.867 789.184 510.903L788.239 507.277C787.603 506.91 784.909 505.086 784.979 504.361C785.808 495.756 785.458 487.992 784.645 479.452Z"/><path fill="#9F9CA1" d="M792.078 488.501C790.407 491.355 790.254 491.441 789.313 494.769C791.393 499.295 792.047 497.001 794.614 500.949C792.922 504.14 791.064 507.867 789.184 510.903L788.239 507.277C792.885 498.088 790.25 503.496 787.771 493.545C789.634 489.553 788.331 491.237 792.078 488.501Z"/><path fill="#756E71" d="M612.548 1033.86L612.827 1033.39C616.334 1027.55 614.32 1026.23 616.831 1019.99C621.171 1009.18 633.241 993.224 634.698 982.185L636.395 981.023C637.137 985.332 634.035 988.093 633.575 994.082C635.535 994.533 634.574 994.145 636.422 995.336C636.587 998.129 634.98 1001.3 633.923 1004.04L634.366 1005.34L633.278 1006.64C625.779 1008.38 623.307 1027.37 617.628 1034.06C617.007 1033.1 617.469 1033.68 615.942 1032.63L613.768 1035.17L612.548 1033.86Z"/><path fill="#9F9CA1" d="M798.956 502.341C800.421 504.781 799.818 506.399 798.876 509.119C794.555 521.598 785.606 531.448 792.323 545.307C793.368 547.462 794.422 547.41 795.485 548.87L794.624 552.001C793.227 554.949 791.804 558.102 790.319 560.989C788.087 565.259 786.086 569.452 783.591 573.566L782.232 573.379C782.173 569.079 783.352 550.356 785.472 547.243L787.596 547.685C793.481 543.95 786.444 535.486 787.566 532.332C791.724 520.643 795.848 514.917 798.956 502.341Z"/><path fill="#9F9CA1" d="M790.319 560.989C787.524 556.528 788.091 548.28 795.485 548.87L794.624 552.001C793.227 554.949 791.804 558.102 790.319 560.989Z"/><path fill="#756E71" d="M683.046 883.764C688.081 871.472 696.098 859.765 700.843 847.525C702.106 844.267 698.218 842.494 706.993 837.36C706.631 837.572 710.771 832.949 710.439 833.324C707.498 840.97 698.373 867.957 694.814 872.769C693.085 875.929 689.557 883.625 686.537 883.832C685.28 883.918 685.078 884.259 684.192 885.032L683.046 883.764Z"/><path fill="#9F9CA1" d="M790.391 627.902C795.101 621.968 798.511 614.986 805.362 613.79C816.311 618.355 805.307 643.873 800.446 644.819C801.444 641.266 804.435 636.045 806.232 632.605C800.58 635.331 799.182 636.574 793.173 635.531L792.075 633.951C792.995 630.477 795.915 627.228 799.179 625.782C803.207 626.391 802.502 626.728 806.224 629.585L807.742 629.38C809.065 626.539 810.518 623.92 808.342 621.382C806.519 622.344 805.095 623.027 803.211 623.864C796.54 621.975 796.143 624.256 790.391 627.902Z"/><path fill="#73594D" d="M1556.67 983.107C1560.17 977.259 1565.44 974.453 1571.5 971.973C1575.37 978.952 1576.81 984.081 1578.35 991.795C1572.5 989.711 1571.12 989.713 1567.15 984.653L1567.54 984.098C1561.21 985.641 1562.04 985.309 1556.67 983.107Z"/><path fill="#756E71" d="M710.757 832.401C712.999 825.565 710.272 824.053 710.912 821.766C714.648 809.986 722.386 796.997 730.39 787.606C732.945 784.608 734.718 781.096 736.994 778.837C735.866 782.127 734.7 786.139 732.401 788.796C725.925 792.128 726.18 795.42 723.782 802.207C722.843 804.864 719.874 813.955 719.553 816.139C718.89 818.813 719.348 819.613 717.164 821.228C712.623 824.585 713.726 828.217 711.939 832.474L710.757 832.401Z"/><path fill="#5F5C63" d="M1136.83 1058.71C1145.73 1059.8 1158.11 1045.31 1169.97 1040.81C1163.63 1048.23 1147.01 1063.5 1137.66 1064.6L1136.1 1063.5C1137.01 1060.91 1137.3 1061.36 1136.83 1058.71Z"/><path fill="#414146" d="M484.249 1259.13C486.975 1263.75 488.464 1265.27 486.649 1270.67C484.069 1278.35 480.021 1281.61 472.429 1281.67C476.281 1274.11 480.221 1266.6 484.249 1259.13Z"/><path fill="#756E71" d="M1299.4 1106.88C1295.24 1106.38 1295.79 1107.15 1293.88 1104.77C1296.39 1102.25 1294.97 1103.34 1299.11 1102.24C1306.14 1103.47 1313.03 1109.52 1311.89 1117.16C1309.16 1118.2 1310.24 1117.91 1307.13 1117.76C1304.88 1115.24 1301.43 1109.85 1299.4 1106.88Z"/><path fill="#7D777B" d="M1554.77 996.172C1552.19 992.795 1549.52 989.885 1550.71 985.396C1553.43 982.849 1552.3 983.622 1556.67 983.107C1562.04 985.309 1561.21 985.641 1567.54 984.098L1567.15 984.653C1565.27 987.324 1557.56 993.754 1554.77 996.172Z"/><path fill="#756E71" d="M827.27 368.989C827.331 361.321 835.653 352.629 843.358 354.828L843.745 358.194L846.127 358.937C837.218 366.783 838.579 358.381 827.27 368.989Z"/><path fill="#7D777B" d="M1562.59 950.91C1562.46 955.275 1562.56 957.244 1563.53 961.495L1562.52 961.88C1557.13 957.731 1549.88 950.831 1554.03 943.723L1556.44 943.197L1562.59 950.91Z"/><path fill="#5F5C63" d="M605 1089.17L605.874 1088.23C606.647 1093.66 610.055 1092.46 607.625 1099.88C605.135 1102.53 602.323 1104.46 598.59 1104.91C599.463 1102.2 603.149 1094.26 604.615 1090.24L605 1089.17Z"/><path fill="#756E71" d="M607.497 1110.32L610.633 1111.87C605.264 1117.72 602.059 1130.88 598.015 1134.02C598.152 1125.32 603.252 1118.05 607.497 1110.32Z"/><path fill="#756E71" d="M598.59 1104.91C598.162 1105.15 593.488 1111.62 591.591 1113.39C598.809 1104 596.808 1094.8 604.615 1090.24C603.149 1094.26 599.463 1102.2 598.59 1104.91Z"/><path fill="#756E71" d="M590.585 1100.2C593.604 1094.39 596.692 1088.62 599.848 1082.89L601.433 1084.74C598.461 1089.71 593.388 1100.4 590.236 1103.73C589.752 1101.36 589.778 1102.54 590.585 1100.2Z"/><path fill="#5F5C63" d="M1456.08 1053.2C1458.65 1051 1462.98 1046.79 1465.95 1045.89L1466.87 1046.98C1465.55 1049.8 1463.18 1050.96 1460.54 1052.79L1460.16 1054.09C1456.83 1062.72 1416.21 1097.24 1406.67 1092.76C1409 1086.79 1448.14 1059.11 1456.08 1053.2Z"/><path fill="#5F5C63" d="M1494.61 953.353C1499.77 956.132 1503.17 965.542 1509.01 966.948C1511.23 965.478 1511.53 964.892 1514.09 964.704L1515.34 966.442C1515.14 969.199 1514.7 969.777 1513.54 972.225L1513.16 973.017C1513.68 978.218 1517.08 983.454 1519.44 988.631L1517.67 989.53C1514 988.206 1498.06 964.145 1494.76 959.368C1492.91 956.695 1493.77 956.277 1494.61 953.353Z"/><path fill="#5F5C63" d="M1045.21 198.631L1047.43 198.908L1048.57 200.623C1047.77 215.432 1044.43 208.597 1038.7 214.228C1034.97 215.097 1035.4 215.624 1032.42 214.539L1031.92 212.718C1034.07 206.697 1040.22 202.327 1045.21 198.631Z"/><path fill="#73594D" d="M1541.01 931.635C1542.63 933.114 1547.06 936.889 1546.99 938.97C1537.04 941.095 1541.58 944.867 1532.9 946.915C1529.51 947.889 1529.6 947.924 1526.09 947.893L1525.29 946.767C1528.06 942.095 1536.53 935.423 1541.01 931.635Z"/><path fill="#7D777B" d="M1250.68 1102.72L1252.32 1103.49C1249.13 1115.48 1242.79 1117.94 1232.27 1125.32L1231.92 1125.39L1231.26 1124.83C1239.48 1112.33 1237.1 1111.95 1250.68 1102.72Z"/><path fill="#5F5C63" d="M955.084 269.786C955.509 270.156 955.205 269.817 956.081 271.419C951.397 279.14 943.317 282.904 936.292 288.391L934.745 289.61C933.567 285.457 933.14 286.307 934.157 282.778C940.32 276.655 947.286 273.873 955.084 269.786Z"/><path fill="#5F5C63" d="M784.831 1201.52C788.573 1200.62 788.94 1201.14 791.427 1202.54C794.502 1210.32 792.991 1209.79 787.312 1215.3C790.026 1217.22 789.487 1216.03 790.047 1218.5C786.106 1223.35 781.163 1224.42 776.259 1229.64L776.394 1231.82L778.723 1231.39L778.437 1231.65L778.464 1233.12L773.195 1237.37C768.923 1237.36 770.6 1238.06 767.56 1236.2C771.122 1229.11 786.942 1223.37 791.469 1207.68C790.693 1203.96 791.583 1205.44 788.892 1203C786.571 1202.51 786.688 1202.99 784.831 1201.52Z"/><path fill="#5F5C63" d="M759.598 1216.66L761.476 1218.69C760.508 1224.44 751.521 1229.83 746.479 1233.64C744.388 1232.58 745.123 1233.4 744.358 1231.09C746.227 1227.51 756.033 1219.72 759.598 1216.66Z"/><path fill="#5F5C63" d="M1012.84 222.47C1014.54 222.653 1014.95 223.005 1016.59 223.662C1019.93 227.747 1019.75 230.289 1015.36 233.592L1013.92 232.519L1011.9 230.049C1009.29 229.554 1007.21 229.531 1005.4 227.715C1007.45 225.024 1009.84 224.104 1012.84 222.47Z"/><path fill="#5F5C63" d="M861.821 1248.92C864.114 1249.32 863.323 1249.02 865.223 1250.35C862.595 1253.78 846.709 1256.82 841.453 1258.08L840.639 1256.97C852.183 1248.18 852.412 1254.59 861.821 1248.92Z"/><path fill="#5F5C63" d="M1138.28 1163.19C1141.5 1163.23 1140.14 1162.68 1142.7 1164.14L1142.49 1166.2C1139.5 1170.02 1137.39 1171.25 1133.56 1174.07C1131.82 1175.36 1132.78 1175.11 1130.67 1174.87C1129.42 1169.38 1134.14 1165.58 1138.28 1163.19Z"/><path fill="#5F5C63" d="M1405.81 1108.73L1407.48 1110.63C1406.54 1115.67 1399.72 1119.54 1395.5 1122.46C1394.36 1121.96 1395.07 1122.35 1393.56 1120.98C1394.73 1115.83 1401.49 1111.84 1405.81 1108.73Z"/><path fill="#5F5C63" d="M1441.13 1098.04L1441.68 1098.59L1441.48 1100.29C1436.56 1105.63 1432.55 1108.13 1425.43 1109.62C1424.34 1108.27 1424.67 1109.08 1424.65 1107.14C1428.84 1103.31 1435.85 1100.19 1441.13 1098.04Z"/><path fill="#5F5C63" d="M735.498 1236.78L737.885 1237.46C739.109 1242.78 730.605 1246.1 726.496 1247.34L726.132 1248.44L724.984 1247.85C726.265 1242.82 731.45 1239.39 735.498 1236.78Z"/><path fill="#5F5C63" d="M1492.2 1054.64C1494.38 1055.32 1493.37 1054.75 1495.14 1056.48C1493.77 1059.97 1489.81 1062.9 1486.9 1065.53C1485.03 1065.07 1485.22 1064.97 1483.49 1063.97L1483.2 1062.07C1485.43 1058.57 1488.66 1056.97 1492.2 1054.64Z"/><path fill="#5F5C63" d="M879.196 1228.14L881.448 1228.17L882.562 1229.53C881.203 1233 877.228 1236.32 874.444 1239.06L873.672 1238.95C874.502 1233.42 872.848 1238.78 872.306 1233.2C874.267 1230.74 876.478 1229.75 879.196 1228.14Z"/><path fill="#7D777B" d="M1543.27 997.405L1544.21 998.966C1542.87 1002.42 1537.03 1008.13 1534.25 1011.15L1533.1 1009.5C1533.29 1008.71 1533.49 1007.93 1533.7 1007.16C1535.48 1000.96 1537.3 1000.58 1543.27 997.405Z"/><path fill="#9F9CA1" d="M1369.04 1015.55C1377.74 1019.04 1374.92 1030.6 1373.41 1037.43L1372.81 1037.75L1372.05 1036.59C1372.7 1026.19 1372.24 1025.2 1369.04 1015.55Z"/><path fill="#5F5C63" d="M654.072 1209.59C656.868 1209.58 657.921 1209.23 660.233 1210.7C660.47 1213.99 658.729 1215.86 656.95 1219.2L655.165 1219.72L653.737 1218.04C652.865 1213.79 652.798 1213.63 654.072 1209.59Z"/><path fill="#5F5C63" d="M571.458 1285.63C573.067 1290.52 567.657 1298.88 565.331 1304.69L564.15 1302.36C564.01 1296.49 568.349 1290.54 571.458 1285.63Z"/><path fill="#756E71" d="M1228.43 1091.53L1231.07 1092.18L1232.1 1093.92C1230.81 1097.06 1227.46 1099.1 1224.65 1101.28C1223.38 1101.86 1224.2 1101.59 1222.1 1101.71C1222.04 1097.89 1225.86 1094.3 1228.43 1091.53Z"/><path fill="#5F5C63" d="M813.306 1248.93L814.213 1249.24C814.043 1253.12 810.356 1256.7 807.704 1259.44L805.522 1258.13L805.093 1256.09C806.923 1252.76 810.118 1251.09 813.306 1248.93Z"/><path fill="#5F5C63" d="M755.956 1244.61L757.3 1245.33L757.725 1247.37C756.504 1250.84 755.51 1251.44 752.908 1253.97L750.615 1253.03L749.865 1251.04C751.094 1247.96 753.312 1246.71 755.956 1244.61Z"/><path fill="#5F5C63" d="M576.362 1164.47L578.05 1166.53C577.79 1170.77 575.826 1173.75 573.893 1177.61L572.104 1175.85C572.25 1171.66 574.436 1168.33 576.362 1164.47Z"/><path fill="#7D777B" d="M1518.31 1003.48L1519.77 1004.83C1520.62 1009.29 1518.7 1012.42 1516.61 1016.24C1513.36 1012.55 1516.51 1007.21 1518.31 1003.48Z"/><path fill="#5F5C63" d="M1506.14 1010.65C1507.11 1011.03 1506.47 1010.71 1507.79 1011.98C1505.95 1014.9 1503.68 1015.74 1500.6 1017.69L1499.9 1017.65L1498.88 1016.46C1500.32 1013.89 1503.53 1012.33 1506.14 1010.65Z"/><path fill="#5F5C63" d="M1332.64 1064.74L1334.76 1066.36L1334.56 1067.83L1329.71 1071.17L1327.83 1069.97C1328.58 1067.24 1329.94 1066.97 1332.64 1064.74Z"/><defs><linearGradient id="gradient_3" gradientUnits="userSpaceOnUse" x1="1062.3323" y1="263.51099" x2="1330.5542" y2="550.46777"><stop offset="0" stop-color="#B0856C"/><stop offset="1" stop-color="#ECC3AA"/></linearGradient></defs><path fill="url(#gradient_3)" d="M1104.65 168.085C1104.9 168.211 1105.15 168.337 1105.4 168.462L1106.64 169.118C1120.22 176.202 1141.79 193.482 1154.71 203.283L1216.49 249.772L1298.7 311.53C1318.3 326.052 1380.72 369.558 1393.49 387.784L1393.25 561.094C1393.33 587.068 1390.13 663.989 1401.83 682.413C1412.42 689.514 1438.98 664.037 1446.87 657.376C1438.15 643.799 1427.53 632.427 1418.4 619.295C1416.59 616.704 1416.56 616.301 1417.1 613.988C1425.12 607.934 1442.66 607.162 1453.01 606.191C1494.3 602.317 1535.92 596.856 1577.42 596.098C1573.07 605.162 1570.43 614.718 1565.63 624.273C1560.88 640.195 1553.21 659.887 1547.44 675.668C1542.93 690.571 1536.51 705.627 1531.12 720.298C1528.62 727.111 1524.09 743.617 1518.46 746.792C1507.14 747.527 1491.92 717.47 1483.43 708.033C1469.09 722.109 1454.24 735.655 1438.91 748.644C1405.93 744.496 1386.21 742.746 1356.78 761.949C1349.37 766.783 1338.88 775.183 1331.86 779.598C1328.41 782.285 1320.35 788.854 1316.95 790.53C1286.82 815.344 1253.38 838.804 1222.17 862.339C1209.64 871.785 1194.44 881.992 1182.54 891.784C1180.65 893.769 1179.7 894.125 1177.35 894.089C1172.47 890.184 1168.24 878.409 1165.39 872.438C1149.07 838.236 1131.08 804.915 1112.99 771.632C1110.35 766.777 1107.82 759.621 1106.5 754.164C1104.05 734.741 1105.1 712.602 1105.03 692.999L1104.99 552.214L1104.18 303.87C1104.05 261.288 1102.83 210.078 1104.65 168.085Z"/><defs><linearGradient id="gradient_4" gradientUnits="userSpaceOnUse" x1="1301.9298" y1="643.99579" x2="1430.4202" y2="803.40082"><stop offset="0" stop-color="#B68E75"/><stop offset="1" stop-color="#DAB39E"/></linearGradient></defs><path fill="url(#gradient_4)" d="M1383.01 499.976L1382.87 511.223L1384.63 511.758C1388.25 535.074 1383.32 538.421 1383.96 560.453C1384.03 562.586 1383.09 563.795 1382.02 565.67C1380.75 563.825 1380.43 563.245 1379.36 561.305C1378.48 566.632 1383.69 572.558 1383.99 577.439C1384.29 582.555 1381.92 575.929 1382.27 583.634C1382.55 589.75 1384.72 614.263 1383.28 619.172L1381.27 618.196C1381.58 624.02 1385.86 630.138 1383.01 638.704C1379.37 648.65 1387.79 653.482 1385.31 667.542C1381.34 672.599 1382.08 671.107 1384.03 675.903C1388.52 686.973 1390.34 699.061 1402.06 705.918C1414.17 712.995 1429.82 700.851 1436.75 691.305C1437.37 690.421 1435.91 685.114 1439.24 683.678C1446.61 677.793 1453.86 676.433 1458.34 667.758C1458.42 663.745 1457.56 663.723 1455.36 659.598C1455.71 657.068 1455.62 657.904 1456.39 655.878C1459.05 648.866 1439.98 631.946 1439.39 626.468C1449.2 619.943 1456.99 627.291 1459.59 626.252C1473.89 620.531 1563.26 614.884 1568.72 602.08L1566.35 599.5C1567.04 599.096 1568.37 598.857 1569.23 598.639L1570.07 599.377C1572.46 608.11 1564.9 615.171 1565.63 624.273C1560.88 640.195 1553.21 659.887 1547.44 675.668C1542.93 690.571 1536.51 705.627 1531.12 720.298C1528.62 727.111 1524.09 743.617 1518.46 746.792C1507.14 747.527 1491.92 717.47 1483.43 708.033C1469.09 722.109 1454.24 735.655 1438.91 748.644C1405.93 744.496 1386.21 742.746 1356.78 761.949C1349.37 766.783 1338.88 775.183 1331.86 779.598C1328.41 782.285 1320.35 788.854 1316.95 790.53C1286.82 815.344 1253.38 838.804 1222.17 862.339C1209.64 871.785 1194.44 881.992 1182.54 891.784C1180.25 891.652 1179.82 891.469 1177.59 890.855L1177.69 889.284C1175.51 876.345 1164.11 862.123 1160.02 848.224C1153.25 838.454 1147.73 823.546 1141.63 813.069C1135.96 803.311 1130.54 795.775 1125.13 785.605C1126.04 785.556 1127.98 785.526 1128.7 784.988C1166.24 756.947 1203.04 727.248 1240.13 698.519C1241.72 697.29 1242.11 696.229 1242.8 694.697C1239.57 685.463 1234.71 679.618 1231.56 671.1C1230.71 664.226 1226.94 658.655 1223.59 652.396C1237.67 637.982 1253.18 624.197 1267.62 610.071C1305.43 573.088 1345.43 537.071 1383.01 499.976Z"/><path fill="#E8C3AE" d="M1383.01 499.976L1382.87 511.223L1384.63 511.758C1388.25 535.074 1383.32 538.421 1383.96 560.453C1384.03 562.586 1383.09 563.795 1382.02 565.67C1380.75 563.825 1380.43 563.245 1379.36 561.305C1378.48 566.632 1383.69 572.558 1383.99 577.439C1384.29 582.555 1381.92 575.929 1382.27 583.634C1382.55 589.75 1384.72 614.263 1383.28 619.172L1381.27 618.196C1381.58 624.02 1385.86 630.138 1383.01 638.704L1381.59 638.831L1378.12 640.748C1374.18 642.176 1375.45 641.66 1372.54 645.646C1371.48 644.304 1371.03 643.67 1370.03 642.201L1368.86 643.386C1368.91 647.733 1368.33 645.822 1370.41 649.411C1366.75 646.887 1364.84 645.019 1360.49 644.082L1358.76 644.956C1357.51 650.284 1357.8 652.831 1357.67 658.39C1352.04 659.323 1348.95 653.738 1345.69 656.205L1345.3 657.182C1344.1 660.164 1343.94 661.036 1341.68 663.402L1339.49 663.779L1337.78 662.46C1337.42 659.075 1337.38 658.127 1336.27 654.792C1334.05 653.239 1335.25 653.496 1332.78 653.436L1330.74 656.48C1333.92 664.245 1335.36 667.543 1336.3 676.086L1335.52 677.3C1332.01 673.632 1334.21 674.776 1332.08 669.829L1328.58 670.603C1327.53 673.439 1327.79 672.259 1328.24 675.528C1325.42 680.033 1322.56 672.988 1321.49 684.755C1315.19 683.773 1314.43 682.311 1310.03 677.503C1298.26 680.551 1301.25 690.485 1291.24 680.214L1289.38 680.25C1289.06 682.688 1289.22 682.846 1289.66 685.308L1287.64 683.662C1277.57 687.05 1276.88 695.805 1264.73 689.824L1263.84 689.379C1263.13 694.129 1262.46 699.536 1261.5 704.187C1256.99 696.614 1251.62 687.03 1246.52 680.047C1248.4 687.275 1252.72 702.081 1252.93 708.952L1249.17 706.777C1247.07 702.344 1245.54 698.811 1242.8 694.697C1239.57 685.463 1234.71 679.618 1231.56 671.1C1230.71 664.226 1226.94 658.655 1223.59 652.396C1237.67 637.982 1253.18 624.197 1267.62 610.071C1305.43 573.088 1345.43 537.071 1383.01 499.976Z"/><path fill="#D1AE9B" d="M1332.08 669.829C1329.44 660.876 1313.94 632.145 1317.01 624.921C1319 625.776 1321.5 639.169 1326.59 644.052C1329.02 646.948 1331.13 651.665 1332.78 653.436L1330.74 656.48C1333.92 664.245 1335.36 667.543 1336.3 676.086L1335.52 677.3C1332.01 673.632 1334.21 674.776 1332.08 669.829Z"/><path fill="#B08973" d="M1326.59 644.052C1329.02 646.948 1331.13 651.665 1332.78 653.436L1330.74 656.48C1328.62 651.41 1327.76 649.511 1326.59 644.052Z"/><path fill="#B08973" d="M1374.77 624.6C1377.52 629.133 1379.45 633.969 1381.59 638.831L1378.12 640.748C1376.91 635.459 1375.86 629.933 1374.77 624.6Z"/><path fill="#997A69" d="M1519.91 735.766C1526.21 722.44 1538.24 686.149 1547.44 675.668C1542.93 690.571 1536.51 705.627 1531.12 720.298C1528.62 727.111 1524.09 743.617 1518.46 746.792C1507.14 747.527 1491.92 717.47 1483.43 708.033C1469.09 722.109 1454.24 735.655 1438.91 748.644C1405.93 744.496 1386.21 742.746 1356.78 761.949C1349.37 766.783 1338.88 775.183 1331.86 779.598C1333.9 776.027 1337.87 774.139 1336.66 769.908C1332.94 769.014 1332.19 771.48 1329.44 769.951C1340.88 751.311 1391.49 740.527 1411.95 738.958C1417.21 738.555 1431.3 741.74 1437.32 742.769C1455.78 730.069 1469.62 711.925 1490.48 697.996C1502.35 708.617 1509.31 723.241 1519.91 735.766Z"/><path fill="#D1AE9B" d="M1160.02 848.224C1161.1 844.148 1160.69 839.104 1161.9 833.618L1163.39 832.817C1169.34 834.784 1166.38 840.528 1170.22 846.838L1172.4 846.98C1173.37 846.214 1176.96 843.398 1177.96 843.643C1184.7 845.292 1205.31 853.543 1210.64 853.568L1213.41 847.288C1215.19 845.528 1231.01 843.176 1234.91 842.35C1220.58 861.651 1191.81 868.772 1177.69 889.284C1175.51 876.345 1164.11 862.123 1160.02 848.224Z"/><path fill="#E8C3AE" d="M1234.91 842.35C1253.66 825.994 1279.46 811.872 1300.35 798.529C1304.88 795.641 1311.35 789.486 1315.38 788.327L1316.95 790.53C1286.82 815.344 1253.38 838.804 1222.17 862.339C1209.64 871.785 1194.44 881.992 1182.54 891.784C1180.25 891.652 1179.82 891.469 1177.59 890.855L1177.69 889.284C1191.81 868.772 1220.58 861.651 1234.91 842.35Z"/><path fill="#D1AE9B" d="M1249.17 706.777L1252.93 708.952C1255.16 713.116 1255.47 713.447 1256.2 718.003L1255.41 718.45C1251.96 714.731 1251.08 711.482 1249.17 706.777Z"/><path fill="#D1AE9B" d="M1487.23 686.71L1488.88 687.583C1489.22 689.003 1491.09 697.201 1490.58 698.296C1480.57 695.273 1483.51 690.681 1472.07 702.812C1464.85 710.47 1460.63 717.581 1450.51 721.697C1446.89 717.999 1447.73 720.64 1444.77 717.159C1446.93 709.088 1464.89 694.91 1472.35 690.705C1477.79 690.628 1471.96 690.996 1475.74 693.661C1480.13 692.794 1483.54 689.526 1487.23 686.71Z"/><path fill="#D1AE9B" d="M1459.03 684.159L1459.41 684.64L1459.12 686.901C1452.69 696.021 1441.41 704.389 1431.74 709.802C1431.27 708.184 1430.94 706.38 1430.58 704.716C1432.24 700.59 1453.22 688.132 1459.03 684.159Z"/><path fill="#D1AE9B" d="M1375.42 677.629C1379.71 680.805 1383.17 702.268 1381.98 705.66C1377.5 698.818 1373.98 696.229 1376.68 687.981C1373.83 681.035 1373.56 685.045 1375.42 677.629Z"/><path fill="#D1AE9B" d="M1518.76 625.912L1519.6 626.884C1519.01 629.889 1516 631.552 1513.2 633.982L1512.36 632.826C1513.18 629.641 1516.02 628.092 1518.76 625.912Z"/><defs><linearGradient id="gradient_5" gradientUnits="userSpaceOnUse" x1="1049.6892" y1="509.94202" x2="1201.4036" y2="735.68396"><stop offset="0" stop-color="#886146"/><stop offset="1" stop-color="#B78F75"/></linearGradient></defs><path fill="url(#gradient_5)" d="M1111.49 432.905C1114.69 436.351 1114.8 436.649 1116.84 440.972L1120.62 448.841L1195.62 600.095L1219.89 648.841C1222.66 654.329 1228.54 666.697 1231.56 671.1C1234.71 679.618 1239.57 685.463 1242.8 694.697C1242.11 696.229 1241.72 697.29 1240.13 698.519C1203.04 727.248 1166.24 756.947 1128.7 784.988C1127.98 785.526 1126.04 785.556 1125.13 785.605C1117.34 770.741 1110.65 760.1 1114.65 742.724C1116.17 736.156 1119.7 725.091 1116.17 719.105C1114.33 714.859 1115.6 714.373 1117.33 710.343L1115.78 707.807C1116 704.096 1115.32 705.641 1117.8 702.975C1118.45 697.677 1118.77 691.238 1119.17 685.817L1119.08 684.891L1118.76 684.434C1117.36 685.204 1114.34 694.842 1113.47 697.219C1114.19 678.212 1122.8 667.917 1113.47 649.886L1111.63 648.904L1112.79 641.85C1110.92 644.897 1110.62 646.493 1109.61 649.866L1109.5 648.401C1108.91 640.458 1107.97 555.157 1109.51 553.813C1110.88 552.618 1111.65 554.57 1113.82 552.037C1114.15 546.94 1113.98 544.832 1113.47 539.72C1112.57 542.849 1111.89 547.005 1111.8 550.266L1111.77 551.859L1111.11 551.457C1110.09 541.837 1110.94 532.906 1110.35 523.647C1108.67 497.24 1113.64 464.093 1110.67 438.452L1111.49 432.905Z"/><defs><linearGradient id="gradient_6" gradientUnits="userSpaceOnUse" x1="1110.603" y1="488.83087" x2="1124.0262" y2="489.18579"><stop offset="0" stop-color="#623F2B"/><stop offset="1" stop-color="#815A3F"/></linearGradient></defs><path fill="url(#gradient_6)" d="M1111.49 432.905C1114.69 436.351 1114.8 436.649 1116.84 440.972L1120.62 448.841C1123.18 465.603 1128.35 491.877 1123.59 508.83L1121.98 510.311C1122.95 514.783 1125.33 519.141 1124.45 523.331C1125.34 525.36 1126.09 525.578 1125.5 527.441C1122.27 537.545 1123.78 546.386 1124.88 556.548C1123.86 553.308 1122.01 546.467 1120.4 543.908L1118.44 548.743L1117.24 548.053C1116.54 545.05 1116.9 544.364 1117.41 541.331L1116.12 539.614L1113.47 539.72C1112.57 542.849 1111.89 547.005 1111.8 550.266L1111.77 551.859L1111.11 551.457C1110.09 541.837 1110.94 532.906 1110.35 523.647C1108.67 497.24 1113.64 464.093 1110.67 438.452L1111.49 432.905Z"/><path fill="#73594D" d="M1124.45 523.331C1120.44 520.791 1115.77 514.774 1119.25 510.312L1121.98 510.311C1122.95 514.783 1125.33 519.141 1124.45 523.331Z"/><path fill="#997A69" d="M1114.17 604.372L1114.45 602.854C1114.93 600.173 1115.84 594.434 1115.88 591.865C1115.96 586.909 1113.97 584.918 1115.55 579.681L1116.97 578.898C1121.18 580.633 1120.86 611.425 1124.94 618.895C1126.64 622.011 1120.85 647.91 1122.4 653.031C1123.16 660.627 1121.63 677.565 1119.08 684.891L1118.76 684.434C1117.36 685.204 1114.34 694.842 1113.47 697.219C1114.19 678.212 1122.8 667.917 1113.47 649.886L1111.63 648.904L1112.79 641.85C1112.04 635.109 1111.27 632.928 1114.5 627.282C1119.12 613.099 1110.1 618.436 1114.17 604.372Z"/><defs><linearGradient id="gradient_7" gradientUnits="userSpaceOnUse" x1="1114.0974" y1="607.08478" x2="1121.1454" y2="607.83466"><stop offset="0" stop-color="#836657"/><stop offset="1" stop-color="#6C534B"/></linearGradient></defs><path fill="url(#gradient_7)" d="M1114.17 604.372L1116.34 606.658C1119.46 601.969 1113.14 581.999 1117.79 580.57C1119.14 583.511 1120.32 617.449 1121.24 623.649C1121.56 625.869 1120.14 631.8 1119.5 634.216L1118.33 634.222C1115.79 632.281 1115.91 630.79 1114.5 627.282C1119.12 613.099 1110.1 618.436 1114.17 604.372Z"/><path fill="#73594D" d="M1112.79 641.85C1112.04 635.109 1111.27 632.928 1114.5 627.282C1115.91 630.79 1115.79 632.281 1118.33 634.222L1119.5 634.216C1117.04 639.37 1115.65 644.58 1113.47 649.886L1111.63 648.904L1112.79 641.85Z"/><path fill="#B08973" d="M1119.17 685.817C1123.46 690.769 1123.08 696.197 1120.36 701.891L1117.8 702.975C1118.45 697.677 1118.77 691.238 1119.17 685.817Z"/><path fill="#997A69" d="M1104.65 168.085C1104.9 168.211 1105.15 168.337 1105.4 168.462L1106.64 169.118C1120.22 176.202 1141.79 193.482 1154.71 203.283L1216.49 249.772L1298.7 311.53C1318.3 326.052 1380.72 369.558 1393.49 387.784L1393.25 561.094C1393.33 587.068 1390.13 663.989 1401.83 682.413C1412.42 689.514 1438.98 664.037 1446.87 657.376C1438.15 643.799 1427.53 632.427 1418.4 619.295C1416.59 616.704 1416.56 616.301 1417.1 613.988C1425.12 607.934 1442.66 607.162 1453.01 606.191C1494.3 602.317 1535.92 596.856 1577.42 596.098C1573.07 605.162 1570.43 614.718 1565.63 624.273C1564.9 615.171 1572.46 608.11 1570.07 599.377L1569.23 598.639C1568.37 598.857 1567.04 599.096 1566.35 599.5L1568.72 602.08C1563.26 614.884 1473.89 620.531 1459.59 626.252C1456.99 627.291 1449.2 619.943 1439.39 626.468C1439.98 631.946 1459.05 648.866 1456.39 655.878C1455.62 657.904 1455.71 657.068 1455.36 659.598C1457.56 663.723 1458.42 663.745 1458.34 667.758C1453.86 676.433 1446.61 677.793 1439.24 683.678C1435.91 685.114 1437.37 690.421 1436.75 691.305C1429.82 700.851 1414.17 712.995 1402.06 705.918C1390.34 699.061 1388.52 686.973 1384.03 675.903C1382.08 671.107 1381.34 672.599 1385.31 667.542C1387.79 653.482 1379.37 648.65 1383.01 638.704C1385.86 630.138 1381.58 624.02 1381.27 618.196L1383.28 619.172C1384.72 614.263 1382.55 589.75 1382.27 583.634C1381.92 575.929 1384.29 582.555 1383.99 577.439C1383.69 572.558 1378.48 566.632 1379.36 561.305C1380.43 563.245 1380.75 563.825 1382.02 565.67C1383.09 563.795 1384.03 562.586 1383.96 560.453C1383.32 538.421 1388.25 535.074 1384.63 511.758C1385.05 505.352 1384.01 497.773 1384.37 491.141C1386.13 457.901 1387 420 1381.54 387.082C1375.73 380.759 1365.31 368.905 1358.89 363.974C1341.67 350.418 1323.61 338.103 1305.67 325.563C1290.91 315.238 1271.45 306.629 1261.32 291.744L1248.84 290.85C1244.36 284.616 1243.71 281.39 1235.55 280.879C1227.35 275.737 1230.48 269.635 1214.94 265.423C1211.86 264.59 1191.28 245.916 1185.85 243.558C1185.1 243.229 1181.25 237.024 1180.51 235.795C1177.1 229.362 1175 227.441 1168.54 224.443C1166.83 226.102 1167.42 225.107 1167.19 227.732C1153.07 224.448 1135.15 201.941 1126 203.032C1120.05 209.122 1121.15 274.479 1120.59 288.568C1121.84 289.172 1122.99 289.79 1124.18 290.494C1125.09 295.507 1123.55 304.478 1123.44 309.854C1123.18 323.132 1123.31 335.772 1121.44 349.015C1120.78 353.698 1124.11 356.937 1121.94 363.154C1120.16 368.215 1118.41 371.041 1122.81 374.314C1122.1 380.532 1118.81 376.929 1120.83 380.654L1122.7 380.966C1124.76 388.295 1115.8 404.01 1119.45 409.156L1121.41 400.952C1124.3 409.44 1117.51 429.793 1116.84 440.972C1114.8 436.649 1114.69 436.351 1111.49 432.905L1110.67 438.452C1113.64 464.093 1108.67 497.24 1110.35 523.647C1110.94 532.906 1110.09 541.837 1111.11 551.457L1111.77 551.859L1111.8 550.266C1111.89 547.005 1112.57 542.849 1113.47 539.72C1113.98 544.832 1114.15 546.94 1113.82 552.037C1111.65 554.57 1110.88 552.618 1109.51 553.813C1107.97 555.157 1108.91 640.458 1109.5 648.401L1109.61 649.866C1110.62 646.493 1110.92 644.897 1112.79 641.85L1111.63 648.904L1113.47 649.886C1122.8 667.917 1114.19 678.212 1113.47 697.219C1114.34 694.842 1117.36 685.204 1118.76 684.434L1119.08 684.891L1119.17 685.817C1118.77 691.238 1118.45 697.677 1117.8 702.975C1115.32 705.641 1116 704.096 1115.78 707.807L1117.33 710.343C1115.6 714.373 1114.33 714.859 1116.17 719.105C1119.7 725.091 1116.17 736.156 1114.65 742.724C1110.65 760.1 1117.34 770.741 1125.13 785.605C1130.54 795.775 1135.96 803.311 1141.63 813.069C1147.73 823.546 1153.25 838.454 1160.02 848.224C1164.11 862.123 1175.51 876.345 1177.69 889.284L1177.59 890.855C1179.82 891.469 1180.25 891.652 1182.54 891.784C1180.65 893.769 1179.7 894.125 1177.35 894.089C1172.47 890.184 1168.24 878.409 1165.39 872.438C1149.07 838.236 1131.08 804.915 1112.99 771.632C1110.35 766.777 1107.82 759.621 1106.5 754.164C1104.05 734.741 1105.1 712.602 1105.03 692.999L1104.99 552.214L1104.18 303.87C1104.05 261.288 1102.83 210.078 1104.65 168.085Z"/><defs><linearGradient id="gradient_8" gradientUnits="userSpaceOnUse" x1="1119.981" y1="679.44916" x2="1106.0132" y2="676.74341"><stop offset="0" stop-color="#886A5A"/><stop offset="1" stop-color="#5F4842"/></linearGradient></defs><path fill="url(#gradient_8)" d="M1111.63 648.904L1113.47 649.886C1122.8 667.917 1114.19 678.212 1113.47 697.219C1114.34 694.842 1117.36 685.204 1118.76 684.434L1119.08 684.891L1119.17 685.817C1118.77 691.238 1118.45 697.677 1117.8 702.975C1115.32 705.641 1116 704.096 1115.78 707.807L1113.73 711.351C1113.14 708.722 1111 703.581 1110.83 701.329C1109.96 690.131 1108.06 658.297 1111.63 648.904Z"/><path fill="#B08973" d="M1109.1 373.443C1112 395.204 1109.25 415.524 1111.49 432.905L1110.67 438.452C1106.51 431.668 1108.18 383.413 1109.1 373.443Z"/><path fill="#73594D" d="M1115.78 707.807L1117.33 710.343C1115.6 714.373 1114.33 714.859 1116.17 719.105C1114.01 725.434 1112.58 736.701 1110.52 744.577C1109.08 730.277 1110.93 725.13 1113.73 711.351L1115.78 707.807Z"/><path fill="#E8C3AE" d="M1396.28 689.533L1397.4 690.493C1401.34 693.769 1401.55 693.572 1406.52 695.223L1406.61 697.481C1402.5 699.177 1403 699.036 1399.9 698.134C1397.37 695.464 1397.19 693.124 1396.28 689.533Z"/><path fill="#B08973" d="M1168.54 224.443C1175 227.441 1177.1 229.362 1180.51 235.795C1173.64 234.244 1170.95 230.94 1168.54 224.443Z"/><defs><linearGradient id="gradient_9" gradientUnits="userSpaceOnUse" x1="1570.3816" y1="1489.4053" x2="1514.9109" y2="1107.0383"><stop offset="0" stop-color="#BD947C"/><stop offset="1" stop-color="#EBBBA0"/></linearGradient></defs><path fill="url(#gradient_9)" d="M1317.92 1205.02C1388.69 1233.11 1411.81 1203.5 1465.86 1160.48C1494.23 1137.54 1523.04 1115.16 1552.29 1093.36C1561.85 1086.25 1574.76 1074.97 1585.51 1069.46C1587.83 1068.27 1591.58 1070.43 1594.01 1071.66C1597.18 1074.93 1600.93 1082.02 1602.76 1086.25C1603.94 1088.62 1609.29 1098.96 1609.94 1100.87C1630.46 1139.63 1648.79 1178.58 1668.86 1216.99L1684.51 1247.83C1702.43 1279.07 1722.54 1323.34 1739.47 1356.64L1869.81 1613.94C1847.85 1614.67 1824.17 1614.02 1802.1 1614.04C1791.99 1614.05 1768.16 1614.54 1759.47 1613.05C1753.12 1614.64 1528.28 1615.1 1524.25 1613.74C1520.78 1612.57 1516.45 1604.41 1514.6 1601.24C1503.64 1582.4 1494.23 1562.45 1484.46 1542.97L1448.37 1471.52L1323.68 1217.35C1322.14 1213.58 1319.7 1208.8 1317.92 1205.02Z"/><defs><linearGradient id="gradient_10" gradientUnits="userSpaceOnUse" x1="1633.3453" y1="1619.0431" x2="1665.0786" y2="1349.3647"><stop offset="0" stop-color="#886248"/><stop offset="1" stop-color="#B18971"/></linearGradient></defs><path fill="url(#gradient_10)" d="M1684.51 1247.83C1702.43 1279.07 1722.54 1323.34 1739.47 1356.64L1869.81 1613.94C1847.85 1614.67 1824.17 1614.02 1802.1 1614.04C1791.99 1614.05 1768.16 1614.54 1759.47 1613.05L1764.87 1612.04L1764.97 1611.4C1752.3 1608.11 1723.68 1609.45 1709.05 1609.46L1592.91 1609.5C1575.05 1609.49 1540.53 1610.32 1523.8 1607.79C1517.55 1597.6 1478.52 1524.94 1477.84 1516.24C1481.83 1508.53 1475.99 1505.73 1473.66 1498.02C1465.44 1470.86 1438.75 1440.77 1431.2 1415.27C1437.3 1419.93 1440.74 1426.07 1446.76 1430.01L1448.56 1429.47C1451.24 1418.77 1459.25 1426.43 1466.45 1421.27C1465.44 1416.44 1463.88 1416.02 1465.55 1413.35C1467.89 1413.9 1468.72 1415.05 1470.53 1416.7C1471.99 1413.7 1469.25 1405.61 1480.36 1404.13C1485.69 1403.43 1496.17 1388.57 1499.14 1384.39L1501.67 1383.97C1504.01 1385.91 1504.01 1386.08 1505.8 1388.59L1507.44 1388.51C1507.68 1386.44 1507.94 1384.37 1508.24 1382.3L1509.96 1381.4C1514.34 1382.92 1516.14 1384.54 1520.1 1384.1C1522.5 1382.21 1522.47 1382.43 1523.45 1379.57L1520.29 1369.58L1532.63 1374.87L1533.66 1374.05C1532.7 1370.27 1531.65 1368.5 1532.51 1365.09C1536.22 1363.91 1542.92 1366.24 1546.7 1367.55C1545.48 1339.86 1564.96 1360.61 1555.46 1327.64C1582.67 1377.04 1608.27 1437.48 1646.91 1479.69C1653.54 1479.36 1652.87 1478.35 1655.53 1472.2L1657.02 1472.35C1658.92 1474.73 1660.02 1476.21 1661.71 1478.74C1670.56 1473.82 1666.21 1472.54 1670.47 1470.25C1672.83 1473.23 1671.64 1472.79 1674.52 1473.96L1676.11 1472.55C1675.65 1470.7 1675.57 1470.31 1675.28 1468.34L1678.84 1468.71C1682.8 1463.66 1680.25 1449.29 1680.42 1443.45C1681.65 1443.82 1683.46 1444.4 1684.7 1444.29C1693.06 1443.49 1693.16 1449.38 1701.04 1451.77C1706.27 1449.72 1700.56 1450.6 1704.67 1446.22C1706.6 1447.89 1706.55 1447.93 1708.86 1448.97C1714.56 1446.93 1718.42 1435.66 1721.49 1429.47C1723.71 1433.03 1724.4 1435.44 1728.81 1434.67C1732.57 1431.15 1733.59 1424.62 1736.27 1423.86C1741.56 1422.37 1747.87 1423.25 1752.87 1425.57L1754.3 1424.6C1757.74 1417.44 1748.79 1405.93 1748.36 1396.04C1749.66 1396.71 1750.61 1399.25 1751.49 1400.87L1752.77 1396.05L1755.02 1398.22L1755.58 1397C1753.03 1389.82 1749.39 1384.74 1746.28 1377.99C1735.55 1354.8 1723.65 1331.92 1712.31 1308.96C1706.76 1298.07 1683.74 1256.23 1684.51 1247.83Z"/><path fill="#B08973" d="M1646.91 1479.69C1653.54 1479.36 1652.87 1478.35 1655.53 1472.2L1657.02 1472.35C1658.92 1474.73 1660.02 1476.21 1661.71 1478.74C1663.95 1484.35 1668.43 1490.37 1665.96 1496.03L1663.69 1495.92C1657.42 1492.01 1651.69 1485.35 1646.91 1479.69Z"/><path fill="#997A69" d="M1317.92 1205.02C1388.69 1233.11 1411.81 1203.5 1465.86 1160.48C1494.23 1137.54 1523.04 1115.16 1552.29 1093.36C1561.85 1086.25 1574.76 1074.97 1585.51 1069.46C1587.83 1068.27 1591.58 1070.43 1594.01 1071.66C1597.18 1074.93 1600.93 1082.02 1602.76 1086.25C1603.94 1088.62 1609.29 1098.96 1609.94 1100.87C1609.77 1102.66 1609.39 1107.88 1608.93 1109.28C1609.6 1115.04 1615.07 1120.28 1614.16 1123.69C1606.25 1121.77 1597.88 1100.5 1592.63 1093.06C1587.02 1097.1 1575.62 1104.27 1573.13 1110.05C1573.83 1112 1574.39 1113.52 1574.91 1115.53L1573.45 1116.26L1572.2 1114.77C1570.83 1113.15 1570.61 1112.86 1568.76 1111.69C1563.62 1115.6 1559.34 1120.77 1553.99 1124.66C1536.41 1137.46 1518.71 1147.55 1503.97 1163.87C1499.26 1169.08 1490.35 1173.14 1485.1 1179.41C1487.41 1185.13 1491.37 1189.76 1492.4 1194.95L1491.52 1196.52C1488.79 1195.94 1480.37 1178.37 1478.46 1174.66C1457.26 1195.75 1413.54 1227.72 1381.65 1232.94C1373.8 1234.23 1345.74 1224.86 1339.56 1228.58C1338.15 1234.67 1356.17 1268.73 1360.23 1276.98C1373.01 1302.83 1385.97 1328.6 1399.1 1354.27L1420.13 1395.1C1421.77 1398.25 1429.56 1413.78 1431.2 1415.27C1438.75 1440.77 1465.44 1470.86 1473.66 1498.02C1475.99 1505.73 1481.83 1508.53 1477.84 1516.24C1478.52 1524.94 1517.55 1597.6 1523.8 1607.79C1540.53 1610.32 1575.05 1609.49 1592.91 1609.5L1709.05 1609.46C1723.68 1609.45 1752.3 1608.11 1764.97 1611.4L1764.87 1612.04L1759.47 1613.05C1753.12 1614.64 1528.28 1615.1 1524.25 1613.74C1520.78 1612.57 1516.45 1604.41 1514.6 1601.24C1503.64 1582.4 1494.23 1562.45 1484.46 1542.97L1448.37 1471.52L1323.68 1217.35C1322.14 1213.58 1319.7 1208.8 1317.92 1205.02Z"/><path fill="#E8C3AE" d="M1317.92 1205.02C1388.69 1233.11 1411.81 1203.5 1465.86 1160.48C1494.23 1137.54 1523.04 1115.16 1552.29 1093.36C1561.85 1086.25 1574.76 1074.97 1585.51 1069.46C1587.83 1068.27 1591.58 1070.43 1594.01 1071.66C1589.18 1077.38 1548.48 1108.71 1540.05 1115.34L1464.35 1174.45C1412.41 1214.84 1395.46 1237.57 1326.77 1215.41C1326.73 1217.67 1327.01 1216.68 1326.16 1218.41L1323.68 1217.35C1322.14 1213.58 1319.7 1208.8 1317.92 1205.02Z"/><path fill="#E8C3AE" d="M1594.87 1078.72C1597.22 1081.22 1600.22 1083.88 1602.76 1086.25C1603.94 1088.62 1609.29 1098.96 1609.94 1100.87C1609.77 1102.66 1609.39 1107.88 1608.93 1109.28L1606.03 1108.1C1600.89 1102.13 1597.2 1086.8 1594.87 1078.72Z"/><path fill="#E8C3AE" d="M1709.28 1309.38C1696.96 1287.55 1685.39 1262.33 1673.51 1240.01C1671.29 1233.62 1663.3 1231.65 1661.07 1225.31C1659.07 1219.6 1664.58 1217.19 1668.86 1216.99L1684.51 1247.83C1683.74 1256.23 1706.76 1298.07 1712.31 1308.96C1723.65 1331.92 1735.55 1354.8 1746.28 1377.99C1749.39 1384.74 1753.03 1389.82 1755.58 1397L1755.02 1398.22L1752.77 1396.05C1737.85 1367.38 1723.35 1338.49 1709.28 1309.38Z"/><defs><linearGradient id="gradient_11" gradientUnits="userSpaceOnUse" x1="1514.0607" y1="1183.0879" x2="1506.759" y2="1191.3916"><stop offset="0" stop-color="#AF8D7C"/><stop offset="1" stop-color="#D7AC93"/></linearGradient></defs><path fill="url(#gradient_11)" d="M1503.15 1174.73C1512.22 1175.05 1518.77 1189.46 1519.46 1197.18L1517.94 1196.33L1515.96 1195.63C1515.05 1197.78 1515.79 1197.13 1514.1 1197.93C1509.68 1194.13 1503.51 1180.51 1503.15 1174.73Z"/><defs><linearGradient id="gradient_12" gradientUnits="userSpaceOnUse" x1="1913.8763" y1="522.44025" x2="1645.0315" y2="735.87683"><stop offset="0" stop-color="#B38C77"/><stop offset="1" stop-color="#CEAA97"/></linearGradient></defs><path fill="url(#gradient_12)" d="M1616.73 525.91C1619.59 512.868 1628.85 503.252 1639.91 496.381C1657.21 485.631 1683.11 488.281 1703.37 488.225L1779.56 488.053L1847.57 487.799C1870.23 487.722 1896.23 483.38 1911.8 502.792C1912.82 504.036 1913.47 504.6 1914.16 506.011L1919.75 514.896C1921.17 518.514 1922.89 523.298 1922.83 527.066C1922.39 556.178 1925.64 747.006 1919.93 764.336C1915.56 775.193 1911.21 782.866 1900.1 788.522C1894.43 792.228 1886.05 794.323 1879.4 794.487C1850.16 795.209 1816.75 796.102 1787.76 795.382C1754.9 794.566 1710.86 797.363 1679.1 794.558C1685.25 788.414 1750.19 735.496 1756.53 734.508C1777.67 731.215 1827.83 732.453 1851.74 732.438C1852.5 715.053 1851.87 692.524 1851.86 674.752L1852 552.227C1795 552.977 1737.94 552.216 1680.94 552.677C1681.32 584.621 1681.43 616.567 1681.28 648.512C1672.54 662.124 1635.25 697.075 1621.71 704.217C1618.94 703.969 1617.25 704.179 1615.27 702.309C1614.3 697.619 1614.21 679.598 1614.08 673.552C1613.05 625.311 1613.79 573.953 1616.73 525.91Z"/><path fill="#E8C3AE" d="M1905.22 722.824C1908.26 720.301 1909.8 718.178 1913.26 717.596C1914.84 719.235 1914.73 718.766 1915.61 720.712L1917.24 716.68L1918.52 716.928C1921.04 724.951 1918.88 753.08 1919.93 764.336C1915.56 775.193 1911.21 782.866 1900.1 788.522C1884.26 789.211 1867.92 789.937 1851.97 789.66L1851.92 789.068C1862.18 788.613 1872.43 788.067 1882.68 787.428C1884.11 782.195 1881.44 746.278 1881.66 736.989L1882.59 734.395C1885.4 731.571 1883.85 732.087 1887.07 731.461C1887.35 733.655 1887.42 734.231 1887.94 736.404L1890.21 734.598C1895.24 730.702 1900.24 726.778 1905.22 722.824Z"/><defs><linearGradient id="gradient_13" gradientUnits="userSpaceOnUse" x1="1800.0198" y1="488.52762" x2="1798.8105" y2="505.09622"><stop offset="0" stop-color="#775C50"/><stop offset="1" stop-color="#9B7A68"/></linearGradient></defs><path fill="url(#gradient_13)" d="M1875.16 509.238C1871.67 511.714 1869.47 514.098 1865.23 512.612C1864.22 510.552 1863.37 508.724 1862.46 506.619L1859.93 506.518C1858.14 508.574 1858.22 508.679 1855.91 510.025C1853.96 509.32 1852 508.626 1850.04 507.944C1847.88 509.014 1846.88 509.452 1844.61 510.26L1844.01 509.086C1846.58 506.868 1848.37 505.63 1850.16 502.701C1846.15 500.558 1821.57 507.035 1815.44 502.848C1812.12 500.58 1806.44 501.177 1802.29 500.397C1771.6 494.618 1741.99 502.406 1711.16 497.677C1702.94 496.424 1695.13 498.333 1686.97 494.35L1686.79 493.056C1702.14 490.978 1743.15 492.297 1760.54 492.325L1841.68 492.611C1857.88 492.765 1876.18 492.109 1891.91 495.102C1900.07 496.654 1903.59 499.732 1910.45 504.485L1911.8 502.792C1912.82 504.036 1913.47 504.6 1914.16 506.011C1910.73 509.655 1914.23 505.851 1912.51 509.291C1909.02 516.276 1910.55 520.269 1910.01 526.596C1908.58 517.545 1907.94 515.095 1902.16 507.816C1895.93 504.82 1882.61 508.102 1875.16 509.238Z"/><path fill="#B08973" d="M1875.16 509.238C1874.58 508.212 1874.84 508.919 1875.18 506.982C1880.8 501.551 1897.49 500.998 1903.16 506.474L1902.16 507.816C1895.93 504.82 1882.61 508.102 1875.16 509.238Z"/><path fill="#E8C3AE" d="M1616.73 525.91C1619.24 523.51 1619.61 522.778 1623.07 522.259L1624.57 523.46C1625.71 538.042 1623.36 561.125 1622.89 576.447C1622.14 602.557 1621.75 628.676 1621.74 654.797C1621.58 672.84 1620.83 685.875 1621.71 704.217C1618.94 703.969 1617.25 704.179 1615.27 702.309C1614.3 697.619 1614.21 679.598 1614.08 673.552C1613.05 625.311 1613.79 573.953 1616.73 525.91Z"/><path fill="#73594D" d="M1913.52 551.018C1913.07 547.279 1912.68 543.534 1912.33 539.784C1911.92 535.107 1912.15 526.087 1915.23 522.438C1918.89 526.974 1918.34 533.863 1918.38 539.66C1918.51 564.63 1918.02 589.6 1916.9 614.545C1913.98 609.787 1912.47 608.782 1913.22 603.694C1914.35 595.995 1913.9 562.383 1913.75 552.195L1913.52 551.018Z"/><path fill="#B08973" d="M1910.01 526.596C1910.55 520.269 1909.02 516.276 1912.51 509.291C1914.23 505.851 1910.73 509.655 1914.16 506.011L1919.75 514.896C1919.61 518.964 1919.99 545.752 1919.44 546.979C1919.22 544.339 1919.18 542.199 1918.38 539.66C1918.34 533.863 1918.89 526.974 1915.23 522.438C1912.15 526.087 1911.92 535.107 1912.33 539.784C1912.68 543.534 1913.07 547.279 1913.52 551.018C1905.72 545.394 1908.73 535.534 1910.01 526.596Z"/><path fill="#B08973" d="M1913.22 603.694C1905.41 590.555 1911.07 573.118 1910.17 558.913C1909.85 554.027 1909.5 554.236 1913.75 552.195C1913.9 562.383 1914.35 595.995 1913.22 603.694Z"/><path fill="#E8C3AE" d="M1871.84 726.425C1878 719.405 1883.31 716.673 1891.56 712.93C1883.95 720.609 1875.7 725.957 1872.63 737.54L1874.63 738.855C1877.36 738.695 1880.17 736.117 1882.59 734.395L1881.66 736.989L1876.73 740.224C1858.58 739.403 1866.04 757.226 1845.47 746.043C1851.91 742.02 1865.31 759.956 1871.84 726.425Z"/><defs><linearGradient id="gradient_14" gradientUnits="userSpaceOnUse" x1="1897.8865" y1="729.49426" x2="1894.8761" y2="722.72223"><stop offset="0" stop-color="#A57F6C"/><stop offset="1" stop-color="#D8B9A9"/></linearGradient></defs><path fill="url(#gradient_14)" d="M1890.21 734.598L1889.36 731.052C1892.34 726.118 1897.97 720.153 1904.01 719.896L1905.22 722.824C1900.24 726.778 1895.24 730.702 1890.21 734.598Z"/><path fill="#E8C3AE" d="M1633.8 554.241L1634.37 554.493C1633.88 558.722 1634.68 569.118 1636.93 571.974C1641.14 577.335 1672.05 615.338 1675.35 615.674C1677.76 604.864 1674.41 576.531 1676.03 566.551C1677.64 574.249 1676.85 626.957 1676.8 638.25L1676.69 648.661C1670.63 657.348 1663.84 668.603 1653.44 661.659C1649.78 659.216 1644.24 666.769 1637.92 664.746L1637.42 663.463C1637.87 661.905 1638.12 660.831 1638.55 659.182C1641.07 649.556 1634.51 637.354 1637.2 627.063C1637.18 627.169 1642.01 620.363 1642.38 619.846L1641.76 619.144L1637.79 620.873L1636.41 620.292C1637.06 612.82 1637.77 606.847 1637.84 599.295C1637.93 589.124 1631.82 562.434 1633.8 554.241Z"/><path fill="#E8C3AE" d="M1861.01 556.536L1862.17 556.44C1868.8 563.967 1862.41 698.454 1864.21 719.692C1864.48 722.951 1865.06 730.235 1863.89 733.334L1861.21 733.099L1853.62 732.466C1853.56 731.933 1853.42 730.703 1853.42 729.949C1853.72 672.789 1852.82 615.559 1853.51 558.413C1853.89 558.025 1854.27 557.637 1854.64 557.25C1857.74 557.945 1858.06 557.689 1861.01 556.536Z"/><path fill="#B08973" d="M1749.78 768.174C1746.09 773.395 1744.59 771.587 1740.4 774.832C1733.37 780.264 1730.77 792.883 1719.68 789.658C1715.48 783.407 1738.13 769.567 1742.37 766.746L1740.45 770.56L1741.28 771.705C1745.31 770.657 1746.03 770.171 1749.78 768.174Z"/><path fill="#B08973" d="M1798.73 744.223C1804.56 742.359 1813.89 744.248 1819.71 745.688L1819.42 747.909L1820.77 746.12L1820.85 747.371L1821.18 747.333L1815.41 748.234C1808.56 750.414 1799.66 751.481 1793.34 747.283L1793.87 745.315L1792.63 746.648L1792.48 746.018C1794.65 743.884 1794.83 744.58 1798.73 744.223Z"/><path fill="#997A69" d="M1742.37 766.746C1747.61 763.987 1756.49 753.921 1761.72 754.145C1762.31 757.598 1762.26 755.818 1760.59 759.782C1756.82 762.15 1752.59 764.69 1749.78 768.174C1746.03 770.171 1745.31 770.657 1741.28 771.705L1740.45 770.56L1742.37 766.746Z"/><path fill="#E8C3AE" d="M1674.93 547.89L1676.35 547.615L1676.06 549.922C1677.32 552.096 1677.05 551.336 1677.53 553.655C1675.11 557.198 1672.23 557.621 1668.2 560.724L1667.51 561.264L1666.39 561.567C1671.71 556.443 1666.16 553.526 1674.44 549.511L1674.93 547.89Z"/><path fill="#D1AE9B" d="M1677.64 504.743C1680.95 504.53 1683.79 503.87 1686.53 505.455C1686.88 508.824 1686.63 507.901 1684.24 511.535C1680.9 511.68 1680.69 511.93 1677.61 510.439C1676.18 506.997 1676.4 508.819 1677.64 504.743Z"/><path fill="#B08973" d="M1833.74 775.09L1835.14 776.154L1834.75 778.281C1829.07 781.016 1829.19 779.815 1824.05 784.624L1823.12 785.513L1821.78 784.879L1822.1 783.099C1825.7 779.503 1829.36 777.686 1833.74 775.09Z"/><path fill="#B08973" d="M1901.43 659.053C1902.85 659.062 1904.05 660.101 1904.26 661.503C1904.47 662.904 1903.63 664.25 1902.27 664.674C1901.19 665.013 1900.01 664.685 1899.26 663.835C1898.51 662.985 1898.33 661.773 1898.8 660.74C1899.26 659.707 1900.3 659.046 1901.43 659.053Z"/><defs><linearGradient id="gradient_15" gradientUnits="userSpaceOnUse" x1="1226.2632" y1="1005.4598" x2="1519.7007" y2="804.83362"><stop offset="0" stop-color="#686262"/><stop offset="1" stop-color="#A98673"/></linearGradient></defs><path fill="url(#gradient_15)" d="M1480.48 844.311C1500.86 830.929 1520.74 813.62 1540.09 798.476L1652.22 710.319C1670.25 696.065 1688.63 680.796 1706.9 668.107C1724.04 655.521 1746.07 657.183 1756.17 677.322C1769.44 703.767 1727.14 727.874 1710.85 741.322C1703.87 747.083 1691.97 757.058 1685.05 760.874C1658.39 781.645 1631.37 802.363 1604.97 823.436C1585.57 838.925 1566.19 857.395 1545.25 870.985C1536.99 878.385 1518.91 891.277 1508.68 899.104C1486.34 916.205 1463.85 936.94 1439.85 951.087C1436.51 953.052 1430.04 953.3 1426.2 953.049C1417.59 952.446 1409.6 948.361 1404.06 941.737C1403.06 940.563 1402.12 939.331 1401.26 938.048C1399.34 935.96 1397.9 931.757 1397.02 929.381C1387.91 904.85 1418.1 896.806 1426.68 881.26C1428.99 877.066 1413.15 857.425 1409.01 851.655C1381.66 869.314 1355.89 892.68 1329.23 910.871C1326.06 913.63 1324.39 915.2 1320.86 917.401C1309 927.311 1283.15 946.301 1272.65 958.616C1272.47 959.642 1272.29 960.669 1272.11 961.695C1275.69 975.36 1297.95 987.859 1293.86 997.446C1293.36 997.679 1292.85 997.913 1292.35 998.146C1281.78 1005.41 1255.98 1029.4 1244.38 1031.22C1237.38 1028.84 1228.7 1015.68 1223.86 1009.34C1201.09 978.14 1180.25 948.216 1219.08 917.448C1269.44 877.546 1321.05 839.319 1371.62 799.707C1377.98 794.733 1384.48 789.599 1391.64 785.778C1439.46 761.467 1458.11 815.991 1480.48 844.311Z"/><defs><linearGradient id="gradient_16" gradientUnits="userSpaceOnUse" x1="1564.4038" y1="733.00323" x2="1718.4287" y2="786.40582"><stop offset="0" stop-color="#AE8A78"/><stop offset="1" stop-color="#E1BBA4"/></linearGradient></defs><path fill="url(#gradient_16)" d="M1541.23 827.914C1549.9 815.935 1585.6 791.251 1588.15 784.095C1590.96 776.213 1624.58 747.225 1632.74 742.184C1645.12 734.53 1663.91 730.817 1672.52 718.218C1669.27 718.431 1670.03 719.045 1668.35 717.69C1675.1 708.024 1690.47 699.208 1699.69 691.227C1716.57 676.607 1728.33 653.811 1751.17 674.243C1750.87 680.529 1753.01 684.18 1754.01 690.258C1751.9 694.054 1749.5 697.248 1749.46 701.429L1750.49 704.053C1737.45 724.33 1694.16 746.971 1685.05 760.874C1658.39 781.645 1631.37 802.363 1604.97 823.436C1585.57 838.925 1566.19 857.395 1545.25 870.985C1543.25 869.527 1543.87 870.493 1543.37 868.115C1546.42 863.807 1553.6 858.494 1558.05 854.555C1550.15 855.754 1548.16 857.991 1541.65 852.575C1540.01 851.205 1533.95 852.737 1531.8 853.399L1530.92 853.681L1529.83 852.997L1530.57 851.112L1532.8 850.392L1536.94 845.691C1534.83 843.136 1531.99 842.28 1528.89 840.883L1528.27 841.19L1527.27 840.692C1528.32 835.768 1536.54 829.594 1541.23 827.914Z"/><path fill="#B08973" d="M1532.8 850.392C1541.13 848.351 1545.63 847.656 1552.98 852.581C1555.78 851.537 1559.35 849.764 1562.02 850.095L1562.34 851.505C1559.98 853.671 1560.82 853.249 1558.05 854.555C1550.15 855.754 1548.16 857.991 1541.65 852.575C1540.01 851.205 1533.95 852.737 1531.8 853.399L1530.92 853.681L1529.83 852.997L1530.57 851.112L1532.8 850.392Z"/><path fill="#B08973" d="M1528.89 840.883C1532.63 838.93 1534.43 838.124 1538.3 840.719C1538.99 844.014 1538.99 842.762 1536.94 845.691C1534.83 843.136 1531.99 842.28 1528.89 840.883Z"/><path fill="#6F554C" d="M1480.48 844.311C1500.86 830.929 1520.74 813.62 1540.09 798.476L1652.22 710.319C1670.25 696.065 1688.63 680.796 1706.9 668.107C1724.04 655.521 1746.07 657.183 1756.17 677.322C1769.44 703.767 1727.14 727.874 1710.85 741.322C1703.87 747.083 1691.97 757.058 1685.05 760.874C1694.16 746.971 1737.45 724.33 1750.49 704.053L1749.46 701.429C1749.5 697.248 1751.9 694.054 1754.01 690.258C1753.01 684.18 1750.87 680.529 1751.17 674.243C1728.33 653.811 1716.57 676.607 1699.69 691.227C1690.47 699.208 1675.1 708.024 1668.35 717.69C1670.03 719.045 1669.27 718.431 1672.52 718.218C1663.91 730.817 1645.12 734.53 1632.74 742.184C1624.58 747.225 1590.96 776.213 1588.15 784.095C1585.6 791.251 1549.9 815.935 1541.23 827.914C1540.56 825.81 1540.72 826.329 1539.51 824.424L1535.47 825.477C1534.77 823.61 1534.57 823.254 1533.55 821.533C1525.98 822.022 1498.96 850.106 1486.2 851.846C1485.15 852.266 1482.26 852.111 1481.5 851.51C1469.98 842.34 1445.15 788.224 1429.09 792.216L1427.35 795.153C1422.3 795.746 1414.49 797.582 1409.87 797.454L1408.63 794.738L1406.5 794.419C1401.76 798.242 1395.77 803.017 1390.3 805.583C1388.51 806.426 1387.55 806.828 1385.93 808.03C1379.69 818.051 1338.49 838.949 1330.58 856.662C1319.01 863.79 1307.12 870.998 1295.77 878.478C1289.97 882.295 1282.76 891.486 1276.92 894.401C1268.51 901.407 1235.75 927.789 1227.09 930.985L1226.76 932.841C1229.45 934.794 1232.65 936.613 1234.19 939.385C1230.95 942.375 1224.07 946.941 1225 951.392L1226.46 952.509C1222.15 956.98 1220.37 961.269 1215.88 964.899C1212.67 965.661 1210.94 964.58 1207.81 963.394C1207.96 967.729 1207.93 967.492 1210.59 970.974L1209.56 971.52L1213.44 974.796C1213.45 977.369 1212.69 979.962 1215.18 981.406C1220.13 989.477 1224.1 996.117 1226.36 1005.4C1225.28 1007.58 1225.33 1007.38 1223.86 1009.34C1201.09 978.14 1180.25 948.216 1219.08 917.448C1269.44 877.546 1321.05 839.319 1371.62 799.707C1377.98 794.733 1384.48 789.599 1391.64 785.778C1439.46 761.467 1458.11 815.991 1480.48 844.311Z"/><path fill="#5F5C63" d="M1226.76 932.841C1229.45 934.794 1232.65 936.613 1234.19 939.385C1230.95 942.375 1224.07 946.941 1225 951.392L1226.46 952.509C1222.15 956.98 1220.37 961.269 1215.88 964.899C1212.67 965.661 1210.94 964.58 1207.81 963.394C1208.13 957.83 1212.12 957.984 1212.26 952.954C1210.75 951.555 1211.32 952.025 1209.82 950.851L1208.82 950.082C1208.77 946.205 1208.28 948.079 1211.2 944.546L1209.69 942.883C1214.45 936.509 1219.3 934.291 1226.76 932.841Z"/><path fill="#5F5C63" d="M1227.09 930.985C1230.87 922.615 1267.58 894.008 1276.92 894.401C1268.51 901.407 1235.75 927.789 1227.09 930.985Z"/><path fill="#73594D" d="M1385.93 808.03C1389.13 801.351 1399.31 790.329 1407.32 791.54L1406.47 793.075L1406.5 794.419C1401.76 798.242 1395.77 803.017 1390.3 805.583C1388.51 806.426 1387.55 806.828 1385.93 808.03Z"/><path fill="#E8C3AE" d="M1751.17 674.243C1758.46 684.224 1757.57 694.041 1750.49 704.053L1749.46 701.429C1749.5 697.248 1751.9 694.054 1754.01 690.258C1753.01 684.18 1750.87 680.529 1751.17 674.243Z"/><path fill="#756E71" d="M1209.56 971.52L1208.09 970.625C1207.17 969.04 1206.61 968.103 1206.86 966.203C1208.01 957.452 1203.56 949.512 1209.69 942.883L1211.2 944.546C1208.28 948.079 1208.77 946.205 1208.82 950.082L1209.82 950.851C1211.32 952.025 1210.75 951.555 1212.26 952.954C1212.12 957.984 1208.13 957.83 1207.81 963.394C1207.96 967.729 1207.93 967.492 1210.59 970.974L1209.56 971.52Z"/><path fill="#73594D" d="M1343.83 828.087C1347.63 824.363 1355.67 818.972 1360.3 815.668C1356.8 823.625 1353.14 834.35 1344.96 838.035C1342.32 837.925 1343.15 838.17 1340.75 837.265C1337.88 839.42 1337.86 839.756 1334.22 840.301L1333.04 838.879C1335.32 832.464 1338.1 831.559 1343.83 828.087Z"/><path fill="#5F5C63" d="M1343.83 828.087L1346.28 829.056C1346.22 832.118 1343.18 834.539 1340.75 837.265C1337.88 839.42 1337.86 839.756 1334.22 840.301L1333.04 838.879C1335.32 832.464 1338.1 831.559 1343.83 828.087Z"/><path fill="#73594D" d="M1331.09 842.525C1332.79 843.2 1332.14 842.877 1333.42 844.512C1332.45 847.822 1329.35 849.797 1326.6 852.103C1324.9 851.794 1325.68 852.197 1324.4 850.619C1325.41 847.397 1328.55 844.969 1331.09 842.525Z"/><path fill="#878387" d="M1201.89 945.582C1203.83 949.348 1202.95 958.269 1202.54 962.659C1199.78 956.641 1200.49 951.878 1201.89 945.582Z"/><path fill="#756E71" d="M1329.23 910.871C1329.66 904.883 1331.74 901.717 1335.99 897.462C1359.38 890.059 1382.5 854.477 1406.67 844.657C1408.12 844.068 1414.93 847.006 1416.68 847.708C1421.32 853.216 1420.8 858.725 1425.42 865.028C1429.49 870.568 1435.23 871.05 1438.21 874.892C1435.62 884.597 1441.69 881.577 1440.7 887.719C1438.73 887.451 1437.49 887.313 1435.52 887.61C1425.36 900.534 1431.73 904.155 1413.62 912.008C1413.18 913.602 1411.28 920.459 1411.37 921.777C1411.81 928.142 1418.48 935.482 1416.23 941.797C1410.14 943.074 1408.84 938.109 1402.68 936.182L1401.26 938.048C1399.34 935.96 1397.9 931.757 1397.02 929.381C1387.91 904.85 1418.1 896.806 1426.68 881.26C1428.99 877.066 1413.15 857.425 1409.01 851.655C1381.66 869.314 1355.89 892.68 1329.23 910.871Z"/><path fill="#756E71" d="M1234.19 939.385C1243.28 934.171 1275.76 894.959 1287.25 904.485C1285.31 911.992 1264.77 921.15 1261.09 926.21C1255.82 933.461 1258.35 940.737 1245.79 944.962L1243.54 942.268C1237.64 941.791 1231.1 948.779 1225 951.392C1224.07 946.941 1230.95 942.375 1234.19 939.385Z"/><path fill="#756E71" d="M1288.2 934.823C1295.85 931.446 1309.48 916.926 1320.86 917.401C1309 927.311 1283.15 946.301 1272.65 958.616C1272.47 959.642 1272.29 960.669 1272.11 961.695C1275.69 975.36 1297.95 987.859 1293.86 997.446C1291.58 997.123 1291.4 997.127 1289.26 996.303C1282.76 985.604 1268.78 971.585 1265.04 959.788C1264.2 957.127 1267.22 957.696 1266.72 952.111C1272.82 951.055 1286.56 942.257 1288.2 934.823Z"/><path fill="#7D777B" d="M1266.72 952.111L1266.34 948.504C1269.25 943.078 1275.58 937.489 1281.09 934.805C1284.97 932.911 1284.56 933.501 1288.2 934.823C1286.56 942.257 1272.82 951.055 1266.72 952.111Z"/><path fill="#5F5C63" d="M1213.44 974.796C1217.87 976.571 1218.38 976.571 1221.57 979.924L1222.14 981.784C1219.22 983.076 1219.26 982.607 1215.18 981.406C1212.69 979.962 1213.45 977.369 1213.44 974.796Z"/><path fill="#73594D" d="M1370.88 828.871L1371.17 831.457C1367.04 840.93 1344.59 855.178 1335.74 860.361C1331.24 860.168 1330.62 860.17 1326.76 862.465L1325.96 861.878C1328.68 859.497 1333 856.909 1336.35 854.209C1348.34 844.54 1357.2 836.02 1370.88 828.871Z"/><path fill="#7D777B" d="M1314.42 898.32C1316.76 899.4 1316.59 899.31 1317.92 901.534C1317.83 904.848 1316.54 905.847 1314.46 908.476C1312.58 906.981 1312.83 906.771 1311.49 904.547C1311.76 900.842 1311.83 901.843 1314.42 898.32Z"/><defs><linearGradient id="gradient_17" gradientUnits="userSpaceOnUse" x1="1614.7451" y1="976.32318" x2="1771.3472" y2="881.48016"><stop offset="0" stop-color="#A37F68"/><stop offset="1" stop-color="#BD9886"/></linearGradient></defs><path fill="url(#gradient_17)" d="M1612.69 867.083C1617.66 864.989 1652.59 861.075 1659.88 860.734C1695.03 859.089 1748.25 845.989 1782.33 850.903C1778.72 859.655 1775.37 868.509 1772.27 877.455C1765.15 896.603 1758.25 915.829 1751.57 935.131C1747.9 945.682 1742.98 961.222 1738.69 971.256C1736.11 978.855 1730.18 996.939 1725.56 1002.35C1713.65 1007.46 1696.67 975.055 1692.11 965.73C1683.43 968.501 1642.04 1005.55 1628.16 1014.69L1625.43 1016.96C1621.37 1019.28 1621.24 1019.42 1616.45 1019.19C1615.13 1018.38 1611.73 1016.17 1611.59 1014.88C1609.18 992.292 1603.16 971.107 1595 949.71C1601.27 944.11 1636.89 915.435 1642.08 913.277C1643.75 904.868 1617.05 878.606 1612.69 867.083Z"/><path fill="#997A69" d="M1612.69 867.083C1617.66 864.989 1652.59 861.075 1659.88 860.734C1695.03 859.089 1748.25 845.989 1782.33 850.903C1778.72 859.655 1775.37 868.509 1772.27 877.455L1771.43 872.918L1768.34 873.293L1765.58 870.336L1764.79 869.468C1760.94 868.536 1760.44 871.207 1754.71 871.202L1753.15 868.728C1744.15 872.695 1744.21 873.305 1733.41 873.605C1728.41 873.744 1722.22 875.716 1716.98 875.299C1716.6 873.476 1716.65 874.447 1716.93 872.383C1703.55 869.64 1649.79 884.264 1638.71 880.789C1637.01 880.256 1637.74 880.404 1635.65 880.808C1636.21 885.566 1636.96 884.962 1634.87 887.816C1639.48 893.916 1644.75 900.579 1649.09 906.793C1647.5 910.48 1646.3 912.183 1642.08 913.277C1643.75 904.868 1617.05 878.606 1612.69 867.083Z"/><path fill="#D1AE9B" d="M1612.69 867.083C1617.27 866.998 1618.75 866.029 1621.13 868.309C1622.46 875.685 1629.88 882.258 1634.87 887.816C1639.48 893.916 1644.75 900.579 1649.09 906.793C1647.5 910.48 1646.3 912.183 1642.08 913.277C1643.75 904.868 1617.05 878.606 1612.69 867.083Z"/><path fill="#B08973" d="M1753.15 868.728L1748.61 867.842L1748.05 866.85C1752.79 864.907 1766.19 862.803 1770.79 865.066L1771.03 866.562C1769.12 869.202 1768.58 869.098 1765.58 870.336L1764.79 869.468C1760.94 868.536 1760.44 871.207 1754.71 871.202L1753.15 868.728Z"/><path fill="#73594D" d="M1659.75 866.447C1662.76 866.02 1665.33 866.341 1667.95 867.824L1668.13 869.317C1662.63 873.408 1643.59 873.731 1635.35 875.715L1633.96 875.794C1630.74 874.089 1629.03 873.411 1626.36 870.851C1632.59 867.91 1652.07 867.03 1659.75 866.447Z"/><path fill="#6F554C" d="M1649.09 906.793L1652.74 912.479L1654.68 912.387C1656.71 914.893 1658.29 916.352 1659.07 919.476C1655.7 933.526 1624.25 946.079 1617.83 959.891C1614.17 967.746 1617.3 980.476 1619.81 988.573L1620.93 989.607C1622.51 986.648 1621.45 987.367 1623.83 985.895C1627.56 991.697 1622.34 997.139 1628.76 998.678C1631.08 997.125 1632.47 996.088 1634.61 994.389C1636.18 996.107 1635.56 997.13 1635.6 1000.24C1636.27 1007.11 1628.15 1007.97 1626.36 1013.54L1628.16 1014.69L1625.43 1016.96C1621.37 1019.28 1621.24 1019.42 1616.45 1019.19C1615.13 1018.38 1611.73 1016.17 1611.59 1014.88C1609.18 992.292 1603.16 971.107 1595 949.71C1601.27 944.11 1636.89 915.435 1642.08 913.277C1646.3 912.183 1647.5 910.48 1649.09 906.793Z"/><path fill="#E8C3AE" d="M1649.09 906.793L1652.74 912.479C1639.43 926.966 1618.92 940.524 1603.38 953.217C1609.66 967.225 1621.79 1002.32 1619.62 1017.28C1617.78 1018.99 1618.84 1018.35 1616.45 1019.19C1615.13 1018.38 1611.73 1016.17 1611.59 1014.88C1609.18 992.292 1603.16 971.107 1595 949.71C1601.27 944.11 1636.89 915.435 1642.08 913.277C1646.3 912.183 1647.5 910.48 1649.09 906.793Z"/><path fill="#73594D" d="M1635.6 1000.24C1636.27 1007.11 1628.15 1007.97 1626.36 1013.54L1628.16 1014.69L1625.43 1016.96C1617.19 1006.03 1623.67 1000.4 1635.6 1000.24Z"/><path fill="#D1AE9B" d="M1692.11 965.73L1690.8 963.019C1700.43 962.747 1711.2 988.722 1719.11 995.035C1732.12 994.714 1734.29 965.299 1738.65 964.709L1738.69 971.256C1736.11 978.855 1730.18 996.939 1725.56 1002.35C1713.65 1007.46 1696.67 975.055 1692.11 965.73Z"/></svg>