<?xml version="1.0" encoding="utf-8" ?><svg xmlns="http://www.w3.org/2000/svg" xmlns:xlink="http://www.w3.org/1999/xlink" width="2016" height="2016" viewBox="0 0 2016 2016"><defs><linearGradient id="gradient_0" gradientUnits="userSpaceOnUse" x1="927.16437" y1="499.93011" x2="858.32593" y2="486.80295"><stop offset="0" stop-color="#895C44"/><stop offset="1" stop-color="#AA765C"/></linearGradient></defs><path fill="url(#gradient_0)" transform="scale(1.96875 1.96875)" d="M906.907 450.091L921.468 450.483L921.447 538.958L908.191 538.796L908.414 530.914C898.858 541.443 884.774 542.731 872.332 536.983C842.695 521.008 852.119 473.109 886.841 473.83C894.53 473.989 901.437 475.839 906.895 481.623C907.101 471.27 906.939 460.472 906.907 450.091ZM889.065 527.037C902.838 525.226 908.058 517.31 907.055 503.504C906.335 493.591 897.288 485.997 887.343 486.592C881.27 487.937 875.872 489.945 872.73 495.675C864.478 510.725 871.83 526.115 889.065 527.037Z"/><defs><linearGradient id="gradient_1" gradientUnits="userSpaceOnUse" x1="169.89893" y1="588.69269" x2="170.63295" y2="511.97504"><stop offset="0" stop-color="#34353D"/><stop offset="1" stop-color="#716F72"/></linearGradient></defs><path fill="url(#gradient_1)" transform="scale(1.96875 1.96875)" d="M141.777 496.996C141.44 501.539 137.052 508.281 134.878 512.185C132.268 516.873 146.483 522.044 146.811 525.335C147.017 527.395 142.375 532.512 143.354 535.228L142.816 535.649L143.465 535.911C165.456 532.606 170.839 531.712 191.365 522.775C194.874 520.971 198.321 519.05 201.7 517.013C202.205 516.569 203.638 515.751 204.28 515.357C208.248 515.18 208.138 520.762 209.971 521.067C215.68 522.017 221.664 508.957 228.165 512.532C230.462 516.798 225.75 520.012 227.968 523.062C231.705 523.53 240.233 516.554 243.55 514.121C243.003 517.829 242.47 521.666 241.571 525.299C240.436 526.676 234.502 531.436 232.948 532.329C226.198 536.209 222.964 529.899 220.347 524.993C218.056 526.675 215.655 528.387 213.441 530.159C195.775 544.304 174.035 555.056 151.732 559.113C147.573 566.775 141.456 581.072 137.841 589.206L95.8476 589.087C97.7436 584.457 101.884 576.73 104.231 572.041L120.12 540.311L133.383 513.499C135.858 508.458 138.966 501.657 141.777 496.996Z"/><path fill="#837A7A" transform="scale(1.96875 1.96875)" d="M191.365 522.775C194.874 520.971 198.321 519.05 201.7 517.013C201.658 519.207 202.064 518.878 200.487 520.477C198.521 522.469 193.989 523.147 191.365 522.775Z"/><defs><linearGradient id="gradient_2" gradientUnits="userSpaceOnUse" x1="188.79462" y1="488.07889" x2="134.87503" y2="487.2923"><stop offset="0" stop-color="#3A3B42"/><stop offset="1" stop-color="#929093"/></linearGradient></defs><path fill="url(#gradient_2)" transform="scale(1.96875 1.96875)" d="M162.069 428.21C164.402 426.164 167.759 423.635 170.364 421.865C177.145 417.256 183.604 411.398 190.329 406.837C190.367 417.877 190.61 429.685 190.233 440.663L190.119 441.152L190.102 464.457C190.106 469.924 190.545 475.882 189.523 481.272C189.102 483.493 170.428 522.401 168.673 525.439C161.369 528.722 150.872 534.015 143.354 535.228C142.375 532.512 147.017 527.395 146.811 525.335C146.483 522.044 132.268 516.873 134.878 512.185C137.052 508.281 141.44 501.539 141.777 496.996C142.218 495.309 146.478 487.186 147.506 485.179C149.849 480.221 152.266 475.298 154.757 470.413C154.185 467.436 154.571 451.426 154.626 447.297C154.51 442.292 154.75 438.23 155.049 433.261C157.478 431.378 159.518 429.929 162.069 428.21Z"/><path fill="#A09FA2" transform="scale(1.96875 1.96875)" d="M162.069 428.21C164.402 426.164 167.759 423.635 170.364 421.865C177.145 417.256 183.604 411.398 190.329 406.837C190.367 417.877 190.61 429.685 190.233 440.663L190.119 441.152C187.504 443.264 182.414 455.279 179.78 459.036C175.214 470.542 164.699 489.887 158.702 501.437C158.575 498.768 161.685 496.219 161.01 494.733C156.126 491.264 151.386 488.917 151.571 482.437L150.617 483.093C149.734 485.568 149.429 486.362 148.103 488.612L147.485 488.85C147.133 487.043 147.241 486.945 147.506 485.179C149.849 480.221 152.266 475.298 154.757 470.413C154.185 467.436 154.571 451.426 154.626 447.297C154.51 442.292 154.75 438.23 155.049 433.261C157.478 431.378 159.518 429.929 162.069 428.21Z"/><defs><linearGradient id="gradient_3" gradientUnits="userSpaceOnUse" x1="185.10335" y1="407.29547" x2="171.92021" y2="437.43301"><stop offset="0" stop-color="#515053"/><stop offset="1" stop-color="#8C8C90"/></linearGradient></defs><path fill="url(#gradient_3)" transform="scale(1.96875 1.96875)" d="M162.069 428.21C164.402 426.164 167.759 423.635 170.364 421.865C177.145 417.256 183.604 411.398 190.329 406.837C190.367 417.877 190.61 429.685 190.233 440.663C190.145 440.223 190.054 439.784 189.959 439.346C189.826 438.742 189.268 435.828 188.62 435.856C179.283 436.26 176.709 433.56 169.104 428.724C166.12 428.281 160.603 431.935 157.282 433.497C159.256 431.235 160.889 430.917 162.069 428.21Z"/><path fill="#837A7A" transform="scale(1.96875 1.96875)" d="M157.282 433.497C160.603 431.935 166.12 428.281 169.104 428.724C176.709 433.56 179.283 436.26 188.62 435.856C189.268 435.828 189.826 438.742 189.959 439.346C190.054 439.784 190.145 440.223 190.233 440.663L190.119 441.152C187.504 443.264 182.414 455.279 179.78 459.036C179.69 455.6 183.048 453.774 182.001 450.739C179.875 444.58 161.296 436.827 156.009 438.857C155.265 440.473 155.137 445.048 154.626 447.297C154.51 442.292 154.75 438.23 155.049 433.261C157.478 431.378 159.518 429.929 162.069 428.21C160.889 430.917 159.256 431.235 157.282 433.497Z"/><path fill="#837A7A" transform="scale(1.96875 1.96875)" d="M154.757 470.413C156.249 475.01 151.371 478.805 150.617 483.093C149.734 485.568 149.429 486.362 148.103 488.612L147.485 488.85C147.133 487.043 147.241 486.945 147.506 485.179C149.849 480.221 152.266 475.298 154.757 470.413Z"/><path fill="#37363B" transform="scale(1.96875 1.96875)" d="M362.052 454.387C366.474 454.219 373.382 454.523 377.972 454.588C381.788 461.437 388.249 477.541 391.63 485.145C399.436 502.699 407.531 520.458 414.982 538.145L399.608 538.267C396.982 532.682 393.464 524.761 391.467 519.033L379.75 518.97C369.634 518.933 359.519 518.952 349.403 519.026L341.302 538.466C336.371 538.659 331.112 538.577 326.154 538.586C329.97 528.244 334.525 518.525 338.891 508.437C346.738 490.475 354.459 472.458 362.052 454.387ZM355.229 506.538L370.375 506.508L385.577 506.428C381.938 498.004 378.353 489.557 374.823 481.086C374.105 479.378 371.01 471.647 370.203 470.405C365.107 482.207 359.703 494.535 355.229 506.538Z"/><path fill="#D39E83" transform="scale(1.96875 1.96875)" d="M768.07 474.172C777.051 472.919 788.685 475.067 795.2 481.74C797.726 484.336 799.542 487.538 800.474 491.039C802.543 498.555 801.976 529.218 802.008 538.986C797.649 539.116 792.882 539.021 788.49 539.022C788.459 536.503 788.623 535.053 788.924 532.54C776.168 542.052 758.69 543.882 747.438 530.971C743.797 523.812 742.264 514.412 748.533 508.196C758.296 498.516 774.659 499.947 787.252 500.015C786.837 498.224 786.088 494.787 785.338 493.233C783.833 490.159 781.133 487.836 777.868 486.807C769.14 484.071 759.773 488.468 752.212 492.343C749.715 488.728 747.532 485.457 745.228 481.719C752.362 477.168 759.818 475.348 768.07 474.172ZM775.652 528.351C786.18 525.166 786.898 520.6 787.505 510.441C782.292 509.979 775.764 510.031 770.474 510.199C766.468 510.718 762.862 511.246 760.229 514.828C758.964 516.531 758.499 518.699 758.954 520.77C760.503 528.124 769.462 529.346 775.652 528.351Z"/><defs><linearGradient id="gradient_4" gradientUnits="userSpaceOnUse" x1="194.60577" y1="486.50851" x2="237.8764" y2="441.49374"><stop offset="0" stop-color="#BE9177"/><stop offset="1" stop-color="#EABCA4"/></linearGradient></defs><path fill="url(#gradient_4)" transform="scale(1.96875 1.96875)" d="M195.849 406.977L227.542 430.759C229.533 431.856 229.744 432.142 231.404 433.767C231.525 447.49 231.533 461.214 231.428 474.938C234.541 472.574 236.744 471.025 239.381 468.162L233.327 462.476C240.649 461.594 246.558 461.361 253.939 461.415C252.274 468.293 250.263 475.082 247.917 481.758L244.191 475.165C235.336 481.908 235.952 478.294 229.523 481.273C224.557 483.575 209.126 495.251 205.027 499.129C203.346 495.811 196.949 483.658 195.949 480.532C195.37 477.325 195.726 468.993 195.752 465.342L195.821 440.625C195.97 429.41 195.98 418.193 195.849 406.977Z"/><defs><linearGradient id="gradient_5" gradientUnits="userSpaceOnUse" x1="193.19499" y1="411.01819" x2="207.8922" y2="433.22586"><stop offset="0" stop-color="#986C54"/><stop offset="1" stop-color="#CFA88E"/></linearGradient></defs><path fill="url(#gradient_5)" transform="scale(1.96875 1.96875)" d="M195.849 406.977L227.542 430.759C223.278 430.182 219.651 424.525 217.061 425.921C215.024 427.018 212.175 431.591 209.794 432.875C205.473 435.95 200.538 434.145 197.768 438.054C197.371 440.27 197.838 440.255 197.707 442.016L195.821 440.625C195.97 429.41 195.98 418.193 195.849 406.977Z"/><path fill="#9B6F56" transform="scale(1.96875 1.96875)" d="M195.949 480.532C195.37 477.325 195.726 468.993 195.752 465.342L195.821 440.625L197.707 442.016C198.559 444.049 202.607 452.577 203.827 454.159C206.04 459.082 208.317 463.977 210.657 468.841L209.846 468.614C208.091 465.295 206.392 461.946 204.751 458.569C201.531 462.476 199.388 466.029 196.745 470.332C196.732 474.267 196.334 476.682 195.949 480.532Z"/><path fill="#E9BFA8" transform="scale(1.96875 1.96875)" d="M207.191 459.409C211.357 457.889 224.352 452.173 227.728 453.794C228.29 457.094 213.474 464.056 210.291 466.361C210.897 467.451 212.555 469.99 212.489 470.961C211.795 470.222 211.297 469.628 210.657 468.841C208.317 463.977 206.04 459.082 203.827 454.159L204.405 454.063C205.443 455.917 206.272 457.494 207.191 459.409Z"/><path fill="#37363B" transform="scale(1.96875 1.96875)" d="M502.233 474.232C521.645 474.128 532.911 482.148 532.642 502.823C532.49 514.567 532.608 526.749 532.576 538.528L519.596 538.563C519.464 535.961 519.535 533.672 519.603 531.083C507.561 543.101 488.033 543.225 477.802 528.778C476.47 525.993 475.866 524.154 475.731 521.007C475.493 516.118 477.229 511.337 480.549 507.74C488.971 498.676 506.446 500.91 518.45 500.54C515.214 479.463 496.535 485.427 483.442 492.845C481.71 489.653 479.856 485.602 478.227 482.287C486.083 476.701 492.817 474.925 502.233 474.232ZM504.726 528.34C515.656 526.031 518.482 521.485 518.505 510.58C513.513 510.295 509.317 510.071 504.29 510.156C500.474 510.417 494.374 510.855 492.282 514.188C485.484 525.018 496.67 528.832 504.726 528.34Z"/><defs><linearGradient id="gradient_6" gradientUnits="userSpaceOnUse" x1="661.64722" y1="491.24063" x2="732.6955" y2="499.54596"><stop offset="0" stop-color="#875A44"/><stop offset="1" stop-color="#C48F74"/></linearGradient></defs><path fill="url(#gradient_6)" transform="scale(1.96875 1.96875)" d="M717.996 538.534C715.866 539.442 712.364 539.843 710.003 539.983C696.4 540.791 685.2 538.469 674.788 529.408C666.367 522.14 661.284 511.744 660.719 500.634C658.565 464.746 691.224 443.504 723.76 456.618C729.86 459.076 733.993 462.684 738.809 467.056C734.729 470.635 732.18 473.014 728.383 476.978C726.23 474.908 724.529 473.268 722.02 471.577C709.23 462.161 687.401 465.595 679.923 480.447C666.747 506.62 686.799 533.075 716.116 524.27C721.617 521.462 723.312 520.075 727.63 515.641C730.136 517.35 736.371 522.939 738.424 525.235C733.132 530.822 725.914 537.201 717.996 538.534Z"/><path fill="#D39E83" transform="scale(1.96875 1.96875)" d="M727.63 515.641C730.136 517.35 736.371 522.939 738.424 525.235C733.132 530.822 725.914 537.201 717.996 538.534C717.052 537.951 716.532 538.413 716.086 537.313C714.576 533.591 712.503 530.612 713.334 526.461C714.474 525.65 715.078 525.16 716.116 524.27C721.617 521.462 723.312 520.075 727.63 515.641Z"/><defs><linearGradient id="gradient_7" gradientUnits="userSpaceOnUse" x1="260.41559" y1="590.45935" x2="250.93997" y2="522.7077"><stop offset="0" stop-color="#9D6B4B"/><stop offset="1" stop-color="#F9C5AD"/></linearGradient></defs><path fill="url(#gradient_7)" transform="scale(1.96875 1.96875)" d="M256.511 520.639C261.432 529.92 265.768 540.251 270.441 549.736C275.279 559.554 280.355 569.208 285.252 578.981C287.29 582.614 289.31 586.257 291.31 589.911C280.136 589.927 258.668 590.589 248.04 589.724L245.388 584.075C239.93 573.011 233.918 561.375 228.798 550.226C227.669 548.184 223.448 541.163 224.249 539.199L225.334 539.319C227.294 539.404 229.691 539.577 231.613 539.56C239.121 535.477 249.492 526.352 256.511 520.639Z"/><defs><linearGradient id="gradient_8" gradientUnits="userSpaceOnUse" x1="255.08617" y1="596.02563" x2="280.01825" y2="575.3031"><stop offset="0" stop-color="#855942"/><stop offset="1" stop-color="#9C6D4C"/></linearGradient></defs><path fill="url(#gradient_8)" transform="scale(1.96875 1.96875)" d="M245.388 584.075L247.011 583.579C248.937 581.479 261.127 573.79 261.635 572.226L260.633 570.806L261.127 570.751C265.7 576.24 272.657 578.746 275.045 584.7C275.979 587.031 274.89 586.961 277.51 588.398C279.741 588.136 283.853 583.679 285.637 581.775L285.252 578.981C287.29 582.614 289.31 586.257 291.31 589.911C280.136 589.927 258.668 590.589 248.04 589.724L245.388 584.075Z"/><path fill="#E9BFA8" transform="scale(1.96875 1.96875)" d="M228.798 550.226C227.669 548.184 223.448 541.163 224.249 539.199L225.334 539.319C228.405 542.498 229.925 541.794 234.208 540.636L234.681 540.789C231.179 543.515 231.152 544.37 228.253 547.518L229.095 549.506L228.798 550.226Z"/><path fill="#37363B" transform="scale(1.96875 1.96875)" d="M578.291 474.199C606.138 473.653 606.053 492.395 605.978 513.366L605.961 538.363C601 538.287 596.672 538.26 591.686 538.492C590.93 524.959 593.783 509.238 590.642 496.022C588.193 485.721 576.831 486.012 568.81 488.754C560.358 493.432 559.828 501.401 559.869 510.132C559.914 519.589 559.975 529.056 560.037 538.515C555.306 538.434 550.366 538.521 545.618 538.533C546.294 532.103 545.864 514.357 546 507.225C546.142 499.792 546.375 481.969 545.605 475.163C550.05 475.179 554.965 475.312 559.352 474.921L559.485 482.322C566.157 476.656 569.692 475.121 578.291 474.199Z"/><path fill="#37363B" transform="scale(1.96875 1.96875)" d="M405.704 475.167C410.832 475.067 415.962 475.053 421.09 475.122C426.916 490.158 433.919 506.523 440.456 521.309C446.346 506.245 453.41 490.285 459.591 475.138C464.322 475.051 469.055 475.076 473.785 475.213C472.094 480.106 470.789 483.595 468.705 488.371C461.401 504.936 454.456 521.657 447.873 538.521C443.509 537.945 437.422 538.34 432.891 538.485C424.256 520.143 413.207 494.178 405.704 475.167Z"/><path fill="#37363B" transform="scale(1.96875 1.96875)" d="M632.596 459.737C633.976 459.68 634.159 459.492 635.255 460.228C636.479 462.791 635.853 471.882 635.94 475.512C641.585 475.592 647.231 475.557 652.874 475.408C652.844 479.24 652.709 483.175 652.626 487.016C647.193 486.837 640.951 486.965 635.456 486.963C635.281 494.736 635.211 502.628 635.141 510.382C635.008 525.153 638.758 531.139 653.761 524.522C655.134 528.734 657.108 531.159 657.196 535.362C656.192 537.076 656.278 536.616 654.133 537.672C645.694 540.213 633.984 541.062 627.192 534.47C619.338 526.848 621.124 515.561 621.013 505.661C620.943 499.452 621.079 493.188 621.12 486.997L611.014 486.942C610.971 483.161 610.77 479.156 610.663 475.346L621.348 475.521C621.001 470.459 621.157 465.111 621.203 460.017L632.596 459.737Z"/><defs><linearGradient id="gradient_9" gradientUnits="userSpaceOnUse" x1="850.69165" y1="505.35187" x2="814.79742" y2="506.16983"><stop offset="0" stop-color="#AF8066"/><stop offset="1" stop-color="#D0997C"/></linearGradient></defs><path fill="url(#gradient_9)" transform="scale(1.96875 1.96875)" d="M845.307 474.189L851.294 474.029C851.052 479.043 851.016 482.429 851.261 487.436C844.737 487.871 839.518 487.99 834.574 492.984C829.98 497.535 829.254 504.138 829.297 510.3C829.362 519.695 829.392 529.117 829.422 538.525C826.38 538.53 816.851 539.2 815.066 537.698L814.888 535.625C815.32 515.947 814.722 494.468 814.881 474.459C819.584 474.524 824.288 474.502 828.99 474.392L828.99 483.153C834.819 477.18 836.977 475.056 845.307 474.189Z"/><path fill="#837A7A" transform="scale(1.96875 1.96875)" d="M206.975 505.646C211.181 500.028 218.255 495.21 223.732 490.805C233.746 482.75 235.804 481.009 242.468 492.484C240.174 494.009 235.193 503.42 235.044 506.055C233.482 503.834 233.147 502.183 232.56 499.571C234.224 498.073 237.098 495.416 235.524 493.043C235.117 492.979 234.709 492.915 234.302 492.851C229.305 496.001 220.505 502.959 216.02 506.173C217.295 508.102 218.123 509.899 219.147 511.961C216.927 513.822 215.508 514.54 213.022 515.928C209.366 511.925 208.723 510.723 206.975 505.646Z"/><path fill="#D39E83" transform="scale(1.96875 1.96875)" d="M262.049 476.307C265.045 473.275 271.802 467.279 276.099 470.52C277.371 475.325 268.902 480.939 265.235 483.436C261.498 486.95 239.019 505.026 235.548 506.24L235.044 506.055C235.193 503.42 240.174 494.009 242.468 492.484C244.31 490.394 260.161 477.302 262.049 476.307Z"/><path fill="#E9BFA8" transform="scale(1.96875 1.96875)" d="M262.049 476.307C265.045 473.275 271.802 467.279 276.099 470.52C277.371 475.325 268.902 480.939 265.235 483.436L265.24 482.753C266.001 481.067 268.158 479.7 269.693 478.5C269.499 475.828 269.4 474.989 268.716 472.411C266.865 473.655 264.148 476.281 262.049 476.307Z"/><path fill="#37363B" transform="scale(1.96875 1.96875)" d="M779.697 570.587C782.687 570.592 785.238 570.863 787.39 573.194C789.437 575.392 790.457 578.354 790.195 581.346C789.986 583.873 788.817 586.496 786.755 587.991C781.694 591.658 779.437 588.746 775.537 588.387L775.42 589.375C775.441 591.607 776.043 594.136 775.147 596.043C773.561 596.985 774.431 596.694 772.369 596.65C770.281 594.25 773.044 578.03 771.814 574.149C771.259 572.398 771.071 571.928 772.323 570.708C774.119 570.83 773.6 570.837 775.298 572.15C776.75 571.589 778.217 571.068 779.697 570.587ZM782.562 586.419C788.832 581.499 787.377 574.371 779.447 573.462C772.824 577.292 773.312 587.318 782.562 586.419Z"/><defs><linearGradient id="gradient_10" gradientUnits="userSpaceOnUse" x1="295.63242" y1="450.19254" x2="281.02814" y2="463.52899"><stop offset="0" stop-color="#9E7A64"/><stop offset="1" stop-color="#D8A58B"/></linearGradient></defs><path fill="url(#gradient_10)" transform="scale(1.96875 1.96875)" d="M259.864 451.482C260.338 450.175 260.482 448.965 262.033 448.626C267.289 447.478 292.047 447.69 295.825 448.934C298.04 452.205 297.191 469.108 297.154 474.226C294.902 473.346 294.583 473.05 292.303 473.405C289.343 475.321 291.417 476.332 290.229 479.14L289.967 478.595C289.74 471.404 290.053 462.416 290.096 455.079L273.669 455.062C272.343 453.525 269.201 449.929 267.13 449.519C264.545 449.009 261.86 451.221 259.864 451.482Z"/><path fill="#37363B" transform="scale(1.96875 1.96875)" d="M631.894 562.967C633.85 563.122 634.029 562.799 635.327 563.8C635.307 570.986 635.607 582.264 634.88 588.994C633.471 589.618 634.114 589.359 632.292 589.199L631.731 588.077C631.192 587.912 626.071 589.619 623.061 589.489C610.923 583.237 618.502 565.701 629.36 572.064C630.532 572.751 630.024 572.453 631.41 572.2C632.216 569.906 631.169 566.046 631.894 562.967ZM627.915 586.381C634.342 581.884 632.467 573.315 623.914 573.957C618.029 578.882 619.222 587.248 627.915 586.381Z"/><defs><linearGradient id="gradient_11" gradientUnits="userSpaceOnUse" x1="409.3118" y1="571.14886" x2="428.42218" y2="586.35461"><stop offset="0" stop-color="#2C2C2E"/><stop offset="1" stop-color="#494649"/></linearGradient></defs><path fill="url(#gradient_11)" transform="scale(1.96875 1.96875)" d="M413.947 563.34C416.337 563.581 415.819 563.167 417.291 564.498C418.391 567.866 415.965 569.08 417.605 572.082C420.918 571.159 423.634 569.355 427.24 571.43C430.846 573.505 431.796 576.678 432.902 580.403C431.946 583.452 431.757 584.04 430.111 586.811C423.645 592.247 422.797 588.394 417.289 587.661L416.826 589.414L416.01 589.838L414.735 589.269C413.348 586.897 413.982 567.904 413.947 563.34ZM423.933 586.686C430.925 583.41 429.927 575.473 423.341 573.775C422.915 573.667 422.487 573.568 422.058 573.476C414.407 577.486 416.455 586.392 423.933 586.686Z"/><path fill="#37363B" transform="scale(1.96875 1.96875)" d="M354.696 570.853C359.725 569.501 364.911 572.427 366.354 577.431C367.798 582.434 364.968 587.672 359.991 589.207C356.69 590.226 353.097 589.382 350.593 587.002C348.09 584.621 347.066 581.074 347.917 577.726C348.768 574.378 351.36 571.75 354.696 570.853ZM358.983 586.469C365.378 582.274 363.933 573.875 355.44 573.916C349.221 579.001 350.603 586.912 358.983 586.469Z"/><path fill="#D39E83" transform="scale(1.96875 1.96875)" d="M269.326 494.218L278.93 493.97C277.382 499.607 274.981 507.015 272.746 512.355C271.522 510.621 270.238 508.506 269.074 506.697L266.231 509.152C264.23 510.801 262.211 512.311 260.145 513.873C259.627 510.325 259.026 508.477 257.973 505.055C259.735 503.552 261.719 502.02 263.537 500.557C262.111 498.833 260.771 497.046 259.411 495.269C262.997 494.626 265.675 494.461 269.326 494.218Z"/><path fill="#37363B" transform="scale(1.96875 1.96875)" d="M799.117 570.552C804.895 570.262 811.941 573.752 810.108 580.246C806.268 583.566 798.233 579.768 796.346 582.789C798.21 587.47 801.918 587.012 805.839 585.604L806.743 584.996C808.663 585.068 807.967 584.674 809.154 585.709L808.941 586.689C806.405 589.74 800.108 590.89 796.678 588.585C793.384 586.372 792.767 584.314 791.906 580.607C793.009 574.684 793.586 573.097 799.117 570.552ZM803.74 578.667L805.742 578.423C807.271 575.362 801.929 573.869 799.456 573.946C798.071 575.045 797.101 575.594 796.358 577.194L796.63 578.057C798.731 578.98 801.352 578.691 803.74 578.667Z"/><path fill="#37363B" transform="scale(1.96875 1.96875)" d="M687.264 570.578C699.199 569.639 698.869 578.61 697.903 588.053C697.676 590.267 691.728 589.118 689.762 589.526C687.297 590.038 685.202 589.236 683.185 587.857C677.433 576.758 691.184 579.658 694.52 576.851C693.236 572.463 685.713 575.613 682.355 573.793L682.438 572.965C683.774 571.472 685.309 571.221 687.264 570.578ZM686.587 586.809C689.883 586.989 694.496 586.021 694.537 581.869C694.34 581.681 694.18 581.406 693.917 581.337C691.033 581.434 688.47 581.164 685.958 582.31C684.698 584.374 685.323 584.881 686.587 586.809Z"/><path fill="#37363B" transform="scale(1.96875 1.96875)" d="M511.547 570.528C519.63 570.658 520.667 574.515 521.761 581.494C518.816 581.67 508.99 581.024 507.353 582.1C508.404 587.46 514.092 586.901 517.964 585.087L518.455 584.686C519.92 585.163 519.394 584.718 520.13 586.008C518.775 590.198 511.245 590.435 508.356 588.579C500.396 583.464 502.128 572.683 511.547 570.528ZM514.942 578.86C516.988 578.733 516.692 579.091 517.745 577.985C517.177 574.845 514.016 573.459 511.056 573.431C509.075 574.641 508.8 574.702 507.452 576.511L507.461 577.653C509.564 579.271 512.253 578.88 514.942 578.86Z"/><path fill="#37363B" transform="scale(1.96875 1.96875)" d="M902.717 570.559C906.545 570.352 907.308 570.764 910.638 572.731C919.827 587.331 903.984 578.622 899.163 581.962C899.034 587.295 905.808 586.901 909.357 585.53C910.47 584.726 910.842 585.103 911.724 585.735L911.84 586.772C909.727 590.21 904.827 590.335 901.379 589.143C898.948 588.316 896.992 586.479 896.014 584.104C894.903 581.373 894.997 578.3 896.272 575.642C897.755 572.537 899.672 571.662 902.717 570.559ZM904.375 578.819C906.829 578.861 907.241 579.286 909.01 578.247C910.161 575.14 906.179 573.597 903.699 573.426C901.476 574.54 901.047 574.606 899.501 576.447L899.343 577.59C900.427 578.759 900.719 578.737 902.697 578.804C903.256 578.818 903.816 578.823 904.375 578.819Z"/><path fill="#37363B" transform="scale(1.96875 1.96875)" d="M592.348 570.634C599.39 571.498 600.27 574.9 600.933 581.825C601.165 584.249 601.235 587.448 599.993 589.579L598.98 589.787C592.745 585.711 591.14 594.319 584.506 585.962C583.928 576.906 590.873 579.816 596.348 577.841L596.75 576.941C593.859 571.48 588.679 576.025 584.593 574.44L584.814 573.484C587.164 571.066 588.996 571.149 592.348 570.634ZM594.399 586.624C595.906 585.793 596.462 585.659 597.288 584.142C596.937 580.747 592.536 581.438 590.003 581.568C588.222 582.757 588.852 582.006 587.915 583.793C588.721 587.098 591.66 587.043 594.399 586.624Z"/><defs><linearGradient id="gradient_12" gradientUnits="userSpaceOnUse" x1="850.93878" y1="583.69763" x2="836.17065" y2="576.1153"><stop offset="0" stop-color="#2A292D"/><stop offset="1" stop-color="#494647"/></linearGradient></defs><path fill="url(#gradient_12)" transform="scale(1.96875 1.96875)" d="M842.857 570.591C848.647 571.04 852.219 573.351 852.786 579.597C850.878 584.468 843.027 579.363 838.329 581.994L838.07 583C840.157 587.123 844.442 587.152 848.212 585.613L848.789 585.14C850.359 585.578 849.799 585.136 850.644 586.344L850.292 587.421C842.861 593.64 836.585 588.012 834.268 580.237C835.7 573.994 836.482 572.111 842.857 570.591ZM845.664 578.891L848.037 578.713L848.66 577.921C848.023 574.584 844.373 573.677 841.388 573.944C840.045 575.128 838.975 575.813 838.345 577.465L838.714 578.356C840.977 579.21 843.2 578.939 845.664 578.891Z"/><path fill="#37363B" transform="scale(1.96875 1.96875)" d="M741.056 570.696C748.329 571.219 749.427 575.182 750.545 581.423C745.897 581.626 740.038 581.492 735.3 581.507C738.469 586.449 739.99 587.908 745.756 585.615C746.211 585.108 745.881 585.354 746.928 585.23L747.548 586.079C746.107 592.336 734.392 590.39 732.583 582.386C731.921 579.541 732.504 576.548 734.185 574.16C736.072 571.511 738.053 571.124 741.056 570.696ZM742.128 578.748C744.615 578.721 744.757 579.142 746.446 578C746.628 574.729 742.011 573.871 739.457 573.979C738.042 575.16 736.928 575.796 736.372 577.513C737.638 579.3 740.001 578.777 742.128 578.748Z"/><path fill="#E9BFA8" transform="scale(1.96875 1.96875)" d="M289.967 478.595L290.229 479.14C291.417 476.332 289.343 475.321 292.303 473.405C294.583 473.05 294.902 473.346 297.154 474.226C297.259 489.654 292.513 486.153 279.307 485.849L268.204 485.992C271.14 483.163 273.929 480.975 277.132 478.457C279.289 478.338 282.007 478.49 284.21 478.551C286.076 478.543 288.117 478.489 289.967 478.595Z"/><path fill="#D39E83" transform="scale(1.96875 1.96875)" d="M277.132 478.457C279.289 478.338 282.007 478.49 284.21 478.551C282.667 479.013 282.188 479.23 280.538 479.253L274.822 483.697L274.741 484.724C276.667 485.725 277.373 485.315 279.307 485.849L268.204 485.992C271.14 483.163 273.929 480.975 277.132 478.457Z"/><path fill="#E9BFA8" transform="scale(1.96875 1.96875)" d="M259.864 451.482C261.86 451.221 264.545 449.009 267.13 449.519C269.201 449.929 272.343 453.525 273.669 455.062L266.911 454.876C266.96 459.788 268.517 473.582 260.859 472.919C259.008 470.765 260.378 455.799 259.864 451.482Z"/><path fill="#837A7A" transform="scale(1.96875 1.96875)" d="M249.516 500.968C252.51 503.848 255.08 509.191 256.089 513.207C251.559 517.755 246.693 521.443 241.571 525.299C242.47 521.666 243.003 517.829 243.55 514.121L247.062 511.242L243.79 505.127C245.504 503.875 247.792 502.088 249.516 500.968Z"/><path fill="#37363B" transform="scale(1.96875 1.96875)" d="M856.175 570.507C857.638 570.487 858.372 570.366 859.754 570.894L860.03 572.407C862.603 572.624 864.37 570.027 867.635 570.534C874.788 571.644 874.915 582.945 873.212 588.776C871.704 589.491 872.496 589.361 870.736 589.013C869.56 587.491 870.06 580.998 870.048 578.415C868.885 574.956 866.513 572.837 862.697 574.191C858.301 577.823 861.017 585.465 859.621 589.358C857.497 589.517 858.32 589.8 856.728 589.05C856.046 587.421 856.207 573.283 856.175 570.507Z"/><path fill="#37363B" transform="scale(1.96875 1.96875)" d="M327.29 564.537C332.498 564.817 335.583 572.548 338.157 576.851C339.746 574.108 344.951 564 348.557 564.514C348.478 567.596 345.831 571.151 344.168 573.805L342.712 576.235C339.011 582.344 340.439 582.172 339.289 588.867C338.037 589.739 338.731 589.469 337.06 589.37C335.269 587.573 336.306 583.65 335.56 580.904C334.237 576.027 327.863 569.355 327.29 564.537Z"/><path fill="#37363B" transform="scale(1.96875 1.96875)" d="M369.882 570.94C371.369 570.906 371.422 570.857 372.844 571.217C375.295 574.625 369.695 588.435 379.216 586.319C385.76 584.864 381.338 575.355 383.828 571.099C385.424 570.459 384.572 570.563 386.49 571.158C387.218 572.162 386.797 572.694 386.574 574.375C386.616 577.682 387.54 587.682 385.376 589.671C384.217 589.213 383.919 588.886 383.031 588.01C381.34 588.979 380.424 589.568 378.439 589.726C367.537 590.594 369.986 578.146 369.882 570.94Z"/><path fill="#37363B" transform="scale(1.96875 1.96875)" d="M710.429 570.601C716.265 570.341 718.941 572.164 720.087 578.383C720.589 581.108 720.674 587.534 719.131 589.768L718.17 589.835C713.622 586.96 721.306 575.625 711.372 573.886C702.82 575.891 708.996 585.415 705.042 589.561C703.512 589.487 704.01 589.817 703.201 588.994C703.074 583.811 702.836 578.03 703.088 572.868C703.168 571.225 703.419 571.387 704.483 570.577C705.939 571.107 705.605 571.16 706.686 572.65C708.077 572.019 709.126 571.372 710.429 570.601Z"/><path fill="#37363B" transform="scale(1.96875 1.96875)" d="M435.972 570.901C436.374 570.913 437.82 570.955 438.07 571.093C442.447 573.508 435.277 586.935 443.989 586.487C452.447 586.051 446.463 574.61 449.882 570.837C451.853 571.109 451.274 570.651 452.415 571.702L452.449 573.875C452.361 577.45 453.116 587.104 451.648 589.371C449.117 589.813 450.166 588.317 447.761 588.236C444.831 590.013 440.388 590.612 437.977 587.892C434.974 584.504 436.008 575.291 435.972 570.901Z"/><path fill="#37363B" transform="scale(1.96875 1.96875)" d="M462.814 570.605C465.598 570.868 467.257 570.786 469.698 572.141L470.016 573.263L469.416 574.008C467.289 574.653 463.872 574.133 461.519 573.948C459.845 574.784 460.465 574.195 459.496 575.671C460.466 579.516 467.157 578.074 469.381 580.459C474.606 586.062 467.701 589.297 462.986 589.701C459.187 589.453 457.642 589.327 454.982 586.753L455.269 586.066C459.655 585.189 464.721 588.04 467.864 584.913C465.66 581.541 452.93 580.962 456.325 573.767C457.359 571.576 460.639 571.043 462.814 570.605Z"/><path fill="#37363B" transform="scale(1.96875 1.96875)" d="M545.23 570.559C548.082 570.384 552.117 570.451 554.173 572.633L553.827 573.671C550.958 575.08 548.847 572.94 544.989 574.381C544.038 575.652 544.296 574.933 544.378 576.667C546.69 579.913 554.761 578.448 555.103 583.475C555.435 588.346 552.234 589.151 548.266 589.775C545.073 589.641 543.632 589.521 540.72 588.208C539.752 586.823 539.838 587.511 539.91 586.154C542.917 584.928 548.205 587.456 551.076 585.427C551.542 582.157 529.982 577.701 545.23 570.559Z"/><path fill="#37363B" transform="scale(1.96875 1.96875)" d="M528.064 570.55C532.432 570.319 534.264 570.123 537.426 573.316L537.395 574.076C534.626 574.919 531.366 573.345 528.084 574.221C527.173 575.956 527.233 575.113 527.598 576.799C530.75 579.161 537.006 577.822 538.545 582.58C539.816 586.507 535.919 588.481 533.134 589.43C530.997 589.474 523.004 589.424 523.404 586.197C525.188 585.586 530.493 586.261 533.064 586.259C534.595 585.36 534.136 585.979 534.701 584.521C533.021 581.767 514.46 578.483 528.064 570.55Z"/><path fill="#37363B" transform="scale(1.96875 1.96875)" d="M661.016 570.546C663.855 570.43 668.268 570.57 670.762 572.026L670.788 572.844C668.246 576.292 663.974 572.178 660.128 574.927C660.351 578.115 682.138 584.054 665.972 589.543C663.08 589.715 658.869 589.863 656.751 587.652C656.48 585.996 656.317 586.721 657.096 585.375C660.216 584.499 664.061 588.797 667.796 585.027C667.013 581.151 657.309 582.316 656.322 575.679C657.216 572.724 658.327 572.101 661.016 570.546Z"/><path fill="#37363B" transform="scale(1.96875 1.96875)" d="M751.16 570.844C756.816 570.674 757.378 573.281 760.086 577.658C763.811 572.242 763.482 571.101 770.207 570.755C767.062 573.892 764.842 576.631 762.047 580.048C763.94 582.784 766.886 586.331 768.995 589.022C763.912 590.296 762.551 586.289 760.012 582.466C757.322 586.391 757.095 587.283 753.073 590.086L751.886 589.651C752.397 586.439 755.969 582.729 758.144 580.101C756.172 577.81 752.724 573.306 751.16 570.844Z"/><path fill="#37363B" transform="scale(1.96875 1.96875)" d="M572.486 570.591C577.645 570.279 578.354 570.662 581.985 574.213L581.976 575.152C579.811 575.284 574.5 573.744 572.723 574.721C566.465 578.163 568.523 589.879 578.839 585.272C579.521 584.536 579.174 584.862 580.343 584.529L581.242 585.067L581.431 586.148C579.927 589.645 575.185 590.611 572.16 589.394C562.655 585.57 563.858 574.609 572.486 570.591Z"/><path fill="#37363B" transform="scale(1.96875 1.96875)" d="M884.923 570.54C887.9 570.423 893.88 571.445 893.525 575.29C890.282 575.521 883.637 571.787 881.227 576.886C878.755 582.119 882.082 588.712 888.675 585.894C890.313 584.951 891.61 583.804 893.174 585.265L893.012 586.392C892.101 587.56 891.07 588.661 889.599 589.111C876.427 593.133 871.326 574.609 884.923 570.54Z"/><path fill="#37363B" transform="scale(1.96875 1.96875)" d="M486.754 572.474C499.658 565.98 503.13 579.997 499.779 589.133C498.095 589.582 498.85 589.697 497.422 588.929C495.02 583.801 500.206 568.181 486.689 575.797C486.085 573.587 486.063 574.655 486.754 572.474Z"/><path fill="#37363B" transform="scale(1.96875 1.96875)" d="M613.197 570.243C614.756 570.469 615.016 570.946 616.138 572.061C616.62 574.235 610.751 574.205 609.446 577.437C607.523 582.199 612.323 588.634 606.36 589.986C605.432 588.515 605.245 572.547 605.882 570.889L606.925 570.476C608.227 570.84 608.435 571.294 609.302 572.336L609.599 572.701C611.02 571.93 611.92 571.203 613.197 570.243Z"/><path fill="#37363B" transform="scale(1.96875 1.96875)" d="M814.416 571.059C815.141 571.091 816.369 571.039 817.008 571.517C819.926 573.701 821.718 569.056 825.359 572.293C822.096 575.476 820.067 573.588 818.066 578.504C817.601 582.418 818.206 586.963 815.793 590.34C813.643 587.077 814.339 575.436 814.416 571.059Z"/><path fill="#37363B" transform="scale(1.96875 1.96875)" d="M399.824 570.285C401.367 570.628 401.467 570.704 402.187 571.877C401.203 574.492 396.658 575.011 395.645 577.219C394.256 580.244 397.15 586.419 394.89 589.24C394.443 589.798 392.809 589.761 391.902 589.86C392.04 585.693 391.201 573.098 393.123 570.89C395.38 571.056 394.975 570.67 396.315 571.885L395.706 572.879C397.187 572.179 398.445 571.208 399.824 570.285Z"/><path fill="#37363B" transform="scale(1.96875 1.96875)" d="M473.992 570.616C475.299 570.512 476.582 570.323 477.863 570.536C477.875 575.414 476.867 585.604 478.201 589.622C476.155 589.41 476.177 589.737 474.775 588.697C473.233 585.248 474.013 575.226 473.992 570.616Z"/><path fill="#37363B" transform="scale(1.96875 1.96875)" d="M827.23 570.275C828.806 570.361 829.412 570.248 830.717 571.143C831.264 574.306 830.963 585.41 830.955 589.511C829.506 589.539 828.875 589.676 827.559 589.045C827.075 585.054 827.418 575.165 827.23 570.275Z"/><path fill="#37363B" transform="scale(1.96875 1.96875)" d="M486.689 575.797C487.128 578.94 488.022 587.386 485.272 589.426L484.097 589.177C483.113 585.684 482.665 574.689 484.092 571.006C484.341 570.365 484.757 570.495 485.591 570.334L486.69 571.207L486.754 572.474C486.063 574.655 486.085 573.587 486.689 575.797Z"/><path fill="#37363B" transform="scale(1.96875 1.96875)" d="M649.745 570.228L651.561 570.489C653.54 572.866 652.775 585.438 652.719 589.303C650.758 589.454 651.482 589.763 650.094 588.973C648.751 585.705 649.282 573.995 649.745 570.228Z"/><path fill="#37363B" transform="scale(1.96875 1.96875)" d="M917.436 585.258C918.235 584.844 919.196 584.896 919.947 585.391C920.698 585.887 921.122 586.75 921.057 587.648C920.991 588.545 920.446 589.337 919.631 589.718C918.404 590.292 916.944 589.779 916.346 588.564C915.749 587.349 916.233 585.879 917.436 585.258Z"/><path fill="#37363B" transform="scale(1.96875 1.96875)" d="M828.128 562.768C829.305 562.359 830.595 562.962 831.036 564.128C831.477 565.294 830.909 566.599 829.755 567.072C828.98 567.389 828.095 567.261 827.442 566.736C826.789 566.212 826.473 565.375 826.615 564.55C826.758 563.725 827.337 563.043 828.128 562.768Z"/><path fill="#37363B" transform="scale(1.96875 1.96875)" d="M475.399 562.727C476.637 562.47 477.847 563.271 478.093 564.512C478.34 565.752 477.529 566.955 476.286 567.191C475.059 567.425 473.873 566.625 473.629 565.399C473.386 564.174 474.175 562.981 475.399 562.727Z"/><path fill="#37363B" transform="scale(1.96875 1.96875)" d="M650.601 562.93C651.793 562.64 652.997 563.366 653.295 564.557C653.594 565.747 652.875 566.956 651.687 567.262C650.487 567.572 649.264 566.845 648.963 565.643C648.662 564.441 649.397 563.223 650.601 562.93Z"/></svg>