<?xml version="1.0" encoding="utf-8" ?><svg xmlns="http://www.w3.org/2000/svg" xmlns:xlink="http://www.w3.org/1999/xlink" width="2816" height="1536" viewBox="0 0 2816 1536"><path fill="#1F2024" d="M0 0L2816 0L2816 1536L0 1536L0 0Z"/><path fill="#85A883" d="M1027.02 586.242C1027.35 584.742 1026.84 586.608 1027.74 584.614C1029.43 580.901 1025.1 571.125 1025.78 566.601C1026.67 560.728 1029.35 554.674 1031.49 549.347L1028.81 547.693C1028.03 541.665 1042.35 537.756 1043.28 536.324C1048.27 528.622 1046.57 525.187 1057.65 522.661L1057.23 525.43L1058.06 525.736C1070.49 518.724 1077.21 515.81 1091.15 518.019L1090.64 517.7C1092.54 517.546 1092.64 517.67 1094.35 518.58L1099.02 521.069C1102.54 519.196 1108.83 516.988 1111.34 519.269C1119.46 526.66 1134.32 548.165 1139.71 556.543C1139.51 558.879 1139.08 559.358 1138.07 561.459L1138.39 562.871C1141.23 575.43 1140.56 607.604 1127.35 614.286C1123.58 617.291 1118.5 621.949 1115.28 624.087C1113.28 625.415 1100.16 627.81 1101.15 631.986C1101.33 632.76 1101.71 635.353 1101.92 636.332C1096.76 644.095 1104.05 653.445 1102.99 656.08L1100.78 657.741C1100.96 660.185 1101.11 661.774 1100.96 664.26L1098.69 660.35C1098.38 666.679 1099.62 673.654 1099.94 679.559C1100.76 694.325 1102.97 748.507 1097.23 758.819L1096.14 760.576C1091.19 757.03 1085.26 751.613 1080.71 747.473C1068.48 736.345 1055.17 725.881 1043.03 714.752C1015.16 758.748 979.453 807.767 955.741 853.537C923.184 916.378 910.64 969.801 862.495 1026.01C849.987 1039.26 840.521 1049.55 822.73 1055.71C803.982 1062.24 783.388 1060.92 765.632 1052.03C758.82 1048.66 752.578 1044.24 747.133 1038.93C740.62 1032.68 703.008 985.223 700.947 979.258C677.82 986.149 614.896 995.096 593.03 986.483C584.843 985.421 575.047 982.572 567.321 979.711C578.385 980.13 588.734 979.974 599.813 979.798C603.801 978.635 609.08 978.511 613.431 977.795C728.771 958.834 830.206 869.716 898.517 779.704C911.653 762.237 924.271 744.386 936.355 726.176C944.341 714.072 954.101 698.173 962.443 686.784C965.766 680.472 969.674 673.917 973.235 667.692C959.382 662.91 945.628 657.844 931.983 652.497C928.331 651.91 924.032 650.011 920.738 648.386C916.422 647.278 909.918 644.64 905.545 643.01C917.463 636.173 939.137 627.033 952.486 620.933L1027.02 586.242Z"/><defs><linearGradient id="gradient_0" gradientUnits="userSpaceOnUse" x1="860.98492" y1="1025.1271" x2="1117.4879" y2="618.42755"><stop offset="0" stop-color="#423F49"/><stop offset="1" stop-color="#89AE86"/></linearGradient></defs><path fill="url(#gradient_0)" d="M1027.02 586.242C1027.35 584.742 1026.84 586.608 1027.74 584.614C1029.43 580.901 1025.1 571.125 1025.78 566.601C1026.67 560.728 1029.35 554.674 1031.49 549.347L1028.81 547.693C1028.03 541.665 1042.35 537.756 1043.28 536.324C1048.27 528.622 1046.57 525.187 1057.65 522.661L1057.23 525.43L1058.06 525.736C1070.49 518.724 1077.21 515.81 1091.15 518.019L1090.64 517.7C1092.54 517.546 1092.64 517.67 1094.35 518.58L1099.02 521.069C1102.54 519.196 1108.83 516.988 1111.34 519.269C1119.46 526.66 1134.32 548.165 1139.71 556.543C1139.51 558.879 1139.08 559.358 1138.07 561.459L1138.39 562.871C1141.23 575.43 1140.56 607.604 1127.35 614.286C1123.58 617.291 1118.5 621.949 1115.28 624.087C1113.28 625.415 1100.16 627.81 1101.15 631.986C1101.33 632.76 1101.71 635.353 1101.92 636.332C1096.76 644.095 1104.05 653.445 1102.99 656.08L1100.78 657.741C1100.96 660.185 1101.11 661.774 1100.96 664.26L1098.69 660.35C1098.38 666.679 1099.62 673.654 1099.94 679.559C1100.76 694.325 1102.97 748.507 1097.23 758.819L1096.14 760.576C1091.19 757.03 1085.26 751.613 1080.71 747.473C1068.48 736.345 1055.17 725.881 1043.03 714.752C1015.16 758.748 979.453 807.767 955.741 853.537C923.184 916.378 910.64 969.801 862.495 1026.01C861.376 1023.33 861.836 1022.51 861.838 1020.08C861.846 1011.03 840.038 1012.37 835.376 1007.65C837.06 1004.96 837.576 1004.26 837.861 1001.11C840.964 996.885 844.027 992.432 847.198 988.301C889.092 933.724 903.267 864.171 937.142 805.049C939.149 801.546 945.38 790.716 945.476 787.089L1033.12 653.116C1039.25 643.75 1068.59 600.154 1072.77 590.06C1063.24 586.851 1023.63 607.368 1011.4 611.431C1007.63 612.683 1002.9 617.04 998.231 615.832C994.919 615.119 979.637 620.748 978.035 619.683C981.89 617.439 996.238 611.388 996.925 610.531C990.127 610.545 985.714 611.949 979.092 610.529C970.36 613.193 921.175 636.542 914.826 642.744C916.722 644.35 919.485 646.396 920.738 648.386C916.422 647.278 909.918 644.64 905.545 643.01C917.463 636.173 939.137 627.033 952.486 620.933L1027.02 586.242Z"/><path fill="#526552" d="M1027.02 586.242C1027.35 584.742 1026.84 586.608 1027.74 584.614C1029.43 580.901 1025.1 571.125 1025.78 566.601C1026.67 560.728 1029.35 554.674 1031.49 549.347L1028.81 547.693C1028.03 541.665 1042.35 537.756 1043.28 536.324C1048.27 528.622 1046.57 525.187 1057.65 522.661L1057.23 525.43L1058.06 525.736C1070.49 518.724 1077.21 515.81 1091.15 518.019L1090.64 517.7C1092.54 517.546 1092.64 517.67 1094.35 518.58L1099.02 521.069C1102.54 519.196 1108.83 516.988 1111.34 519.269C1119.46 526.66 1134.32 548.165 1139.71 556.543C1139.51 558.879 1139.08 559.358 1138.07 561.459L1138.39 562.871C1141.23 575.43 1140.56 607.604 1127.35 614.286C1123.58 617.291 1118.5 621.949 1115.28 624.087C1113.28 625.415 1100.16 627.81 1101.15 631.986C1101.33 632.76 1101.71 635.353 1101.92 636.332C1099.16 633.508 1097.51 624.92 1097.01 620.981L1096.81 617.835L1096.17 618.003C1096.51 610.013 1096.42 599.806 1097.11 592.157C1097.57 586.9 1105.41 577.438 1103.1 569.966C1101.86 565.954 1100.6 561.865 1097.03 559.63L1097.15 556.958C1092.21 551.634 1057.89 571.706 1051.61 575.339C1047.94 576.44 1045.32 577.839 1041.9 579.497C1038.18 581.241 1030.57 585.057 1027.02 586.242Z"/><path fill="#4C5C4A" d="M1027.02 586.242C1027.35 584.742 1026.84 586.608 1027.74 584.614C1029.43 580.901 1025.1 571.125 1025.78 566.601C1026.67 560.728 1029.35 554.674 1031.49 549.347L1028.81 547.693C1028.03 541.665 1042.35 537.756 1043.28 536.324C1048.27 528.622 1046.57 525.187 1057.65 522.661L1057.23 525.43L1058.06 525.736C1070.49 518.724 1077.21 515.81 1091.15 518.019L1090.64 517.7C1092.54 517.546 1092.64 517.67 1094.35 518.58L1099.02 521.069C1093.8 525.519 1056.93 519.513 1035.92 550.738C1036.07 552.396 1036.01 552.119 1036.47 553.767C1034.95 554.201 1034.33 554.407 1033.19 555.526C1033.38 557.627 1033.54 557.817 1034.28 559.824C1032.16 565.003 1029.74 567.702 1032.61 572.833C1035.92 578.761 1034.58 579.189 1041.9 579.497C1038.18 581.241 1030.57 585.057 1027.02 586.242Z"/><path fill="#4C5C4A" d="M1096.81 617.835L1097.78 617.646C1102.7 620.013 1104.38 620.93 1109.81 620.418L1110.83 619.087C1111.33 619.288 1111.84 619.489 1112.34 619.69C1110.3 618.884 1108.33 618.297 1106.24 617.644L1107.6 616.698C1119.24 619.784 1117.95 612.06 1127.35 614.286C1123.58 617.291 1118.5 621.949 1115.28 624.087C1113.28 625.415 1100.16 627.81 1101.15 631.986C1101.33 632.76 1101.71 635.353 1101.92 636.332C1099.16 633.508 1097.51 624.92 1097.01 620.981L1096.81 617.835Z"/><path fill="#B5E5B7" d="M1051.61 575.339C1057.89 571.706 1092.21 551.634 1097.15 556.958L1097.03 559.63C1100.6 561.865 1101.86 565.954 1103.1 569.966C1105.41 577.438 1097.57 586.9 1097.11 592.157C1096.42 599.806 1096.51 610.013 1096.17 618.003C1095.55 626.166 1095.93 641.709 1095.86 650.373C1095.57 671.9 1095.51 693.429 1095.66 714.957L1095.07 715.264C1093.87 712.127 1094.07 713.403 1095.3 709.596C1093.28 708.049 1093.24 707.953 1091.64 705.962C1091.85 702.336 1087.26 665.568 1086.33 664.087C1077.11 649.451 1092.01 594.385 1075.63 588.06L1072.77 590.06C1063.24 586.851 1023.63 607.368 1011.4 611.431C1007.63 612.683 1002.9 617.04 998.231 615.832C994.919 615.119 979.637 620.748 978.035 619.683C981.89 617.439 996.238 611.388 996.925 610.531C990.127 610.545 985.714 611.949 979.092 610.529C970.36 613.193 921.175 636.542 914.826 642.744C916.722 644.35 919.485 646.396 920.738 648.386C916.422 647.278 909.918 644.64 905.545 643.01C917.463 636.173 939.137 627.033 952.486 620.933L1027.02 586.242C1030.57 585.057 1038.18 581.241 1041.9 579.497C1045.32 577.839 1047.94 576.44 1051.61 575.339Z"/><path fill="#EDFDF2" d="M1051.61 575.339C1057.89 571.706 1092.21 551.634 1097.15 556.958L1097.03 559.63C1096.39 567.228 1096.94 590.862 1094.56 595.334C1090.12 594.482 1086.96 577.621 1083.68 572.518C1074.39 572.581 1059.48 582.075 1051.61 575.339Z"/><path fill="#161E1A" d="M1097.01 620.981C1097.51 624.92 1099.16 633.508 1101.92 636.332C1096.76 644.095 1104.05 653.445 1102.99 656.08L1100.78 657.741C1100.96 660.185 1101.11 661.774 1100.96 664.26L1098.69 660.35C1098.38 666.679 1099.62 673.654 1099.94 679.559C1100.76 694.325 1102.97 748.507 1097.23 758.819C1096.17 746.637 1096.74 723.798 1096.75 710.989L1097.01 620.981Z"/><path fill="#1F2024" d="M945.476 787.089C945.38 790.716 939.149 801.546 937.142 805.049C903.267 864.171 889.092 933.724 847.198 988.301C844.027 992.432 840.964 996.885 837.861 1001.11C837.576 1004.26 837.06 1004.96 835.376 1007.65C840.038 1012.37 861.846 1011.03 861.838 1020.08C861.836 1022.51 861.376 1023.33 862.495 1026.01C849.987 1039.26 840.521 1049.55 822.73 1055.71C803.982 1062.24 783.388 1060.92 765.632 1052.03C758.82 1048.66 752.578 1044.24 747.133 1038.93C740.62 1032.68 703.008 985.223 700.947 979.258C704.32 978.632 714.586 974.881 717.999 973.673C814.169 938.364 885.684 868.021 945.476 787.089Z"/><path fill="#444448" d="M736.014 968.588L754.786 993.096C765.23 1006.68 774.33 1020.99 792.741 1023.3C813.047 1025.85 825.576 1015.67 837.861 1001.11C837.576 1004.26 837.06 1004.96 835.376 1007.65C840.038 1012.37 861.846 1011.03 861.838 1020.08C861.836 1022.51 861.376 1023.33 862.495 1026.01C849.987 1039.26 840.521 1049.55 822.73 1055.71C803.982 1062.24 783.388 1060.92 765.632 1052.03C758.82 1048.66 752.578 1044.24 747.133 1038.93C740.62 1032.68 703.008 985.223 700.947 979.258C704.32 978.632 714.586 974.881 717.999 973.673C723.631 974.501 730.788 970.884 736.014 968.588Z"/><path fill="#B5E5B7" d="M931.983 652.497C934.67 652.677 940.098 653.701 941.441 653.697C952.365 653.668 965.816 650.4 974.169 659.636C977.115 662.847 978.592 667.138 978.248 671.482C977.862 676.343 975.514 680.089 971.711 683.047C969.018 685.11 965.814 686.402 962.443 686.784C965.766 680.472 969.674 673.917 973.235 667.692C959.382 662.91 945.628 657.844 931.983 652.497Z"/><path fill="#90AD91" d="M567.321 979.711C578.385 980.13 588.734 979.974 599.813 979.798L600.037 980.582C597.271 980.97 588.715 981.642 587.256 983.08L586.543 983.074C589.091 983.655 591.299 983.834 593.305 985.31L593.03 986.483C584.843 985.421 575.047 982.572 567.321 979.711Z"/><defs><linearGradient id="gradient_1" gradientUnits="userSpaceOnUse" x1="564.46985" y1="956.12091" x2="821.67603" y2="528.42023"><stop offset="0" stop-color="#3C3741"/><stop offset="1" stop-color="#6F7F71"/></linearGradient></defs><path fill="url(#gradient_1)" d="M789.416 525.744C794.571 526.943 815.816 514.804 822.109 532.81C823.348 536.355 824.899 542.088 824.062 545.751C808.633 555.391 789.307 564.759 774.813 574.347C735.585 600.028 707.676 639.751 696.814 685.362C695.539 690.835 694.151 697.35 693.58 702.869L658.298 703.121C663.276 681.806 665.999 667.173 674.721 647.062C673.619 639.13 670.412 637.38 662.545 638.442C660.472 639.278 647.342 647.06 644.645 648.602C629.649 657.087 614.761 665.761 599.984 674.621C590.957 679.929 569.4 691.279 562.297 697.05C554.849 703.041 550.158 711.803 549.304 721.324C548.683 728.148 549.957 735.012 552.985 741.16C557.557 750.39 585.736 787.534 593.346 797.153C610.32 818.607 628.99 846.744 646.221 867.122L611.597 880.591C594.58 855.427 573.018 829.206 554.959 803.833C544.715 827.883 532.521 857.401 542.02 883.394C557.02 924.438 615.695 907.348 645.501 895.18C705.38 870.735 755.095 832.498 798.61 785.154C785.643 779.678 772.548 774.51 759.337 769.654L921.902 698.62C899.925 732.627 876.832 767.037 849.609 797.427C787.345 866.933 707.252 932.53 613.417 950.501C526.716 967.106 484.993 911.574 521.245 832.766C528.487 817.023 535.498 805.659 545.015 790.733C522.921 762.446 506.889 742.332 517.57 704.407C526.466 672.818 549.268 664.084 575.228 649.229L641.426 611.575C689.874 583.948 741.082 551.965 789.416 525.744Z"/><path fill="#15181A" d="M670.721 633.607C674.193 633.437 675.52 632.687 677.629 634.468C677.157 636.938 676.491 639.397 676.636 641.847L674.721 647.062C673.619 639.13 670.412 637.38 662.545 638.442C665.215 636.465 667.809 635.182 670.721 633.607Z"/><path fill="#161E1A" d="M670.721 633.607C675.781 630.722 680.866 627.88 685.975 625.083C682.797 630.634 679.684 636.223 676.636 641.847C676.491 639.397 677.157 636.938 677.629 634.468C675.52 632.687 674.193 633.437 670.721 633.607Z"/><path fill="#85A883" d="M1709.12 668.173C1721.6 668.107 1734.77 667.829 1747.18 668.33C1750.74 673.543 1748.22 695.401 1748.17 702.98L1748.14 771.442C1748.13 782.515 1749.98 828.18 1747.48 836.549C1747.28 838.708 1747.39 840.017 1746.13 841.774C1740.12 844.441 1719.31 843.093 1711.43 843.021L1711.44 829.182C1696.91 843.916 1676.89 847.698 1656.92 843.573C1641.04 840.419 1627.14 830.928 1618.42 817.292C1600.04 788.515 1604.65 742.886 1635.13 723.771C1645.86 716.886 1652.62 714.913 1665.23 713.471C1681.21 710.832 1696.43 715.439 1709.11 725.183C1708.82 706.446 1709.11 686.969 1709.12 668.173Z"/><path fill="#161E1A" d="M1747.18 668.33C1750.74 673.543 1748.22 695.401 1748.17 702.98L1748.14 771.442C1748.13 782.515 1749.98 828.18 1747.48 836.549C1746.08 831.755 1746.55 807.012 1746.72 800.536C1747.87 756.819 1745.42 711.9 1747.18 668.33Z"/><path fill="#90AD91" d="M1635.13 723.771C1645.86 716.886 1652.62 714.913 1665.23 713.471L1667.1 714.538C1655.93 720.113 1647.62 722.74 1635.13 723.771Z"/><path fill="#1F2024" d="M1676.35 743.353C1719.16 745.537 1722.34 806.149 1680.37 814.3C1671.36 813.914 1665.82 813.489 1658.31 807.857C1638.72 793.169 1641.66 754.065 1665.67 745.267C1668.89 744.085 1672.93 743.721 1676.35 743.353Z"/><path fill="#5F6062" d="M2274.55 668.027L2312.11 668.049L2312.04 842.93L2275.92 843.062L2275.76 830.085C2257.06 846.395 2235.67 849.119 2212.24 841.405C2188.4 831.781 2179.13 818.193 2173.4 793.291C2160.03 735.184 2225.37 688.738 2274.15 725.026C2273.97 706.256 2274.78 687.299 2274.55 668.027Z"/><path fill="#1F2024" d="M2236.95 744.23C2243.47 743.92 2251.89 743.795 2257.46 747.344C2283.67 764.02 2280.25 806.161 2248.22 813.894C2240.76 814.345 2232.5 814.329 2226.21 810.016C2201.16 792.842 2205.46 751.135 2236.95 744.23Z"/><path fill="#85A883" d="M1319.8 784.492C1319.92 778.093 1319.62 771.778 1320.74 765.449C1323.54 749.117 1332.8 734.602 1346.43 725.176C1376.01 704.787 1423.09 709.248 1444.27 740.116C1449.09 746.937 1452.83 755.129 1453.25 763.576C1455.48 771.21 1455.32 782.179 1455.36 790.281L1357.25 790.17C1368.98 819.314 1405.69 823.173 1426.22 802.491C1433.28 809.667 1440.02 816.494 1447.38 823.369C1433.1 838.752 1418.34 844.412 1397.39 845.044C1366.57 845.974 1345.28 836.165 1327.42 811.713C1322.85 809.288 1315.3 801.856 1314.13 796.292L1313.84 797.06C1313.57 793.059 1317.15 781.859 1317.74 773.261L1318.45 773.678C1318.81 777.691 1319.16 780.513 1319.8 784.492Z"/><path fill="#15181A" d="M1327.42 811.713C1322.85 809.288 1315.3 801.856 1314.13 796.292L1313.84 797.06C1313.57 793.059 1317.15 781.859 1317.74 773.261L1318.45 773.678C1318.81 777.691 1319.16 780.513 1319.8 784.492C1321.52 796.068 1322.59 800.987 1327.42 811.713Z"/><path fill="#90AD91" d="M1444.27 740.116C1449.09 746.937 1452.83 755.129 1453.25 763.576C1447.08 758.689 1445.2 747.401 1444.27 740.116Z"/><path fill="#1F2024" d="M1380.72 742.195C1402.72 740.24 1413.01 745.106 1419.21 766.945L1396.02 766.988L1356.55 766.976C1360.77 751.691 1365.5 746.543 1380.72 742.195Z"/><path fill="#85A883" d="M1484.87 721.417C1511.58 707.253 1566.66 708.344 1582.42 739.247C1587.17 748.564 1588.87 760.087 1587.86 770.435C1588.04 779.462 1589.22 837.714 1587.37 842.539C1585.07 842.979 1585.79 843.072 1583.59 842.731C1575.45 843.37 1562.41 842.925 1553.89 842.863L1553.73 829.326C1534.2 849.191 1495.88 851.24 1476.14 831.292C1468.88 824.044 1464.92 814.128 1465.18 803.87C1466.04 762.373 1522.65 765.937 1551.02 766.407C1550.07 761.093 1549.31 756.051 1545.98 751.688C1538.02 749.848 1526.93 738.911 1517.25 745.631L1518.41 746.981C1525.32 748.086 1529.14 744.57 1534.21 747.444L1533.25 748.491L1536.82 748.298L1536.44 749.426C1535.24 749.648 1534.12 749.96 1532.98 749.53C1523.77 746.051 1506.61 750.567 1498.38 749.943L1492.68 749.561C1490.56 750.432 1486.57 753.273 1484.5 754.656C1481.57 749.542 1479.36 745.359 1476.79 740.055L1470.97 728.918C1476.67 725.143 1478.57 723.835 1484.87 721.417Z"/><path fill="#161E1A" d="M1492.68 749.561C1507.22 742.579 1534.46 736.418 1545.98 751.688C1538.02 749.848 1526.93 738.911 1517.25 745.631L1518.41 746.981C1525.32 748.086 1529.14 744.57 1534.21 747.444L1533.25 748.491L1536.82 748.298L1536.44 749.426C1535.24 749.648 1534.12 749.96 1532.98 749.53C1523.77 746.051 1506.61 750.567 1498.38 749.943L1492.68 749.561Z"/><path fill="#90AD91" d="M1584.34 840.496C1584.77 828.36 1586 815.699 1586.66 803.481C1587.15 794.572 1586.22 778.423 1587.86 770.435C1588.04 779.462 1589.22 837.714 1587.37 842.539C1585.07 842.979 1585.79 843.072 1583.59 842.731C1578.29 841.761 1574.23 841.517 1568.87 841.146C1574.1 840.789 1579.1 840.641 1584.34 840.496Z"/><path fill="#90AD91" d="M1484.87 721.417C1483.15 724.983 1477.49 727.067 1476.02 731.383C1475.11 734.061 1477.49 736.585 1476.79 740.055L1470.97 728.918C1476.67 725.143 1478.57 723.835 1484.87 721.417Z"/><path fill="#1F2024" d="M1504.07 798.79C1512.01 785.694 1536.93 789.825 1551.1 789.925C1551.09 796.909 1551.71 800.92 1548.3 806.995C1536.48 827.775 1493.54 819.166 1504.07 798.79Z"/><path fill="#161E1A" d="M1504.07 798.79C1512.01 785.694 1536.93 789.825 1551.1 789.925C1551.09 796.909 1551.71 800.92 1548.3 806.995C1548.29 802.647 1550.71 797.136 1547.89 793.658C1541.76 790.915 1520.54 794.491 1512.87 793.421C1511.69 793.257 1507.82 798.109 1504.07 798.79Z"/><path fill="#5F6062" d="M1856.76 674.389C1886.44 675.057 1906.54 682.421 1927.55 704.178C1918.34 710.72 1908.63 719.868 1900.6 727.78C1845.28 673.617 1781.46 740.459 1814.74 790.336C1822.22 801.567 1833.91 809.305 1847.17 811.795C1862.17 814.653 1877.95 811.675 1890.16 802.026C1893.9 799.065 1894.41 796.375 1899.34 793.082C1902.89 793.082 1901.81 793.157 1905.31 796.317C1912.12 802.574 1920.03 809.042 1927.15 815.074C1908.74 834.527 1892.99 843.827 1865.68 845.622C1839.11 847.369 1813.34 840.818 1793.26 822.631C1777.01 807.87 1767.35 787.217 1766.44 765.286C1763.9 709.992 1804.12 676.671 1856.76 674.389Z"/><path fill="#5F6062" d="M1985.39 713.32C2004.1 710.674 2030.2 715.203 2043.92 729.114C2049.98 735.319 2054.23 743.056 2056.23 751.496C2059.47 764.626 2058.06 825.892 2057.99 842.895L2023.13 842.978L2022.63 830.137C2001.08 850.593 1966.3 850.66 1944.39 830.617C1938.68 824.11 1935.13 816.091 1935.16 807.391C1935.3 761.675 1989.91 766.148 2021.28 766.249C2020.4 762.736 2019.14 756.715 2017.03 753.89C2001.89 733.609 1970.81 743.984 1953.92 755.095C1949.06 746.43 1944.36 737.681 1939.81 728.851C1954.74 719.424 1968.07 715.41 1985.39 713.32Z"/><path fill="#1F2024" d="M1996.94 789.42L2020.25 789.876L2020.03 804.859C2019.74 805.292 2019.45 805.722 2019.14 806.146C2012.44 815.497 2006.86 817.478 1996.29 819.327C1983.22 819.545 1964.16 814.015 1975.91 795.746C1979.74 789.798 1990.17 789.684 1996.94 789.42Z"/><defs><linearGradient id="gradient_2" gradientUnits="userSpaceOnUse" x1="933.67395" y1="962.15649" x2="1103.2581" y2="809.09204"><stop offset="0" stop-color="#708070"/><stop offset="1" stop-color="#86AB83"/></linearGradient></defs><path fill="url(#gradient_2)" d="M1048.85 751.658C1070.51 768.021 1083.47 784.769 1098.68 806.808C1105.57 816.795 1112.03 823.697 1117.69 835.244C1125.79 851.462 1127.05 870.253 1121.19 887.407C1108.27 924.801 1071.32 936.723 1038.71 952.589L960.424 990.929C957.866 991.865 959.121 991.83 956.534 991.078C952.787 986.19 945.341 968.547 942.398 961.991C971.95 945.851 1005.41 931.38 1035.48 915.717C1046.44 910.011 1065.34 901.833 1074.75 895.287C1082.71 889.674 1088.07 881.076 1089.6 871.45C1090.59 865.205 1089.77 858.806 1087.24 853.011C1083.2 843.694 1072.09 829.873 1065.73 821.128L1032.13 774.896L1048.85 751.658Z"/><path fill="#85A883" d="M1214.11 674.301C1219.27 670.64 1226.2 663.78 1231.01 659.303C1230.97 710.243 1230.16 763.666 1231.27 814.378C1243.85 800.536 1256.22 786.506 1268.38 772.291C1275.24 780.591 1295.17 805.669 1302.39 812.064C1305.55 811.696 1308.39 810.897 1311.04 812.444C1315.79 819.109 1313.04 833.199 1313.3 842.507C1307.2 843.043 1301.32 842.683 1295.97 843.117C1295.62 844.35 1295.75 843.832 1294.59 844.924C1262.44 844.572 1229.29 845.805 1197.23 845.124C1196.45 845.107 1194.24 844.706 1193.28 844.598L1195.93 843.622L1192.62 842.668L1191.68 840.953C1191.82 800.085 1191.19 738.429 1192.31 695.576C1193.13 694.477 1193.82 693.54 1194.4 692.766C1196.05 680.06 1203.25 677.711 1214.11 674.301Z"/><path fill="#161E1A" d="M1195.93 843.622C1204.95 842.258 1230.9 842.572 1241.35 842.804C1258.46 843.182 1279.19 842.31 1295.97 843.117C1295.62 844.35 1295.75 843.832 1294.59 844.924C1262.44 844.572 1229.29 845.805 1197.23 845.124C1196.45 845.107 1194.24 844.706 1193.28 844.598L1195.93 843.622Z"/><path fill="#90AD91" d="M1302.39 812.064C1305.55 811.696 1308.39 810.897 1311.04 812.444C1315.79 819.109 1313.04 833.199 1313.3 842.507C1308.31 841.107 1267.9 841.588 1258.97 841.456C1273.06 840.357 1297.51 842.25 1309.06 840.926L1310.12 838.996C1307.41 829.777 1309.65 822.594 1311.06 812.815L1302.25 812.505L1302.39 812.064Z"/><path fill="#161E1A" d="M1194.4 692.766C1196.05 680.06 1203.25 677.711 1214.11 674.301C1207.45 681.274 1201.63 686.405 1194.4 692.766Z"/><path fill="#5F6062" d="M2154.08 713.273L2165.17 713.035L2165.26 747.713C2162.91 747.414 2160.56 747.234 2158.19 747.174C2131.35 746.529 2122.43 764.479 2122.67 788.544C2122.85 806.627 2122.82 824.981 2122.95 843.088C2110.91 843.15 2096.65 843.557 2084.82 842.857L2084.99 715.056L2120.44 715.058C2120.82 719.912 2120.88 725.682 2121.05 730.623C2131.35 719.674 2139.43 715.738 2154.08 713.273Z"/><path fill="#85A883" d="M789.416 525.744C813.731 511.338 832.711 500.519 862.647 508.006C891.46 515.211 905.787 537.444 922.221 559.593L949.37 596.315C938.738 601.107 927.05 606.109 916.667 611.235C908.905 600.48 900.408 589.319 892.917 578.413C875.962 553.725 857.456 529.625 824.062 545.751C824.899 542.088 823.348 536.355 822.109 532.81C815.816 514.804 794.571 526.943 789.416 525.744Z"/><path fill="#828282" d="M2702.96 1375.26C2708.12 1379.26 2711.94 1395.72 2721 1405.09C2732.86 1417.34 2740.52 1416.08 2749.94 1422.69L2750.07 1424.36C2746.54 1427.65 2742.75 1428.71 2738.36 1430.82C2718.96 1440.12 2711.84 1453.74 2704.99 1472.73C2702.86 1471.07 2702.73 1471.53 2701.84 1469.26C2695.35 1451.58 2686.49 1438.65 2669.01 1430.19C2665.11 1428.31 2657.45 1427.35 2656.13 1423.58C2659.15 1420.27 2663.78 1420.58 2668.07 1418.34C2688.77 1407.52 2695.69 1395.87 2702.96 1375.26Z"/><path fill="#828282" d="M2083.24 909.631C2087.08 902.121 2093.29 898.946 2101.56 900.623C2115.31 903.264 2120.58 920.308 2107.7 927.874C2103.05 930.614 2097.46 931.291 2092.29 929.742C2083.06 926.918 2081.08 918.107 2083.24 909.631Z"/><path fill="#1F2024" d="M2088.39 912.451C2093.73 906.03 2095.01 905.179 2103.26 906.468C2107.59 911.413 2110.54 917.991 2103.89 922.706C2101.76 924.21 2099.12 924.775 2096.57 924.269C2090.13 922.972 2089.15 917.931 2088.39 912.451Z"/><path fill="#777876" d="M2083.24 909.631C2087.08 902.121 2093.29 898.946 2101.56 900.623C2102.92 902.262 2104.67 903.246 2106.47 904.332L2105.81 905.65L2103.26 906.468C2095.01 905.179 2093.73 906.03 2088.39 912.451C2086.61 916.13 2089.06 916.941 2087.12 922.85L2085.7 922.564C2083.5 917.754 2083.6 914.895 2083.24 909.631Z"/><path fill="#828282" d="M1262.06 900.077C1267.57 898.541 1273.48 900.098 1277.52 904.151C1281.57 908.204 1283.11 914.121 1281.56 919.631C1280.01 925.141 1275.6 929.385 1270.04 930.734C1261.64 932.771 1253.16 927.696 1250.98 919.331C1248.8 910.965 1253.73 902.397 1262.06 900.077Z"/><path fill="#1F2024" d="M1262.62 906.572C1265.79 905.191 1269.45 905.649 1272.18 907.765C1274.91 909.882 1276.26 913.319 1275.71 916.727C1275.15 920.135 1272.78 922.969 1269.53 924.116C1264.74 925.802 1259.48 923.397 1257.62 918.674C1255.76 913.95 1257.97 908.602 1262.62 906.572Z"/><path fill="#1F2024" d="M1408.12 909.453C1421.71 891.054 1445.24 902.694 1438.57 921.299C1432.22 933.487 1421.33 932.745 1411.08 925.843L1409.37 922.741C1407.15 918.544 1407.76 913.994 1408.12 909.453Z"/><path fill="#777876" d="M1408.12 909.453C1421.71 891.054 1445.24 902.694 1438.57 921.299L1434.05 922.439L1431.89 919.885C1434.02 916.163 1433.35 911.47 1430.25 908.499C1427.16 905.527 1422.45 905.038 1418.81 907.312C1415.18 909.587 1413.55 914.041 1414.87 918.121C1413.84 921.749 1414.53 920.453 1411.1 923.076L1409.37 922.741C1407.15 918.544 1407.76 913.994 1408.12 909.453Z"/><path fill="#828282" d="M1414.87 918.121C1416.01 921.645 1419.12 924.165 1422.81 924.547C1426.49 924.929 1430.05 923.101 1431.89 919.885L1434.05 922.439L1438.57 921.299C1432.22 933.487 1421.33 932.745 1411.08 925.843L1409.37 922.741L1411.1 923.076C1414.53 920.453 1413.84 921.749 1414.87 918.121Z"/><path fill="#828282" d="M1879.65 900.105C1885.15 898.546 1891.06 900.085 1895.1 904.129C1899.15 908.173 1900.68 914.088 1899.12 919.588C1897.56 925.089 1893.15 929.314 1887.58 930.632C1879.24 932.609 1870.84 927.553 1868.68 919.251C1866.52 910.949 1871.39 902.444 1879.65 900.105Z"/><path fill="#1F2024" d="M1880.62 906.644C1885.37 904.784 1890.73 907.114 1892.61 911.855C1894.49 916.597 1892.19 921.968 1887.45 923.873C1882.69 925.791 1877.27 923.469 1875.38 918.695C1873.48 913.921 1875.83 908.516 1880.62 906.644Z"/><path fill="#828282" d="M2227.19 900.057C2232.7 898.647 2238.53 900.311 2242.47 904.41C2246.4 908.51 2247.82 914.41 2246.18 919.85C2244.55 925.29 2240.11 929.428 2234.57 930.677C2226.17 932.57 2217.81 927.37 2215.79 919C2213.78 910.63 2218.86 902.193 2227.19 900.057Z"/><path fill="#1F2024" d="M2227.66 906.662C2230.88 905.415 2234.53 906.046 2237.14 908.302C2239.76 910.558 2240.91 914.072 2240.15 917.439C2239.39 920.807 2236.83 923.479 2233.5 924.389C2228.7 925.699 2223.72 923.021 2222.16 918.296C2220.61 913.572 2223.03 908.458 2227.66 906.662Z"/><path fill="#828282" d="M1548.05 900.51C1564.19 900.29 1589.07 903.183 1573.37 925.755C1565.63 931.469 1557.28 930.16 1547.89 930.022L1548.05 900.51Z"/><path fill="#1F2024" d="M1554.84 905.858C1565.97 905.958 1574.51 908.149 1569.18 921.469C1564.96 924.192 1560.25 926.287 1556.1 922.796C1554.07 918.426 1554.75 910.962 1554.84 905.858Z"/><path fill="#828282" d="M1861.48 899.295L1865.13 900.667C1866.83 905.641 1859.98 932.272 1850.49 929.255C1847.72 925.706 1845.11 914.276 1843.73 909.327C1841.7 915.967 1839.78 927.085 1832.98 929.501L1830.57 928.333C1827.51 924.978 1826.22 918.682 1824.93 914.122C1823.46 909.543 1821.64 905.301 1822.18 900.576L1824.06 899.517C1830.32 906.016 1831.52 912.655 1833.89 921.135C1835.74 915.309 1838.34 902.67 1844.54 901.329C1849.63 904.739 1851.78 915.404 1853.59 921.528C1855.35 915.745 1858.42 903.557 1861.48 899.295Z"/><path fill="#777876" d="M1221.23 900.495C1234.24 900.34 1259.59 903.023 1241.13 920.983C1243.45 924.396 1244.78 925.159 1245.02 928.875L1243.36 930.119C1238.01 928.975 1237.75 927.132 1235.67 922.273C1233.19 921.873 1232.19 921.459 1229.89 922.47C1228.08 926.236 1227.01 927.242 1224.37 930.37L1222.22 930.515C1220.69 926.627 1221.21 905.567 1221.23 900.495Z"/><path fill="#828282" d="M1241.13 920.983C1243.45 924.396 1244.78 925.159 1245.02 928.875L1243.36 930.119C1238.01 928.975 1237.75 927.132 1235.67 922.273C1237.61 923.393 1237.77 923.625 1239.92 924.127L1241.13 920.983Z"/><path fill="#15181A" d="M1228.22 905.872C1232.55 905.994 1235.47 905.598 1238.74 908.145C1240.21 912.153 1239.75 910.908 1239.05 915.613C1235.58 916.09 1232.15 917.116 1229.35 915.48C1227.55 912.869 1228.14 909.214 1228.22 905.872Z"/><path fill="#777876" d="M1905.14 900.489C1912.55 900.403 1924.92 898.856 1929.34 906.129C1933.31 912.674 1926.26 915.332 1925.16 921.587C1926.79 924.331 1927.67 925.529 1929.65 928.049L1929.3 929.733L1925.45 931.438C1921.25 928.475 1921.02 924.286 1916.71 921.554C1913.87 922.462 1910.19 927.837 1906.86 930.703L1905.4 930.219C1904.36 926.382 1904.59 905.22 1905.14 900.489Z"/><path fill="#1F2024" d="M1911.42 905.839C1915.72 905.899 1919.14 905.484 1922.29 908.162C1923.73 911.236 1923.2 912.171 1922.53 915.729C1918.85 916.258 1916.19 917.118 1912.92 915.626C1910.89 912.855 1911.43 909.506 1911.42 905.839Z"/><path fill="#777876" d="M2173.81 903.163L2175.27 900.786C2179.17 899.864 2197.13 899.689 2199.71 901.644L2199.72 904.615C2195.51 907.905 2190.3 903.699 2189.54 909.223C2188.67 915.496 2193.41 924.687 2188.44 929.797C2185.93 929.908 2185.45 930.077 2182.99 929.414C2181.15 925.37 2180.42 924.18 2175.85 923.544C2172.41 924.896 2171.34 925.387 2168.78 928.047L2167.28 928.265C2171.37 914.955 2170.8 914.444 2171.05 900.29L2173.81 903.163Z"/><path fill="#15181A" d="M2171.05 900.29L2173.81 903.163L2174.74 905.473C2180.68 907.143 2179.18 904.595 2182.36 908.257C2184.21 914.679 2183.33 922.579 2182.99 929.414C2181.15 925.37 2180.42 924.18 2175.85 923.544C2172.41 924.896 2171.34 925.387 2168.78 928.047L2167.28 928.265C2171.37 914.955 2170.8 914.444 2171.05 900.29Z"/><path fill="#828282" d="M1191.05 900.274C1198.36 900.122 1217.79 899.359 1217.62 913.04C1217.58 916.125 1210.63 920.715 1207.59 921.756C1192.07 921.417 1201.81 925.802 1194.04 931.329L1192.5 930.751C1190.02 926.621 1191.02 906.684 1191.05 900.274Z"/><path fill="#1F2024" d="M1197.99 905.969C1201.91 905.97 1204.76 905.477 1207.96 907.522C1209.98 910.304 1209.62 911.375 1209.63 915.043C1206.37 916.125 1202.52 916.775 1199.34 915.548C1197.29 911.85 1198.02 910.657 1197.99 905.969Z"/><path fill="#828282" d="M1755.42 916.356C1755.42 911.289 1755.47 906.805 1755.76 901.745C1757.41 900 1756.41 900.56 1758.98 900.248C1763.58 903.836 1765.57 928.678 1757.6 929.834C1754.47 927.655 1745.12 915.885 1741.53 911.891C1741.77 917.004 1742.99 927.236 1739.09 930.815L1737.69 929.839C1733.53 922.204 1734.55 908.327 1735.61 899.739C1742.53 900.773 1744.57 904.991 1749.11 910.654C1751.59 911.014 1751.97 910.965 1754.32 910.107L1755.42 916.356Z"/><path fill="#777876" d="M1735.61 899.739C1735.73 904.795 1735.88 909.85 1736.08 914.903L1736.96 915.61L1737.5 913.071C1739.4 914.696 1739.74 917.08 1740.69 919.761L1740.68 918.967C1740.63 915.675 1740.7 915.046 1741.53 911.891C1741.77 917.004 1742.99 927.236 1739.09 930.815L1737.69 929.839C1733.53 922.204 1734.55 908.327 1735.61 899.739Z"/><path fill="#15181A" d="M1749.11 910.654C1751.59 911.014 1751.97 910.965 1754.32 910.107L1755.42 916.356L1755.15 916.637L1753.97 916.624L1749.11 910.654Z"/><path fill="#828282" d="M1464.91 918.527C1464.85 913.252 1463.63 903.915 1468.05 900.608C1473.45 905.387 1473.24 925.67 1470.09 931.252C1463.54 929.327 1455.81 917.741 1451.1 911.869C1451.42 917.25 1452.92 925.506 1449.61 929.394C1446.14 930.271 1447.64 930.538 1444.88 929.326C1443.77 924.432 1444.45 906.279 1444.55 900.265C1453.41 900.806 1459.61 911.641 1464.91 918.527Z"/><defs><linearGradient id="gradient_3" gradientUnits="userSpaceOnUse" x1="2268.3218" y1="900.50525" x2="2262.8293" y2="928.71887"><stop offset="0" stop-color="#727372"/><stop offset="1" stop-color="#878788"/></linearGradient></defs><path fill="url(#gradient_3)" d="M2272.21 918.237C2272.19 912.817 2270.59 905.062 2273.76 901.222C2276.9 900.519 2275.43 900.408 2278.34 901.361C2279.62 906.789 2279.13 924.357 2279.11 930.85C2269.86 929.411 2264.47 919.392 2258.53 911.513C2258.72 916.324 2259.73 925.773 2257.4 929.677C2254.01 929.954 2254.94 930.368 2252.43 928.911C2250.97 923.063 2251.8 907.208 2251.96 900.413C2261.01 901.281 2266.5 911.28 2272.21 918.237Z"/><path fill="#828282" d="M2000.29 918.256C2000.06 913.306 1998.77 904.908 2001.78 901.279C2004.92 900.534 2003.44 900.451 2006.4 901.339C2007.98 906.825 2007.08 924.202 2006.93 930.672C1997.15 928.934 1995.39 921.195 1987.49 913.191L1986.81 912.516C1987 917.653 1988.12 924.922 1985.66 928.955C1982.48 930.248 1984.02 930.194 1980.87 929.343C1979.21 923.632 1980 907.074 1980.12 900.4C1989.14 900.744 1994.87 911.331 2000.29 918.256Z"/><path fill="#828282" d="M1476.52 926.939C1478.92 920.152 1483.89 905.856 1489.06 901.649C1496.76 899.85 1498.16 907.399 1500.54 913.377C1502.48 917.514 1506.34 925.236 1507.54 929.27C1502.77 930.951 1493.71 920.148 1486.5 923.287C1479.95 926.138 1486.06 931.025 1476.01 929.725L1475.03 928.599L1476.52 926.939Z"/><path fill="#777876" d="M1494.98 915.122C1496.36 913.644 1496.27 913.869 1497.99 912.732L1500.54 913.377C1502.48 917.514 1506.34 925.236 1507.54 929.27C1502.77 930.951 1493.71 920.148 1486.5 923.287C1479.95 926.138 1486.06 931.025 1476.01 929.725L1475.03 928.599L1476.52 926.939C1481.11 922.395 1479.12 917.372 1486.69 918.445C1489.72 918.508 1492.79 918.95 1495.39 917.565L1494.98 915.122Z"/><path fill="#1F2024" d="M1486.69 918.445C1488.04 914.929 1488.6 913.095 1490.68 909.891L1492.31 910.276L1494.98 915.122L1495.39 917.565C1492.79 918.95 1489.72 918.508 1486.69 918.445Z"/><path fill="#828282" d="M1675.44 900.49C1678.83 900.395 1679.25 900.274 1682.42 901.244C1685.92 907.405 1693.84 922.724 1693.47 929.33L1691.76 930.378L1688.64 929.299C1687.46 927.073 1686.68 925.725 1684.97 923.878C1680.62 923.699 1676.94 923.445 1672.57 923.943C1670.89 925.548 1670.73 926.475 1669.89 928.618L1669.59 929.401C1667.39 930.334 1664.75 930.558 1663.24 928.545C1667.43 919.248 1671.5 909.896 1675.44 900.49Z"/><path fill="#15181A" d="M1678.48 908.572C1681.65 911.407 1683.34 915.356 1681.5 919.282C1678.87 918.837 1678.52 918.697 1676.12 917.826C1675.05 914.522 1676.8 912.599 1678.48 908.572Z"/><path fill="#828282" d="M1958.23 899.465C1959.43 899.955 1959.98 900.406 1961.08 901.104C1960.31 904.321 1953.02 910.974 1950.36 913.644C1952.89 916.709 1961.6 926.351 1961.92 929.4L1959.71 930.723C1951.81 930.199 1951.24 921.251 1945.6 919.019L1942.08 922.27C1941.99 925.841 1942.52 927.019 1940.88 929.861C1937.55 930.316 1938.94 930.734 1936.48 929.005C1934.23 924.053 1933.42 902.742 1938.04 899.766C1943.42 901.364 1942.09 909.894 1941.88 914.318C1945.99 909.581 1952.37 901.36 1958.23 899.465Z"/><path fill="#828282" d="M1768.84 900.231C1774.28 900.282 1789.41 898.876 1791.87 903.444C1788.25 909.036 1784.06 904.039 1776.12 906.537C1775.2 909.324 1775.17 907.976 1776.21 910.716C1779.13 912.951 1785.37 913.034 1789.54 913.568L1790.4 914.888L1789.52 916.467C1786.16 918.449 1780.47 917.694 1776.01 917.679C1775.59 920.866 1775.49 920.774 1776.29 923.823C1778.65 925.065 1786.34 924.283 1789.67 924.258C1792.48 925.791 1791.69 924.689 1792.53 927.325L1791.29 928.794C1787.04 930.964 1774.38 930.055 1768.85 929.978C1769.09 920.307 1768.88 909.956 1768.84 900.231Z"/><path fill="#828282" d="M1313.99 900.577C1318.4 900.548 1333.78 899.679 1336.16 902.13L1335.82 904.991C1330.92 907.224 1326.93 904.832 1321.36 906.353C1320.48 908.757 1320.69 908.87 1321.1 911.328C1324.08 913.367 1328.72 911.996 1333.71 912.606L1334.99 914.498L1334.52 916.681C1331.39 918.847 1325.7 918.061 1321.24 918.071C1320.72 920.996 1320.68 920.856 1321.36 923.719C1326.3 925.586 1329.4 923.276 1335.91 924.531C1337.62 927.156 1337.32 925.747 1336.69 928.92C1333.78 930.853 1318.79 930.004 1313.99 929.998L1313.99 900.577Z"/><path fill="#777876" d="M2167.28 928.265C2140.77 937.988 2139.21 906.769 2147.27 899.984C2154.87 900.248 2146.66 916.752 2155.05 924.712C2158.15 925.373 2158.54 924.964 2161.65 923.692C2167.46 917.314 2161.68 911.607 2164.36 902.534C2166.87 899.853 2166.2 900.719 2171.05 900.29C2170.8 914.444 2171.37 914.955 2167.28 928.265Z"/><path fill="#777876" d="M1605.74 900.123C1611 900.062 1619.71 899.641 1621.68 905.888C1619.16 907.166 1609.6 906.85 1605.54 907.165C1596.43 911.892 1602.18 929.169 1614.33 923.183C1616.75 919.413 1616.01 919.138 1616.19 914.28C1618.45 914.638 1618.51 914.675 1620.62 915.569C1623.4 920.188 1622.98 925.555 1619.21 929.497C1604.2 937.09 1578.34 913.345 1605.74 900.123Z"/><path fill="#828282" d="M1374.41 900.203C1379.61 899.899 1385.51 899.517 1389.68 902.815L1389.54 904.891C1386.69 907.023 1379.39 906.822 1375.28 907.13L1374.37 908.323C1377.33 913.389 1388.3 913.217 1392.38 921.813C1392.27 927.3 1385.13 929.605 1380.52 930.861C1375.13 930.702 1368.1 930.479 1366.85 924.241C1372.25 922.541 1380.02 926.125 1384.26 922.877C1382.02 919.042 1372.79 917.476 1367.72 912.067C1365.51 905.673 1369.18 903.453 1374.41 900.203Z"/><path fill="#828282" d="M1348.67 900.06C1353.13 899.935 1358.08 900.011 1362.06 902C1363.27 904.344 1362.97 903.022 1362.12 906.22L1359.94 907.092C1356.29 906.257 1351.15 904.872 1348.06 907.221C1351.5 912.13 1361.09 913.723 1365.14 921.692C1364.91 928.157 1357.74 930.102 1352.17 931.102C1350.33 930.77 1348.5 930.41 1346.68 930.021C1342.23 929.04 1341.98 928.524 1339.9 925.302C1342.75 920.274 1351.96 926.521 1356.79 922.999C1355.29 919.669 1346.16 916.591 1341.53 911.796C1339.15 904.968 1342.84 903.033 1348.67 900.06Z"/><path fill="#828282" d="M2291.83 900.085C2296.5 899.915 2303.48 899.719 2306.48 903.496L2306.11 905.409C2302.27 907.645 2294.96 904.693 2290.78 907.522C2293.62 914.263 2308.94 913.555 2309.25 923.835C2306.16 928.269 2300.78 929.829 2295.78 931.024C2294.54 930.855 2293.3 930.667 2292.06 930.46C2288.52 929.858 2285.85 929.277 2283.82 926.444L2284.67 923.698C2289.75 921.664 2294.69 927.29 2300.18 922.958C2297.54 917.297 2270.06 911.567 2291.83 900.085Z"/><path fill="#828282" d="M2063.64 900.052C2067.75 899.837 2075.86 899.523 2077.88 903.515L2076.8 906.176L2074.87 906.912C2074.02 906.73 2073.17 906.56 2072.31 906.4C2068.62 905.694 2066.4 905.256 2063.38 907.326C2066.64 913.271 2080.78 915.144 2079.7 924.892C2076.36 929.399 2072.12 930.351 2066.87 931.394C2063.15 930.55 2057.86 929.515 2055.49 926.572C2056.5 923.762 2055.71 924.97 2058.13 922.952C2063.7 923.464 2067.57 926.709 2072.13 923.042C2069.31 917.306 2041.91 911.597 2063.64 900.052Z"/><path fill="#828282" d="M1287.71 900.404C1293.48 900.377 1303 899.872 1308.2 901.465L1309.42 902.925L1308.96 905.357C1303.39 907.674 1299 904.327 1294.69 906.727C1293.95 909.751 1294.07 909.672 1294.63 912.811C1299.63 916.065 1306.3 910.958 1308.43 916.459C1304.66 922.452 1300.18 916.775 1294.32 919.958C1293.51 923.374 1293.84 924.456 1294.2 928.032L1293.17 929.772C1290.37 929.982 1290.57 929.982 1287.94 928.968C1286.76 923.839 1287.09 906.032 1287.71 900.404Z"/><path fill="#777876" d="M1287.71 900.404C1288.26 906.487 1288.41 911.808 1288.54 917.922C1292.16 918.553 1291.2 917.827 1292.97 920.209C1292.99 923.578 1293.09 924.1 1292.18 927.279C1290.07 927.87 1291.2 927.788 1288.6 926.487L1287.94 928.968C1286.76 923.839 1287.09 906.032 1287.71 900.404Z"/><path fill="#777876" d="M1793.57 905.747L1793.42 905.712C1791.77 903.953 1792.34 904.218 1792.31 900.957L1793.36 900.418C1798.82 900.411 1816.23 899.539 1819.62 901.738L1820 904.07L1818.48 905.824C1815.27 905.79 1814.18 905.724 1811.06 906.3C1809.66 908.844 1810.24 914.082 1810.31 917.262C1810.54 922.169 1812.04 929.118 1806.83 930.894C1802.29 926.053 1803.63 913.088 1803.98 906.835C1801.97 905.656 1796.23 905.835 1793.57 905.747Z"/><path fill="#828282" d="M1803.98 906.835C1804.99 910.615 1805.12 919.088 1806.15 920.988L1807.96 920.681L1810.31 917.262C1810.54 922.169 1812.04 929.118 1806.83 930.894C1802.29 926.053 1803.63 913.088 1803.98 906.835Z"/><path fill="#15181A" d="M1793.57 905.747L1793.42 905.712C1791.77 903.953 1792.34 904.218 1792.31 900.957L1793.36 900.418L1793.57 905.747Z"/><path fill="#777876" d="M1638.59 900.27L1663.43 900.311C1665.34 902.539 1664.77 901.27 1665.05 904.312C1662.9 906.222 1658.84 906.12 1655.63 906.438C1654.42 910.017 1654.97 918.067 1655.06 922.25C1655.25 925.644 1655.4 926.22 1654.59 929.447C1651.94 930.49 1653.35 930.222 1650.13 929.683C1646.05 925.085 1649.03 914.624 1648.22 906.977C1643.96 904.282 1643.52 907.728 1639.29 904.978L1638.59 900.27Z"/><path fill="#777876" d="M2014.9 905.658L2020.65 908.616C2016.04 917.698 2021.83 927.496 2031.79 923.413C2034.09 920.819 2033.76 919.494 2033.99 916.046C2035.84 914.454 2034.76 915.061 2037.71 914.95C2040.06 917.937 2039.14 922.174 2038.82 926.306C2026.5 939.079 2004.3 923.861 2014.9 905.658Z"/><path fill="#777876" d="M1402.27 929.575C1398.92 929.997 1399.75 930.358 1397 929.212C1394.18 922.968 1394.32 904.612 1399.14 899.345L1401.52 899.893C1403.26 903.441 1402.88 905.43 1402.84 909.391L1405.5 910.526L1408.12 909.453C1407.76 913.994 1407.15 918.544 1409.37 922.741L1411.08 925.843L1409.94 926.143L1407.98 924.866C1403.95 926.215 1405.29 925.641 1402.27 929.575Z"/><path fill="#15181A" d="M1402.84 909.391L1405.5 910.526L1408.12 909.453C1407.76 913.994 1407.15 918.544 1409.37 922.741L1411.08 925.843L1409.94 926.143L1407.98 924.866C1403.95 926.215 1405.29 925.641 1402.27 929.575C1402.7 923.412 1402.68 915.684 1402.84 909.391Z"/><path fill="#828282" d="M1510.84 899.919L1515.66 900.347C1519.67 905.007 1517.88 917.201 1517.87 924.338C1523.07 924.406 1525.57 923.246 1530.98 924.489C1533.56 926.633 1532.75 925.763 1533.42 929.995L1510.66 930.007C1510.89 920.134 1510.79 909.83 1510.84 899.919Z"/><path fill="#828282" d="M1698.28 900.138C1700.29 900.223 1701.41 900.379 1703.37 900.659C1706.86 904.507 1705.27 918.436 1705.18 924.388C1712.91 924.127 1718.92 921.806 1721.02 929.81C1714.7 930.256 1704.84 929.985 1698.25 930.015C1698.05 920.229 1698.24 909.964 1698.28 900.138Z"/><path fill="#828282" d="M2119.44 900.412C2120.98 900.43 2122.48 900.514 2124.02 900.587C2128.11 904.822 2126.41 917.37 2126.29 924.324C2133.89 924.52 2139.92 921.062 2141.75 929.694C2135.16 930.148 2125.97 929.989 2119.17 930.081L2119.44 900.412Z"/><path fill="#828282" d="M1966.16 900.48C1968.89 900.497 1968.88 900.413 1971.62 901.311C1974.6 906.44 1973.17 923.042 1973.09 930.231C1970.49 930.174 1970.26 930.145 1967.73 929.549C1964.31 924.714 1966.02 907.634 1966.16 900.48Z"/><path fill="#777876" d="M2203.07 899.786C2205.73 899.959 2205.84 899.925 2208.53 900.761C2211.51 905.866 2210.01 923.298 2209.99 930.544C2207.7 930.323 2206.86 930.121 2204.68 929.614C2201.48 924.566 2203.01 906.971 2203.07 899.786Z"/><path fill="#777876" d="M1589.18 924.999L1588.61 929.877L1585.46 930.848L1583.65 928.863C1581.84 921.751 1580.01 909.072 1582.73 902.165C1585.33 900.004 1584.01 900.498 1588.02 900.817C1589.74 903.359 1588.99 911.177 1588.96 914.965L1589.18 924.999Z"/><path fill="#5F6062" d="M1589.18 924.999L1586.44 927.242L1584.84 926.818C1582.4 922.822 1582.26 917.062 1586.02 913.996L1588.96 914.965L1589.18 924.999Z"/><path fill="#777876" d="M1628.28 900.08C1631.75 900.333 1632.76 899.757 1634.87 901.531C1635.47 907.333 1635.94 926.062 1634.32 931.092C1632.39 930.667 1631.48 930.318 1629.64 929.664C1627.07 925 1628.39 907.208 1628.28 900.08Z"/><path fill="#828282" d="M2014.9 905.658C2021.96 899.91 2029.95 897.792 2038.06 903.524L2038.58 905.563L2036.64 907.515C2028.89 907.527 2028.29 903.809 2020.65 908.616L2014.9 905.658Z"/></svg>